<?xml version="1.0" encoding="UTF-8" standalone="no"?>
<svg
   xmlns:dc="http://purl.org/dc/elements/1.1/"
   xmlns:cc="http://creativecommons.org/ns#"
   xmlns:rdf="http://www.w3.org/1999/02/22-rdf-syntax-ns#"
   xmlns:svg="http://www.w3.org/2000/svg"
   xmlns="http://www.w3.org/2000/svg"
   xmlns:sodipodi="http://sodipodi.sourceforge.net/DTD/sodipodi-0.dtd"
   xmlns:inkscape="http://www.inkscape.org/namespaces/inkscape"
   width="200"
   height="51.135529"
   viewBox="-3.5 -3.5 200 51.135529"
   version="1.1"
   id="svg26"
   sodipodi:docname="angular-logo.svg"
   inkscape:version="0.92.2 5c3e80d, 2017-08-06">
  <metadata
     id="metadata32">
    <rdf:RDF>
      <cc:Work
         rdf:about="">
        <dc:format>image/svg+xml</dc:format>
        <dc:type
           rdf:resource="http://purl.org/dc/dcmitype/StillImage" />
        <dc:title></dc:title>
      </cc:Work>
    </rdf:RDF>
  </metadata>
  <defs
     id="defs30" />
  <sodipodi:namedview
     pagecolor="#ffffff"
     bordercolor="#666666"
     borderopacity="1"
     objecttolerance="10"
     gridtolerance="10"
     guidetolerance="10"
     inkscape:pageopacity="0"
     inkscape:pageshadow="2"
     inkscape:window-width="925"
     inkscape:window-height="617"
     id="namedview28"
     showgrid="false"
     inkscape:zoom="0.63021583"
     inkscape:cx="315.67774"
     inkscape:cy="87.624996"
     inkscape:window-x="0"
     inkscape:window-y="0"
     inkscape:window-maximized="0"
     inkscape:current-layer="svg26" />
  <path
     d="m 50.575058,13.037943 12.605962,16.59468 v -16.59468 h 2.519971 v 20.59998 H 63.036415 L 50.431617,16.897483 v 16.74044 h -2.521426 v -20.59998 z m 35.581308,19.79316 c -1.660777,0.63487 -3.452775,0.95114 -5.373376,0.95114 -7.460987,0 -11.19308,-3.57702 -11.19308,-10.73221 0,-6.77084 3.601454,-10.15669 10.803199,-10.15669 2.06637,0 3.987552,0.28892 5.762966,0.86588 v 2.30467 c -1.775704,-0.6724 -3.601454,-1.00904 -5.47492,-1.00904 -5.617198,0 -8.425215,2.66603 -8.425215,7.99518 0,5.7138 2.764083,8.57215 8.297485,8.57215 0.88247,0 1.861828,-0.1158 2.938366,-0.34711 v -7.0004 h 2.664575 z m 4.249996,-7.145 v -12.64728 h 2.66312 v 12.64698 c 0,3.95672 1.969482,5.93725 5.907568,5.93725 3.93693,0 5.90641,-1.98083 5.90641,-5.93725 v -12.64698 h 2.66458 v 12.64698 c 0,5.39928 -2.8569,8.09731 -8.57099,8.09731 -5.713791,2.9e-4 -8.570688,-2.69803 -8.570688,-8.09701 z m 35.337488,5.79177 v 2.16005 h -13.44072 v -20.59998 h 2.66342 v 18.43993 z m 11.32139,-21.15716 10.24194,23.3178 h -2.95233 l -2.66603,-6.48367 h -6.81186 l 0.73408,-2.15831 h 5.186 l -3.84644,-9.3362 -7.36177,17.97818 h -2.76524 z m 13.05142,23.31721 v -20.59998 h 8.78774 c 3.91889,0 5.87761,1.64769 5.87761,4.94073 0,2.68029 -1.91479,4.66373 -5.74755,5.94918 l 7.07285,9.71007 h -3.51504 l -6.55349,-9.26229 v -1.74166 c 3.93663,-0.62585 5.90495,-2.13824 5.90495,-4.53834 0,-1.90081 -1.09458,-2.85311 -3.28286,-2.85311 h -5.87906 v 18.39628 h -2.66486 z m 25.97423,-20.59998 v 14.66535 c 0,3.95642 -2.32911,5.93434 -6.9879,5.93434 v -2.16035 c 2.88163,0 4.32274,-1.25954 4.32274,-3.77428 v -14.66506 z m 4.75393,19.87958 v -2.44927 c 2.16151,0.76812 4.4944,1.15364 7.00127,1.15364 3.54385,0 5.31635,-1.29679 5.31635,-3.89183 0,-2.20545 -1.30726,-3.31253 -3.91918,-3.31253 h -2.65148 c -4.31109,0 -6.46882,-1.87143 -6.46882,-5.6172 0,-3.93693 2.76262,-5.90757 8.28613,-5.90757 2.4001,0 4.63261,0.29037 6.6981,0.86588 v 2.44898 c -2.06608,-0.769 -4.298,-1.15335 -6.6981,-1.15335 -3.74606,0 -5.61865,1.24907 -5.61865,3.74606 0,2.20777 1.26682,3.31253 3.80134,3.31253 h 2.65148 c 4.38762,0 6.58376,1.87405 6.58376,5.6172 0,4.03498 -2.65992,6.05218 -7.98151,6.05218 -2.50629,0 -4.83918,-0.28921 -7.00069,-0.86472 z"
     id="path2"
     inkscape:connector-curvature="0"
     style="fill:#cccccc;stroke-width:0.29095608" />
  <path
     d="m 51.248912,12.364963 12.604799,16.59497 v -16.59497 h 2.521425 v 20.59998 H 63.71027 L 51.104598,16.224493 v 16.74045 h -2.520261 v -20.59998 z m 35.5816,19.79316 c -1.660778,0.63487 -3.451903,0.95085 -5.373086,0.95085 -7.461568,0 -11.19308,-3.57673 -11.19308,-10.73192 0,-6.77084 3.601454,-10.15698 10.804654,-10.15698 2.064624,0 3.986098,0.28921 5.761512,0.86588 v 2.30437 c -1.775705,-0.6724 -3.601455,-1.00903 -5.473757,-1.00903 -5.617489,0 -8.426088,2.66603 -8.426088,7.99518 0,5.71409 2.765247,8.57244 8.297195,8.57244 0.88276,0 1.863282,-0.11522 2.939529,-0.34711 v -7.0007 h 2.663412 z m 4.249704,-7.14559 v -12.64873 h 2.663121 v 12.64844 c 0,3.95642 1.969481,5.9358 5.907863,5.9358 3.93664,0 5.90612,-1.97967 5.90612,-5.9358 v -12.64844 h 2.66457 v 12.64844 c 0,5.39898 -2.8569,8.09585 -8.57069,8.09585 -5.714087,0 -8.570984,-2.69629 -8.570984,-8.09556 z m 35.336614,5.79119 v 2.16006 h -13.43955 v -20.59998 h 2.66341 v 18.43992 z M 137.73968,9.6456934 147.98162,32.964653 h -2.95408 l -2.66457,-6.48308 h -6.81332 l 0.73583,-2.16006 h 5.18454 l -3.84527,-9.3362 -7.36177,17.97934 h -2.76554 z M 150.7908,32.964943 v -20.59998 h 8.78746 c 3.91918,0 5.87615,1.64652 5.87615,4.94102 0,2.67883 -1.91362,4.66344 -5.7461,5.9486 l 7.07315,9.71036 h -3.5165 l -6.55262,-9.26258 v -1.74341 c 3.93693,-0.62585 5.90612,-2.13678 5.90612,-4.53833 0,-1.90082 -1.09574,-2.85167 -3.28548,-2.85167 h -5.87731 v 18.39599 z"
     id="path4"
     inkscape:connector-curvature="0"
     style="stroke-width:0.29095608" />
  <path
     d="m 176.76503,12.363803 v 14.66564 c 0,3.95758 -2.3291,5.93434 -6.9876,5.93434 v -2.16006 c 2.88134,0 4.32244,-1.25984 4.32244,-3.77457 v -14.66535 z m 4.75277,19.87957 v -2.44868 c 2.1618,0.76783 4.4944,1.15364 7.00157,1.15364 3.54355,0 5.31605,-1.29738 5.31605,-3.89096 0,-2.20661 -1.30697,-3.31253 -3.91917,-3.31253 h -2.65149 c -4.31109,0 -6.46853,-1.8726 -6.46853,-5.61866 0,-3.93692 2.76146,-5.90728 8.28585,-5.90728 2.40009,0 4.63289,0.29038 6.69839,0.86589 v 2.44927 c -2.06637,-0.76929 -4.2983,-1.15364 -6.69839,-1.15364 -3.74606,0 -5.61866,1.24907 -5.61866,3.74605 0,2.20778 1.26595,3.31254 3.80134,3.31254 h 2.65149 c 4.38732,0 6.58375,1.87317 6.58375,5.61836 0,4.03411 -2.65963,6.05101 -7.98122,6.05101 -2.50629,-2.9e-4 -4.83947,-0.2895 -7.00098,-0.86501 z"
     id="path6"
     inkscape:connector-curvature="0"
     style="fill:#a6120d;stroke-width:0.29095608" />
  <path
     d="m 156.90321,43.960463 -0.97849,-2.97502 h -0.69567 l 1.35032,3.75915 c -0.0314,0.0818 -0.0829,0.20629 -0.15275,0.37446 -0.0704,0.16817 -0.11173,0.2607 -0.12249,0.27903 -0.0364,0.0547 -0.0812,0.10067 -0.13501,0.1382 -0.0535,0.0375 -0.13674,0.0562 -0.24964,0.0562 -0.0364,0 -0.0788,-0.004 -0.12656,-0.0102 -0.0474,-0.007 -0.12482,-0.025 -0.23131,-0.0547 v 0.55951 c 0.0681,0.0183 0.12598,0.0303 0.17195,0.0375 0.0466,0.006 0.11348,0.01 0.19989,0.01 0.35438,0 0.60403,-0.10213 0.74921,-0.30667 0.14548,-0.20454 0.39483,-0.7722 0.74951,-1.70355 0.15013,-0.39541 0.33605,-0.90749 0.55921,-1.53479 0.29736,-0.83475 0.48997,-1.36924 0.5758,-1.60375 h -0.6785 z m -3.63317,0.25052 c -0.44255,0 -0.74485,-0.20076 -0.90662,-0.60345 -0.0867,-0.21327 -0.12948,-0.49171 -0.12948,-0.83504 0,-0.47484 0.10504,-0.81584 0.31656,-1.02329 0.21095,-0.20629 0.45651,-0.30987 0.737,-0.30987 0.32121,0 0.56474,0.12657 0.73059,0.37853 0.16555,0.25226 0.24818,0.57057 0.24818,0.95463 0,0.43207 -0.0823,0.77976 -0.24818,1.04337 -0.16585,0.26331 -0.4152,0.39512 -0.74805,0.39512 z m -1.59939,0.42625 h 0.56591 v -0.4667 c 0.12977,0.17545 0.25197,0.3026 0.36632,0.38203 0.19145,0.13413 0.42654,0.20105 0.70498,0.20105 0.49754,0 0.88655,-0.19087 1.16761,-0.57318 0.28077,-0.38203 0.42072,-0.86123 0.42072,-1.43849 0,-0.60926 -0.14169,-1.07014 -0.42625,-1.38262 -0.28426,-0.31249 -0.65436,-0.46873 -1.11029,-0.46873 -0.21938,0 -0.42217,0.046 -0.60984,0.1382 -0.18709,0.0919 -0.3474,0.22549 -0.48241,0.40065 v -1.81731 h -0.59675 z"
     id="path8"
     inkscape:connector-curvature="0"
     style="stroke-width:0.29095608" />
  <g
     id="g20"
     transform="matrix(0.29095607,0,0,0.29095607,-3.6611897,-3.7545866)">
    <path
       d="M 13.621,138.311 83.331,176.625 153.4,137.792 166.462,29.46 83.243,0.875 0.554,29.975 Z"
       id="path10"
       inkscape:connector-curvature="0"
       style="fill:#b3b3b3" />
    <path
       d="M 83.05,167.471 146.041,132.609 158.214,35.721 83.05,10.089 Z"
       id="path12"
       inkscape:connector-curvature="0"
       style="fill:#a6120d" />
    <path
       d="M 83.049,167.471 V 10.086 L 9.833,36.183 21.03,133.072 Z"
       id="path14"
       inkscape:connector-curvature="0"
       style="fill:#dd1b16" />
    <path
       d="m 103.74,93.871 -20.69,9.675 H 61.243 L 50.992,129.186 31.925,129.539 83.05,15.804 Z M 101.74,89 83.187,52.271 67.969,88.368 h 15.08 z"
       id="path16"
       inkscape:connector-curvature="0"
       style="fill:#f2f2f2" />
    <path
       d="M 100.454,88.396 H 83.088 l -0.039,15.127 24.013,0.023 11.223,25.997 18.244,0.338 -53.48,-114.077 0.137,36.467 z"
       id="path18"
       inkscape:connector-curvature="0"
       style="fill:#b3b3b3" />
  </g>
  <g
     id="g24"
     transform="matrix(0.29095607,0,0,0.29095607,-3.6611897,-3.7545866)">
    <path
       d="m 616.84147,157.24456 c 0,5.56645 -4.35464,9.66826 -9.69877,9.66826 -5.34413,0 -9.69877,-4.10181 -9.69877,-9.66826 0,-5.60566 4.35464,-9.66824 9.69877,-9.66824 5.34413,0 9.69877,4.06258 9.69877,9.66824 z m -4.24566,0 c 0,-3.47847 -2.52386,-5.85849 -5.45311,-5.85849 -2.92925,0 -5.4531,2.38002 -5.4531,5.85849 0,3.44362 2.52385,5.8585 5.4531,5.8585 2.92925,0 5.45311,-2.41924 5.45311,-5.8585 z m 25.16885,0 c 0,5.56645 -4.35465,9.66826 -9.69878,9.66826 -5.34413,0 -9.69876,-4.10181 -9.69876,-9.66826 0,-5.60131 4.35463,-9.66824 9.69876,-9.66824 5.34413,0 9.69878,4.06258 9.69878,9.66824 z m -4.24567,0 c 0,-3.47847 -2.52385,-5.85849 -5.45311,-5.85849 -2.92924,0 -5.4531,2.38002 -5.4531,5.85849 0,3.44362 2.52386,5.8585 5.4531,5.8585 2.92926,0 5.45311,-2.41924 5.45311,-5.8585 z m 24.29705,-9.08414 v 17.35752 c 0,7.14004 -4.21079,10.05621 -9.18876,10.05621 -4.68592,0 -7.5062,-3.13412 -8.56979,-5.69721 l 3.69642,-1.53873 c 0.65822,1.57361 2.27105,3.43053 4.86901,3.43053 3.18642,0 5.16105,-1.9659 5.16105,-5.66669 v -1.39052 h -0.14821 c -0.95026,1.17257 -2.78104,2.19694 -5.0913,2.19694 -4.83413,0 -9.26288,-4.2108 -9.26288,-9.62903 0,-5.45747 4.42875,-9.70312 9.26288,-9.70312 2.3059,0 4.13668,1.02435 5.0913,2.16206 h 0.14821 v -1.5736 h 4.03207 z m -3.7313,9.11902 c 0,-3.40437 -2.27104,-5.89337 -5.16105,-5.89337 -2.92925,0 -5.38336,2.489 -5.38336,5.89337 0,3.36951 2.45411,5.82362 5.38336,5.82362 2.89001,0 5.16105,-2.45411 5.16105,-5.82362 z m 10.37877,-19.29292 V 166.32 h -4.14104 v -28.33348 z m 16.13701,22.44012 3.29541,2.19693 c -1.0636,1.5736 -3.62669,4.2849 -8.05543,4.2849 -5.49234,0 -9.59416,-4.24567 -9.59416,-9.66826 0,-5.74952 4.13669,-9.66825 9.11902,-9.66825 5.01721,0 7.47132,3.99283 8.27338,6.15054 l 0.44026,1.09846 -12.92443,5.35285 c 0.98949,1.93976 2.52822,2.92925 4.68593,2.92925 2.16206,0 3.66155,-1.0636 4.76002,-2.67642 z m -10.14338,-3.47849 8.63953,-3.58745 c -0.47514,-1.20745 -1.90489,-2.04873 -3.58746,-2.04873 -2.1577,0 -5.16105,1.90489 -5.05207,5.63618 z m -88.68816,-2.21873 v -4.10181 h 13.82238 c 0.13513,0.71488 0.20487,1.56052 0.20487,2.47591 0,3.07745 -0.84129,6.88286 -3.55258,9.59415 -2.6372,2.74617 -6.0067,4.2108 -10.47031,4.2108 -8.27338,0 -15.23034,-6.73902 -15.23034,-15.01239 0,-8.27338 6.95696,-15.01239 15.23034,-15.01239 4.57694,0 7.83747,1.79591 10.28723,4.13669 l -2.89437,2.89438 c -1.75668,-1.64771 -4.13669,-2.92925 -7.39722,-2.92925 -6.04157,0 -10.76672,4.869 -10.76672,10.91057 0,6.04157 4.72515,10.91057 10.76672,10.91057 3.91874,0 6.15054,-1.5736 7.58029,-3.00335 1.1595,-1.15949 1.92232,-2.81592 2.22309,-5.07823 l -9.80338,0.004 z"
       id="path22"
       inkscape:connector-curvature="0" />
  </g>
</svg>
