<?xml version="1.0" encoding="UTF-8" standalone="no"?>
<svg
   xmlns:dc="http://purl.org/dc/elements/1.1/"
   xmlns:cc="http://creativecommons.org/ns#"
   xmlns:rdf="http://www.w3.org/1999/02/22-rdf-syntax-ns#"
   xmlns:svg="http://www.w3.org/2000/svg"
   xmlns="http://www.w3.org/2000/svg"
   xmlns:sodipodi="http://sodipodi.sourceforge.net/DTD/sodipodi-0.dtd"
   xmlns:inkscape="http://www.inkscape.org/namespaces/inkscape"
   height="80"
   width="84.000008"
   version="1.1"
   id="svg56"
   sodipodi:docname="aws-logo.svg"
   inkscape:version="0.92.2 5c3e80d, 2017-08-06">
  <metadata
     id="metadata60">
    <rdf:RDF>
      <cc:Work
         rdf:about="">
        <dc:format>image/svg+xml</dc:format>
        <dc:type
           rdf:resource="http://purl.org/dc/dcmitype/StillImage" />
        <dc:title></dc:title>
      </cc:Work>
    </rdf:RDF>
  </metadata>
  <sodipodi:namedview
     pagecolor="#ffffff"
     bordercolor="#666666"
     borderopacity="1"
     objecttolerance="10"
     gridtolerance="10"
     guidetolerance="10"
     inkscape:pageopacity="0"
     inkscape:pageshadow="2"
     inkscape:window-width="992"
     inkscape:window-height="621"
     id="namedview58"
     showgrid="false"
     inkscape:zoom="1.0674448"
     inkscape:cx="100.44758"
     inkscape:cy="24.595238"
     inkscape:window-x="0"
     inkscape:window-y="0"
     inkscape:window-maximized="0"
     inkscape:current-layer="svg56" />
  <defs
     id="defs8">
    <clipPath
       id="a">
      <path
         d="M 0,0 H 5200 V 4690 H 0 Z"
         id="path2"
         inkscape:connector-curvature="0" />
    </clipPath>
    <clipPath
       id="b">
      <path
         d="M 700,5040 H 3500 V 2240 H 700 Z"
         id="path5"
         inkscape:connector-curvature="0" />
    </clipPath>
  </defs>
  <path
     d="M 1.1304326,1.1304367 H 82.869568 V 79.913046 H 1.1304326 Z"
     stroke-miterlimit="10"
     id="path10"
     inkscape:connector-curvature="0"
     style="fill:none;stroke:#dcdcdc;stroke-width:0.17390871;stroke-miterlimit:10" />
  <path
     d="M 0.95651986,0.95652236 H 83.043482 V 79.913046 H 0.95651986 Z"
     stroke-miterlimit="10"
     id="path12"
     inkscape:connector-curvature="0"
     style="fill:none;stroke:#e0e0e0;stroke-width:0.17390871;stroke-miterlimit:10" />
  <path
     d="M 0.78260626,0.78260926 H 83.217395 V 79.913046 H 0.78260626 Z"
     stroke-miterlimit="10"
     id="path14"
     inkscape:connector-curvature="0"
     style="fill:none;stroke:#e8e8e8;stroke-width:0.17390871;stroke-miterlimit:10" />
  <path
     d="M 0.6086935,0.60869496 H 83.39131 V 79.913046 H 0.6086935 Z"
     stroke-miterlimit="10"
     id="path16"
     inkscape:connector-curvature="0"
     style="fill:none;stroke:#f4f4f4;stroke-width:0.17390871;stroke-miterlimit:10" />
  <path
     d="M 0.4347799,0.43478176 H 83.565223 V 79.913046 H 0.4347799 Z"
     stroke-miterlimit="10"
     id="path18"
     inkscape:connector-curvature="0"
     style="fill:none;stroke:#ffffff;stroke-width:0.17390871;stroke-miterlimit:10" />
  <path
     d="M 0.26086713,0.26086866 H 83.739136 V 79.913046 H 0.26086713 Z"
     stroke-miterlimit="10"
     id="path20"
     inkscape:connector-curvature="0"
     style="fill:none;stroke:#ffffff;stroke-width:0.17390871;stroke-miterlimit:10" />
  <path
     d="M 0.08695436,0.08695436 H 83.91305 V 79.913046 H 0.08695436 Z"
     stroke-miterlimit="10"
     id="path22"
     inkscape:connector-curvature="0"
     style="fill:none;stroke:#ffffff;stroke-width:0.17390871;stroke-miterlimit:10" />
  <path
     d="M 1.1304326,78.869565 H 82.869568"
     stroke-miterlimit="10"
     id="path24"
     inkscape:connector-curvature="0"
     style="fill:none;stroke:#dcdcdc;stroke-width:0.17390871;stroke-miterlimit:10" />
  <path
     d="M 1.1304326,79.043478 H 82.869568"
     stroke-miterlimit="10"
     id="path26"
     inkscape:connector-curvature="0"
     style="fill:none;stroke:#dddddd;stroke-width:0.17390871;stroke-miterlimit:10" />
  <path
     d="M 1.1304326,79.217391 H 82.869568"
     stroke-miterlimit="10"
     id="path28"
     inkscape:connector-curvature="0"
     style="fill:none;stroke:#dfdfdf;stroke-width:0.17390871;stroke-miterlimit:10" />
  <path
     d="M 1.1304326,79.391305 H 82.869568"
     stroke-miterlimit="10"
     id="path30"
     inkscape:connector-curvature="0"
     style="fill:none;stroke:#e2e2e2;stroke-width:0.17390871;stroke-miterlimit:10" />
  <path
     d="M 1.1304326,79.565218 H 82.869568"
     stroke-miterlimit="10"
     id="path32"
     inkscape:connector-curvature="0"
     style="fill:none;stroke:#e6e6e6;stroke-width:0.17390871;stroke-miterlimit:10" />
  <path
     d="M 1.1304326,79.739133 H 82.869568"
     stroke-miterlimit="10"
     id="path34"
     inkscape:connector-curvature="0"
     style="fill:none;stroke:#ebebeb;stroke-width:0.17390871;stroke-miterlimit:10" />
  <path
     d="M 1.1304326,79.913046 H 82.869568"
     stroke-miterlimit="10"
     id="path36"
     inkscape:connector-curvature="0"
     style="fill:none;stroke:#f1f1f1;stroke-width:0.17390871;stroke-miterlimit:10" />
  <path
     d="M 1.1304326,0.08695436 H 82.869568 V 2.347823 H 1.1304326 V 0.08695436"
     id="path38"
     inkscape:connector-curvature="0"
     style="fill:#242f3d;stroke-width:0.13043478" />
  <path
     d="M 1.1304326,2.347823 H 82.869568 V 78.69565 H 1.1304326 V 2.347823"
     id="path40"
     inkscape:connector-curvature="0"
     style="fill:#ffffff;stroke-width:0.13043478" />
  <g
     clip-path="url(#a)"
     transform="matrix(0.01739087,0,0,-0.01739087,-3.2173939,81.652174)"
     id="g52">
    <g
       clip-path="url(#b)"
       id="g50">
      <path
         d="m 1666,3647.7 c 11.2,-7 28,-12.6 49,-16.8 21,-5.6 43.4,-7 65.8,-7 22.4,0 42,2.8 60.2,8.4 18.2,5.6 33.6,14 47.6,23.8 12.6,9.8 23.8,22.4 30.8,37.8 7,15.4 11.2,30.8 11.2,50.4 0,22.4 -7,42 -19.6,60.2 -12.6,16.8 -35,30.8 -65.8,40.6 l -60.2,19.6 c -22.4,7 -39.2,15.4 -47.6,23.8 -8.4,8.4 -12.6,18.2 -12.6,30.8 0,16.8 7,30.8 19.6,37.8 14,8.4 32.2,12.6 57.4,12.6 30.8,0 57.4,-5.6 82.6,-16.8 7,-2.8 12.6,-5.6 16.8,-5.6 7,0 9.8,4.2 9.8,14 v 16.8 c 0,5.6 -1.4,11.2 -4.2,14 -2.8,4.2 -7,8.4 -12.6,11.2 -4.2,2.8 -11.2,5.6 -18.2,7 -7,2.8 -15.4,4.2 -23.8,7 -8.4,1.4 -18.2,4.2 -28,4.2 -9.8,2.8 -19.6,2.8 -29.4,2.8 -19.6,0 -36.4,-2.8 -53.2,-7 -16.8,-5.6 -32.2,-12.6 -44.8,-22.4 -12.6,-9.8 -22.4,-21 -30.8,-35 -8.4,-14 -11.2,-29.4 -11.2,-47.6 0,-22.4 7,-43.4 21,-61.6 14,-19.6 36.4,-33.6 68.6,-43.4 l 61.6,-19.6 c 21,-7 35,-14 43.4,-22.4 8.4,-8.4 11.2,-18.2 11.2,-29.4 0,-16.8 -7,-30.8 -22.4,-40.6 -15.4,-9.8 -35,-14 -63,-14 -16.8,0 -33.6,1.4 -50.4,5.6 -16.8,2.8 -32.2,8.4 -47.6,15.4 -4.2,1.4 -8.4,2.8 -11.2,4.2 -2.8,1.4 -5.6,1.4 -8.4,1.4 -7,0 -9.8,-4.2 -9.8,-14 v -21 c 0,-4.2 1.4,-8.4 2.8,-12.6 4.2,-5.6 8.4,-8.4 15.4,-12.6 m -723.801,207.2 c -15.398,2.8 -30.801,2.8 -44.801,2.8 -43.398,0 -78.398,-11.2 -105,-33.6 -26.597,-22.4 -39.199,-51.8 -39.199,-88.2 0,-35 9.801,-61.6 30.801,-82.6 21,-21 49,-30.8 85.398,-30.8 50.403,0 92.403,19.6 126,58.8 4.204,-9.8 8.402,-18.2 12.602,-25.2 4.2,-7 9.8,-14 15.4,-19.6 4.2,-4.2 8.4,-5.6 12.6,-5.6 2.8,0 7,1.4 11.2,4.2 l 26.6,18.2 c 5.6,4.2 8.4,8.4 8.4,12.6 0,2.8 -1.4,5.6 -2.8,9.8 -5.6,11.2 -11.2,21 -14,30.8 -2.8,9.8 -4.2,22.4 -4.2,37.8 v 140 c 0,46.2 -11.2,81.2 -35,105 -23.8,23.8 -60.2,35 -112.001,35 -23.801,0 -46.199,-2.8 -67.199,-8.4 -19.602,-5.6 -37.801,-11.2 -53.199,-19.6 -5.602,-2.8 -9.801,-5.6 -11.199,-8.4 -2.801,-2.8 -2.801,-8.4 -2.801,-15.4 v -21 c 0,-8.4 2.801,-14 8.398,-14 1.403,0 4.199,0 7,1.4 2.801,1.4 8.403,2.8 15.403,5.6 15.398,5.6 30.796,11.2 46.199,14 15.398,4.2 30.801,5.6 46.199,5.6 33.602,0 56,-7 70,-19.6 14,-12.6 19.602,-36.4 19.602,-68.6 v -30.8 c -18.204,4.2 -33.602,7 -50.403,9.8 z m 49,-75.6 c 0,-14 -1.398,-26.6 -4.199,-36.4 -2.801,-9.8 -7,-19.6 -14,-26.6 -11.199,-12.6 -25.199,-22.4 -40.602,-26.6 -15.398,-5.6 -30.796,-8.4 -44.796,-8.4 -19.602,0 -35,5.6 -44.801,15.4 -9.801,9.8 -15.403,25.2 -15.403,44.8 0,21 7,37.8 21,49 14,11.2 35,16.8 63,16.8 12.602,0 26.602,-1.4 40.602,-2.8 14,-1.4 26.602,-4.2 39.199,-7 v -18.2 M 1206.8,3654.7 c 2.8,-8.4 5.6,-14 8.4,-16.8 2.8,-2.8 8.4,-4.2 16.8,-4.2 h 36.4 c 8.4,0 14,1.4 16.8,4.2 2.8,2.8 5.6,8.4 8.4,16.8 l 65.8,275.8 67.2,-275.8 c 1.4,-8.4 4.2,-14 8.4,-16.8 2.8,-2.8 9.8,-4.2 16.8,-4.2 h 36.4 c 7,0 12.6,1.4 16.8,4.2 2.8,2.8 7,8.4 8.4,16.8 l 103.6,330.4 c 1.4,4.2 2.8,8.4 2.8,9.8 0,2.8 1.4,4.2 1.4,7 0,7 -2.8,9.8 -9.8,9.8 h -39.2 c -8.4,0 -14,-1.4 -16.8,-4.2 -2.8,-2.8 -5.6,-8.4 -8.4,-16.8 l -74.2,-287 -68.6,288.4 c -1.4,8.4 -4.2,14 -8.4,16.8 -2.8,2.8 -9.8,4.2 -16.8,4.2 h -35 c -8.4,0 -14,-1.4 -16.8,-4.2 -2.8,-2.8 -5.6,-8.4 -8.4,-16.8 l -67.2,-282.8 -71.4,282.8 c -2.8,8.4 -5.6,14 -8.4,16.8 -2.8,2.8 -8.4,4.2 -16.8,4.2 h -42 c -7,0 -9.8,-2.8 -9.8,-9.8 0,-2.8 1.4,-8.4 4.2,-16.8 l 99.4,-331.8"
         id="path42"
         inkscape:connector-curvature="0"
         style="fill:#252f3e" />
      <path
         d="m 1841,3447.5 c -156.8,-67.2 -329,-99.4 -484.4,-99.4 -231,0 -454.998,63 -635.6,169.4 -15.398,9.8 -28,-7 -14,-19.6 168,-151.2 389.2,-242.2 635.6,-242.2 175,0 379.4,54.6 520.8,159.6 21,16.8 1.4,42 -22.4,32.2"
         id="path44"
         inkscape:connector-curvature="0"
         style="fill:#ff9900" />
      <path
         d="m 1752.8,3506.3 c -12.6,-8.4 -9.8,-21 2.8,-19.6 44.8,5.6 147,18.2 163.8,-5.6 18.2,-22.4 -19.6,-117.6 -36.4,-161 -5.6,-12.6 5.6,-18.2 18.2,-8.4 75.6,63 95.2,196 79.8,214.2 -15.4,21 -148.4,36.4 -228.2,-19.6"
         id="path46"
         inkscape:connector-curvature="0"
         style="fill:#ff9900" />
      <path
         d="m 2318.4,3721.9 c -2.8,0 -5.6,1.4 -5.6,5.6 v 231 c 0,2.8 1.4,5.6 5.6,5.6 h 7 c 4.2,0 5.6,-1.4 5.6,-5.6 l 1.4,-14 c 9.8,8.4 21,14 30.8,18.2 9.8,4.2 19.6,5.6 30.8,5.6 22.4,0 39.2,-8.4 51.8,-23.8 12.6,-15.4 19.6,-37.8 19.6,-64.4 0,-28 -7,-50.4 -19.6,-67.2 -14,-16.8 -30.8,-25.2 -54.6,-25.2 -21,0 -39.2,8.4 -57.4,23.8 v -84 c 0,-2.8 -1.4,-5.6 -5.6,-5.6 z m 70,84 c 18.2,0 32.2,5.6 42,18.2 9.8,12.6 14,30.8 14,54.6 0,47.6 -18.2,71.4 -54.6,71.4 -18.2,0 -37.8,-7 -56,-22.4 v -99.4 c 9.8,-8.4 18.2,-14 26.6,-18.2 8.4,-1.4 18.2,-4.2 28,-4.2 m 159.6,-16.8 c -15.4,0 -28,4.2 -37.8,14 -9.8,8.4 -14,21 -14,36.4 0,16.8 5.6,29.4 16.8,39.2 11.2,9.8 26.6,14 46.2,14 15.4,0 30.8,-2.8 49,-8.4 v 28 c 0,14 -2.8,23.8 -9.8,29.4 -7,5.6 -16.8,8.4 -32.2,8.4 -15.4,0 -32.2,-2.8 -49,-8.4 -1.4,0 -4.2,-1.4 -5.6,-1.4 -2.8,0 -2.8,1.4 -2.8,4.2 v 7 c 0,1.4 0,2.8 1.4,4.2 l 2.8,2.8 c 18.2,7 36.4,11.2 57.4,11.2 19.6,0 35,-4.2 44.8,-12.6 9.8,-8.4 14,-21 14,-37.8 v -120.4 c 0,-2.8 -1.4,-5.6 -5.6,-5.6 h -7 c -2.8,0 -5.6,1.4 -5.6,5.6 l -1.4,14 c -19.6,-16.8 -40.6,-23.8 -61.6,-23.8 z m 2.8,16.8 c 8.4,0 18.2,1.4 28,5.6 9.8,4.2 19.6,8.4 30.8,15.4 v 42 c -15.4,4.2 -29.4,5.6 -44.8,5.6 -32.2,0 -47.6,-12.6 -47.6,-36.4 0,-9.8 2.8,-18.2 8.4,-23.8 5.6,-5.6 14,-8.4 25.2,-8.4 m 135.8,-14 c -2.8,0 -5.6,1.4 -5.6,5.6 v 161 c 0,2.8 1.4,5.6 5.6,5.6 h 7 c 4.2,0 5.6,-1.4 5.6,-5.6 l 1.4,-19.6 c 8.4,9.8 16.8,16.8 25.2,19.6 8.4,4.2 18.2,5.6 28,5.6 h 8.4 c 2.8,0 5.6,-1.4 5.6,-5.6 v -8.4 c 0,-1.4 0,-1.4 -1.4,-2.8 0,-1.4 -1.4,-1.4 -2.8,-1.4 H 2751 c -9.8,0 -19.6,-1.4 -28,-5.6 -8.4,-4.2 -15.4,-9.8 -23.8,-18.2 v -124.6 c 0,-2.8 -1.4,-5.6 -5.6,-5.6 h -7 m 170.8,-1.4 c -14,0 -23.8,4.2 -30.8,11.2 -7,7 -11.2,16.8 -11.2,30.8 v 113.4 h -26.6 c -2.8,0 -5.6,1.4 -5.6,5.6 v 2.8 c 0,1.4 0,2.8 1.4,4.2 0,1.4 1.4,1.4 4.2,1.4 l 28,2.8 2.8,44.8 c 0,1.4 1.4,2.8 1.4,4.2 1.4,1.4 1.4,1.4 4.2,1.4 h 5.6 c 2.8,0 5.6,-1.4 5.6,-5.6 v -44.8 h 49 c 2.8,0 5.6,-1.4 5.6,-5.6 v -7 c 0,-2.8 -1.4,-5.6 -5.6,-5.6 h -49 v -113.4 c 0,-9.8 1.4,-15.4 5.6,-19.6 4.2,-4.2 11.2,-5.6 19.6,-5.6 7,0 12.6,0 16.8,1.4 2.8,0 4.2,1.4 5.6,1.4 h 2.8 c 2.8,0 4.2,-1.4 4.2,-4.2 v -5.6 c 0,-4.2 -1.4,-5.6 -4.2,-7 -8.4,0 -18.2,-1.4 -29.4,-1.4 m 75.6,1.4 c -2.8,0 -5.6,1.4 -5.6,5.6 v 161 c 0,2.8 1.4,5.6 5.6,5.6 h 7 c 4.2,0 5.6,-1.4 5.6,-5.6 l 1.4,-14 c 11.2,8.4 22.4,14 35,18.2 12.6,4.2 23.8,7 35,7 16.8,0 29.4,-4.2 37.8,-12.6 8.4,-8.4 12.6,-21 12.6,-39.2 v -119 c 0,-2.8 -1.4,-5.6 -5.6,-5.6 h -9.8 c -2.8,0 -5.6,1.4 -5.6,5.6 v 109.2 c 0,15.4 -2.8,25.2 -8.4,32.2 -5.6,7 -15.4,9.8 -26.6,9.8 -22.4,0 -44.8,-7 -65.8,-22.4 v -131.6 c 0,-2.8 -1.4,-5.6 -5.6,-5.6 h -7 m 260.4,-2.8 c -26.6,0 -47.6,7 -60.2,22.4 -14,15.4 -21,37.8 -21,68.6 0,28 7,50.4 21,65.8 14,15.4 33.6,23.8 57.4,23.8 21,0 36.4,-5.6 47.6,-18.2 11.2,-11.2 16.8,-28 16.8,-50.4 0,-8.4 0,-15.4 -1.4,-21 0,-2.8 -2.8,-5.6 -5.6,-5.6 h -114.8 c 0,-23.8 5.6,-42 15.4,-53.2 9.8,-11.2 26.6,-16.8 47.6,-16.8 16.8,0 32.2,2.8 46.2,8.4 2.8,1.4 5.6,1.4 5.6,1.4 1.4,0 1.4,0 2.8,-1.4 0,-1.4 1.4,-1.4 1.4,-2.8 v -5.6 c 0,-4.2 -1.4,-5.6 -4.2,-7 -18.2,-4.2 -35,-8.4 -54.6,-8.4 z m 42,102.2 v 11.2 c 0,16.8 -4.2,28 -11.2,36.4 -8.4,8.4 -19.6,12.6 -35,12.6 -36.4,0 -54.6,-19.6 -57.4,-60.2 h 103.6 m 65.8,-98 c -2.8,0 -5.6,1.4 -5.6,5.6 v 161 c 0,2.8 1.4,5.6 5.6,5.6 h 7 c 4.2,0 5.6,-1.4 5.6,-5.6 l 1.4,-19.6 c 8.4,9.8 16.8,16.8 25.2,19.6 8.4,4.2 18.2,5.6 28,5.6 h 8.4 c 2.8,0 5.6,-1.4 5.6,-5.6 v -8.4 c 0,-1.4 0,-1.4 -1.4,-2.8 0,-1.4 -1.4,-1.4 -2.8,-1.4 h -12.6 c -9.8,0 -19.6,-1.4 -28,-5.6 -8.4,-4.2 -15.4,-9.8 -23.8,-18.2 v -124.6 c 0,-2.8 -1.4,-5.6 -5.6,-5.6 h -7 m -982.8,-376.6 c -2.8,0 -5.6,1.4 -5.6,5.6 v 159.6 c 0,2.8 1.4,5.6 5.6,5.6 h 7 c 4.2,0 5.6,-1.4 5.6,-5.6 l 1.4,-14 c 11.2,8.4 22.4,14 35,18.2 12.6,4.2 23.8,7 35,7 16.8,0 29.4,-4.2 37.8,-12.6 8.4,-8.4 12.6,-21 12.6,-39.2 v -119 c 0,-2.8 -1.4,-5.6 -5.6,-5.6 h -9.8 c -2.8,0 -5.6,1.4 -5.6,5.6 v 110.6 c 0,15.4 -2.8,25.2 -8.4,32.2 -5.6,7 -15.4,9.8 -26.6,9.8 -22.4,0 -44.8,-7 -65.8,-22.4 v -131.6 c 0,-2.8 -1.4,-5.6 -5.6,-5.6 h -7 m 260.4,-4.2 c -26.6,0 -47.6,7 -60.2,22.4 -14,15.4 -21,37.8 -21,68.6 0,28 7,50.4 21,65.8 14,15.4 33.6,23.8 57.4,23.8 21,0 36.4,-5.6 47.6,-18.2 11.2,-11.2 16.8,-28 16.8,-50.4 0,-8.4 0,-15.4 -1.4,-21 0,-2.8 -2.8,-5.6 -5.6,-5.6 h -114.8 c 0,-23.8 5.6,-42 15.4,-53.2 9.8,-11.2 26.6,-16.8 47.6,-16.8 16.8,0 32.2,2.8 46.2,8.4 2.8,1.4 5.6,1.4 5.6,1.4 1.4,0 1.4,0 2.8,-1.4 0,-1.4 1.4,-1.4 1.4,-2.8 v -5.6 c 0,-4.2 -1.4,-5.6 -4.2,-7 -16.8,-4.2 -35,-8.4 -54.6,-8.4 z m 42,103.6 v 11.2 c 0,16.8 -4.2,28 -11.2,36.4 -8.4,8.4 -19.6,12.6 -35,12.6 -36.4,0 -54.6,-19.6 -57.4,-60.2 h 103.6 m 114.8,-100.8 c -14,0 -23.8,4.2 -30.8,11.2 -7,7 -11.2,16.8 -11.2,30.8 v 114.8 H 2667 c -2.8,0 -5.6,1.4 -5.6,5.6 v 2.8 c 0,1.4 0,2.8 1.4,4.2 0,1.4 1.4,1.4 4.2,1.4 l 28,2.8 2.8,44.8 c 0,1.4 1.4,2.8 1.4,4.2 1.4,1.4 1.4,1.4 4.2,1.4 h 5.6 c 2.8,0 5.6,-1.4 5.6,-5.6 v -44.8 h 49 c 2.8,0 5.6,-1.4 5.6,-5.6 v -7 c 0,-2.8 -1.4,-5.6 -5.6,-5.6 h -49 v -113.4 c 0,-9.8 1.4,-15.4 5.6,-19.6 4.2,-4.2 11.2,-5.6 19.6,-5.6 7,0 12.6,0 16.8,1.4 2.8,0 4.2,1.4 5.6,1.4 h 2.8 c 2.8,0 4.2,-1.4 4.2,-4.2 v -5.6 c 0,-4.2 -1.4,-5.6 -4.2,-7 -8.4,-1.4 -18.2,-2.8 -29.4,-2.8 m 110.6,2.8 c -2.8,0 -5.6,1.4 -7,4.2 l -53.2,158.2 c -1.4,2.8 -1.4,4.2 -1.4,5.6 0,1.4 1.4,2.8 4.2,2.8 h 11.2 c 2.8,0 4.2,-1.4 5.6,-4.2 l 46.2,-144.2 40.6,144.2 c 1.4,2.8 2.8,4.2 7,4.2 h 12.6 c 2.8,0 5.6,-1.4 7,-4.2 l 40.6,-144.2 47.6,145.6 c 1.4,2.8 2.8,4.2 5.6,4.2 h 9.8 c 2.8,0 4.2,-1.4 4.2,-2.8 0,-1.4 0,-2.8 -1.4,-5.6 l -56,-158.2 c -1.4,-2.8 -2.8,-4.2 -7,-4.2 h -11.2 c -2.8,0 -5.6,1.4 -7,4.2 l -40.6,144.2 -40.6,-144.2 c -1.4,-2.8 -2.8,-4.2 -7,-4.2 h -9.8 m 281.4,-7 c -25.2,0 -44.8,8.4 -58.8,23.8 -14,15.4 -21,37.8 -21,67.2 0,28 7,50.4 21,67.2 14,15.4 33.6,23.8 58.8,23.8 25.2,0 44.8,-8.4 58.8,-23.8 14,-15.4 21,-37.8 21,-67.2 0,-28 -7,-50.4 -21,-67.2 -14,-15.4 -33.6,-23.8 -58.8,-23.8 z m 0,18.2 c 39.2,0 58.8,23.8 58.8,72.8 0,49 -19.6,72.8 -58.8,72.8 -39.2,0 -58.8,-23.8 -58.8,-72.8 0,-49 19.6,-72.8 58.8,-72.8 m 128.8,-12.6 c -2.8,0 -5.6,1.4 -5.6,5.6 v 159.6 c 0,2.8 1.4,5.6 5.6,5.6 h 7 c 4.2,0 5.6,-1.4 5.6,-5.6 l 1.4,-19.6 c 8.4,9.8 16.8,16.8 25.2,19.6 8.4,4.2 18.2,5.6 28,5.6 h 8.4 c 2.8,0 5.6,-1.4 5.6,-5.6 v -8.4 c 0,-1.4 0,-1.4 -1.4,-2.8 -1.4,-1.4 -1.4,-1.4 -2.8,-1.4 h -12.6 c -9.8,0 -19.6,-1.4 -28,-5.6 -8.4,-4.2 -15.4,-9.8 -23.8,-18.2 v -124.6 c 0,-2.8 -1.4,-5.6 -5.6,-5.6 h -7 m 116.2,1.4 c -2.8,0 -5.6,1.4 -5.6,5.6 v 240.8 c 0,2.8 1.4,5.6 5.6,5.6 h 9.8 c 2.8,0 5.6,-1.4 5.6,-5.6 v -151.2 l 81.2,72.8 c 2.8,2.8 5.6,2.8 8.4,2.8 h 12.6 c 2.8,0 4.2,-1.4 4.2,-2.8 0,-1.4 -1.4,-2.8 -4.2,-5.6 l -82.6,-72.8 89.6,-82.6 c 1.4,-1.4 2.8,-2.8 2.8,-4.2 0,-2.8 -1.4,-2.8 -4.2,-2.8 h -14 c -2.8,0 -5.6,1.4 -7,2.8 l -86.8,81.2 v -78.4 c 0,-2.8 -1.4,-5.6 -5.6,-5.6 h -9.8"
         id="path48"
         inkscape:connector-curvature="0"
         style="fill:#252f3e" />
    </g>
  </g>
  <path
     d="M 10.152172,41.008176 C 9.8224855,40.886779 9.5851283,40.737738 9.4402242,40.561221 9.2953024,40.384519 9.222833,40.161213 9.222833,39.891304 c 0,-0.349743 0.1290609,-0.628177 0.3872174,-0.835649 0.2581563,-0.207312 0.6046256,-0.311136 1.0394086,-0.311136 0.362296,0 0.718279,0.06712 1.067931,0.201046 v 0.633217 c -0.360522,-0.110435 -0.694765,-0.165741 -1.002714,-0.165741 -0.436626,0 -0.654886,0.140348 -0.654886,0.421218 0,0.10504 0.03756,0.190613 0.112764,0.256696 0.0752,0.06627 0.216922,0.136349 0.42527,0.210613 l 0.413044,0.152175 c 0.344226,0.125042 0.589669,0.272345 0.736417,0.441562 0.14673,0.169386 0.220105,0.389215 0.220105,0.658956 0,0.382435 -0.137235,0.684003 -0.411687,0.905041 -0.274453,0.220869 -0.650818,0.331481 -1.129079,0.331481 -0.208348,0 -0.416226,-0.01949 -0.6236352,-0.05847 -0.2074086,-0.03897 -0.3853912,-0.092 -0.5339645,-0.158953 v -0.63583 c 0.1847823,0.05619 0.3831475,0.10088 0.5951123,0.134442 0.2119484,0.03352 0.4030434,0.05023 0.5733574,0.05023 0.219235,0 0.388122,-0.03982 0.506799,-0.119481 0.118679,-0.07981 0.177983,-0.193905 0.177983,-0.342434 0,-0.11408 -0.03621,-0.204692 -0.108695,-0.271824 -0.07248,-0.06695 -0.218278,-0.141213 -0.437496,-0.222785 z m 4.141565,1.614086 c -0.201147,0.07786 -0.425738,0.116869 -0.673964,0.116869 -0.315218,0 -0.547966,-0.07392 -0.698383,-0.22139 -0.150331,-0.147655 -0.225531,-0.377396 -0.225531,-0.688868 v -1.37513 h -0.429356 v -0.502614 l 0.451096,-0.08696 0.122278,-0.779999 h 0.668469 v 0.766432 h 0.769044 v 0.603137 h -0.769044 v 1.334256 c 0,0.11965 0.0299,0.203306 0.08969,0.251479 0.05977,0.04797 0.160313,0.07199 0.301617,0.07199 0.114137,0 0.24553,-0.01097 0.394087,-0.03267 z m 2.130262,0.07342 -0.06522,-0.250085 c -0.115999,0.103303 -0.249217,0.185733 -0.399478,0.247304 -0.150434,0.06174 -0.295304,0.09251 -0.434781,0.09251 -0.275479,0 -0.49548,-0.07786 -0.660349,-0.233739 -0.16487,-0.155828 -0.247305,-0.364173 -0.247305,-0.625044 0,-0.177567 0.04435,-0.33374 0.133218,-0.468695 0.0887,-0.134954 0.216348,-0.24139 0.38313,-0.319301 0.16661,-0.07795 0.363131,-0.116868 0.589565,-0.116868 0.179479,0 0.376001,0.0236 0.589739,0.07064 v -0.277211 c 0,-0.17026 -0.03496,-0.287129 -0.104697,-0.350432 -0.06974,-0.06351 -0.199651,-0.09513 -0.389912,-0.09513 -0.304348,0 -0.639479,0.05704 -1.005392,0.171126 v -0.537911 c 0.135827,-0.07081 0.308,-0.127303 0.516348,-0.169916 0.208348,-0.04258 0.419305,-0.06384 0.633044,-0.06384 0.382261,0 0.661739,0.07686 0.838435,0.230958 0.176522,0.15409 0.264869,0.395825 0.264869,0.725567 v 1.970086 z m -0.671305,-0.456524 c 0.09234,0 0.187479,-0.02033 0.285392,-0.06123 0.09774,-0.04065 0.189217,-0.09635 0.274434,-0.167127 v -0.483655 c -0.16313,-0.0252 -0.30887,-0.03806 -0.437565,-0.03806 -0.324173,0 -0.486435,0.129563 -0.486435,0.388694 0,0.114091 0.03183,0.202961 0.09513,0.266263 0.06348,0.06351 0.153044,0.09513 0.269044,0.09513 z m 3.905392,0.456524 v -1.864178 c 0,-0.152166 -0.0334,-0.263475 -0.100526,-0.334262 -0.06696,-0.07056 -0.168347,-0.105909 -0.304347,-0.105909 -0.204695,0 -0.407478,0.06334 -0.608696,0.19026 v 2.114087 h -0.812522 v -2.84505 h 0.668523 l 0.07878,0.306961 c 0.333391,-0.258954 0.689392,-0.388525 1.068,-0.388525 0.262609,0 0.465566,0.07114 0.608696,0.213217 0.14313,0.142263 0.214609,0.345744 0.214609,0.610092 v 2.103302 z m 3.501043,0 -0.06783,-0.250085 c -0.230087,0.208521 -0.502783,0.312523 -0.818088,0.312523 -0.233565,0 -0.439131,-0.05847 -0.616695,-0.175133 -0.177565,-0.116869 -0.315652,-0.286784 -0.414436,-0.509569 -0.09878,-0.222776 -0.148172,-0.48452 -0.148172,-0.785391 0,-0.460001 0.109737,-0.82835 0.328868,-1.104517 0.219132,-0.27635 0.508174,-0.414438 0.866783,-0.414438 0.293566,0 0.548,0.08333 0.763653,0.249916 v -1.44296 h 0.812521 v 4.119654 z m -0.61687,-0.551654 c 0.177566,0 0.347827,-0.05166 0.510957,-0.154954 v -1.470093 c -0.159478,-0.09234 -0.343304,-0.138608 -0.551651,-0.138608 -0.195653,0 -0.341914,0.07342 -0.438783,0.220181 -0.09687,0.146782 -0.145391,0.368692 -0.145391,0.665734 0,0.297049 0.05113,0.517741 0.153391,0.661744 0.102434,0.144001 0.259651,0.215996 0.471477,0.215996 z m 3.732175,0.551654 -0.06522,-0.250085 c -0.116,0.103303 -0.249217,0.185733 -0.399478,0.247304 -0.150435,0.06174 -0.295304,0.09251 -0.434783,0.09251 -0.275478,0 -0.495478,-0.07786 -0.660348,-0.233739 -0.164869,-0.155828 -0.247304,-0.364173 -0.247304,-0.625044 0,-0.177567 0.04435,-0.33374 0.133217,-0.468695 0.0887,-0.134954 0.216348,-0.24139 0.383131,-0.319301 0.166608,-0.07795 0.36313,-0.116868 0.589564,-0.116868 0.179479,0 0.376,0.0236 0.589741,0.07064 v -0.277211 c 0,-0.17026 -0.03496,-0.287129 -0.104526,-0.350432 -0.06991,-0.06351 -0.199826,-0.09513 -0.390087,-0.09513 -0.304348,0 -0.639479,0.05704 -1.005392,0.171126 v -0.537911 c 0.135827,-0.07081 0.308,-0.127303 0.516349,-0.169916 0.208347,-0.04258 0.419304,-0.06384 0.633043,-0.06384 0.382261,0 0.661739,0.07686 0.838435,0.230958 0.176522,0.15409 0.264869,0.395825 0.264869,0.725567 v 1.970086 z M 25.60313,42.239155 c 0.09253,0 0.187478,-0.02033 0.285391,-0.06123 0.09774,-0.04065 0.189217,-0.09635 0.274436,-0.167127 v -0.483655 c -0.162957,-0.0252 -0.30887,-0.03806 -0.437566,-0.03806 -0.324175,0 -0.486261,0.129563 -0.486261,0.388694 0,0.114091 0.03166,0.202961 0.09496,0.266263 0.06348,0.06351 0.153219,0.09513 0.269045,0.09513 z m 2.079478,0.456524 v -2.845047 h 0.668349 l 0.100525,0.423831 c 0.148696,-0.16296 0.288523,-0.278956 0.42,-0.347828 0.131304,-0.06888 0.271131,-0.103302 0.419827,-0.103302 0.07061,0 0.144869,0.0058 0.222782,0.01638 v 0.752699 c -0.103302,-0.02176 -0.218261,-0.0325 -0.345217,-0.0325 -0.240871,0 -0.465392,0.04258 -0.673914,0.127655 v 2.008172 z m 4.17513,0 -0.068,-0.250085 c -0.230087,0.208521 -0.502783,0.312523 -0.817913,0.312523 -0.233739,0 -0.439305,-0.05847 -0.61687,-0.175133 -0.177564,-0.116869 -0.315651,-0.286784 -0.414435,-0.509569 -0.09878,-0.222776 -0.147999,-0.48452 -0.147999,-0.785391 0,-0.460001 0.109566,-0.82835 0.328695,-1.104517 0.219131,-0.27635 0.508174,-0.414438 0.866957,-0.414438 0.293392,0 0.547826,0.08333 0.763478,0.249916 v -1.44296 h 0.812522 v 4.119654 z m -0.616869,-0.551655 c 0.177392,0 0.347826,-0.05166 0.510782,-0.154954 v -1.470093 c -0.159477,-0.09234 -0.343304,-0.138608 -0.551652,-0.138608 -0.195652,0 -0.341912,0.07342 -0.438782,0.220181 -0.09687,0.146781 -0.145392,0.368692 -0.145392,0.665733 0,0.29705 0.05113,0.517742 0.153566,0.661744 0.102263,0.144002 0.259478,0.215997 0.471478,0.215997 m -17.64847,12.855974 c -1.26087,0 -2.214679,-0.354606 -2.861427,-1.063827 -0.646731,-0.709212 -0.9701039,-1.754088 -0.9701039,-3.134602 0,-1.371308 0.3351299,-2.417915 1.0054429,-3.139828 0.670296,-0.721912 1.632262,-1.082962 2.885862,-1.082962 0.57426,0 1.134086,0.08696 1.679304,0.260871 0.04713,0.01638 0.08243,0.04032 0.106091,0.07199 0.02347,0.03184 0.0353,0.08299 0.0353,0.15356 v 0.25809 c 0,0.103303 -0.04713,0.154956 -0.141391,0.154956 -0.03983,0 -0.153913,-0.02369 -0.342262,-0.07064 -0.173912,-0.04712 -0.379129,-0.08469 -0.615651,-0.112869 -0.23633,-0.02797 -0.449653,-0.04208 -0.639861,-0.04208 -1.079704,0 -1.885879,0.282088 -2.418487,0.846434 -0.532611,0.564334 -0.798907,1.413557 -0.798907,2.547641 v 0.296176 c 0,2.255476 1.045304,3.383134 3.135862,3.383134 0.512695,0 1.017217,-0.06712 1.513564,-0.201046 0.141391,-0.03999 0.235479,-0.0598 0.282609,-0.0598 0.09426,0 0.141391,0.05166 0.141391,0.154954 v 0.25809 c 0,0.07249 -0.01183,0.124169 -0.0353,0.154955 -0.02366,0.03074 -0.05896,0.05426 -0.106091,0.07064 -0.590608,0.197382 -1.209217,0.296166 -1.855947,0.296166 z m 5.783079,0.04629 c -0.867827,0 -1.542262,-0.277746 -2.023132,-0.832877 -0.481043,-0.555299 -0.721564,-1.330257 -0.721564,-2.324868 0,-0.992695 0.240521,-1.764865 0.721564,-2.316519 0.48087,-0.551652 1.155305,-0.827483 2.023132,-0.827483 0.867651,0 1.542087,0.275831 2.022956,0.827483 0.481043,0.551654 0.721565,1.323824 0.721565,2.316519 0,0.994611 -0.240522,1.769569 -0.721565,2.324868 -0.480869,0.555131 -1.155305,0.832877 -2.022956,0.832877 z m 0,-0.614267 c 1.363999,0 2.046087,-0.847821 2.046087,-2.543478 0,-1.686611 -0.682088,-2.529912 -2.046087,-2.529912 -1.364175,0 -2.046262,0.843301 -2.046262,2.529912 0,1.695657 0.682087,2.543478 2.046262,2.543478 z m 4.458956,0.437565 c -0.119479,0 -0.179305,-0.05897 -0.179305,-0.176694 V 49.09776 c 0,-0.117565 0.05983,-0.176517 0.179305,-0.176517 h 0.236348 c 0.125043,0 0.192173,0.05897 0.201217,0.176517 l 0.04608,0.508175 c 0.385912,-0.275301 0.791825,-0.487653 1.217391,-0.637215 0.425739,-0.149394 0.839652,-0.224179 1.241913,-0.224179 0.576,0 1.015826,0.15183 1.319304,0.455137 0.303479,0.303476 0.455131,0.750607 0.455131,1.341044 v 4.15217 c 0,0.117743 -0.05879,0.176694 -0.176696,0.176694 h -0.320521 c -0.117739,0 -0.176696,-0.05897 -0.176696,-0.176694 v -3.866781 c 0,-0.512693 -0.09826,-0.885394 -0.294783,-1.118258 -0.196522,-0.232697 -0.512347,-0.349222 -0.94713,-0.349222 -0.788001,0 -1.556,0.252 -2.304349,0.755479 v 4.578782 c 0,0.117743 -0.05964,0.176694 -0.179304,0.176694 z m 8.040696,0.176702 c -0.315304,0 -0.628696,-0.03134 -0.940348,-0.09375 -0.311478,-0.06258 -0.593217,-0.149041 -0.845044,-0.259653 -0.09426,-0.03982 -0.141217,-0.118608 -0.141217,-0.236343 v -0.201045 c 0,-0.096 0.04347,-0.144001 0.130436,-0.144001 0.01443,0 0.05147,0.0085 0.111302,0.02436 0.05983,0.01638 0.172174,0.05166 0.337044,0.106092 0.441913,0.133912 0.907478,0.201045 1.396696,0.201045 0.48,0 0.846434,-0.09653 1.09913,-0.289397 0.252696,-0.19304 0.37913,-0.474255 0.37913,-0.843822 0,-0.213738 -0.07705,-0.395304 -0.230956,-0.544874 -0.154087,-0.149385 -0.412174,-0.291127 -0.774434,-0.425216 L 31.320694,51.9376 c -0.844174,-0.315301 -1.266261,-0.83165 -1.266261,-1.549043 0,-0.489048 0.183479,-0.885394 0.550261,-1.188869 0.366783,-0.303307 0.845565,-0.455138 1.436173,-0.455138 0.529045,0 1.045219,0.09792 1.548871,0.293573 0.09426,0.03982 0.141391,0.119473 0.141391,0.23913 v 0.176518 c 0,0.101565 -0.04261,0.152174 -0.127826,0.152174 -0.05617,0 -0.154783,-0.01898 -0.296174,-0.05704 -0.496347,-0.133912 -0.930262,-0.201044 -1.301566,-0.201044 -0.425739,0 -0.749217,0.0847 -0.970086,0.254091 -0.221044,0.169395 -0.331653,0.419823 -0.331653,0.751304 0,0.268171 0.07705,0.475129 0.230957,0.621046 0.154086,0.145739 0.455652,0.304693 0.905044,0.476867 l 0.945565,0.356002 c 0.442087,0.164866 0.763652,0.367651 0.964696,0.608697 0.201043,0.240869 0.301564,0.538776 0.301564,0.893911 0,0.534434 -0.19513,0.95739 -0.585564,1.269038 -0.390435,0.311658 -0.920696,0.467486 -1.590957,0.467486 z m 5.190783,0 c -0.56713,0 -1.002434,-0.153569 -1.305739,-0.460698 -0.303479,-0.306961 -0.455131,-0.756697 -0.455131,-1.349217 V 49.09776 c 0,-0.117565 0.05879,-0.176517 0.176523,-0.176517 h 0.320695 c 0.117739,0 0.176696,0.05897 0.176696,0.176517 v 3.856004 c 0,0.520002 0.0986,0.896347 0.296173,1.129212 0.197391,0.232696 0.509044,0.349045 0.934783,0.349045 0.385738,0 0.748174,-0.0593 1.086957,-0.177912 0.338608,-0.118608 0.701043,-0.312001 1.086956,-0.580171 V 49.09776 c 0,-0.117565 0.05965,-0.176517 0.179304,-0.176517 h 0.317913 c 0.119653,0 0.179306,0.05897 0.179306,0.176517 v 5.595132 c 0,0.117743 -0.05966,0.176694 -0.179306,0.176694 h -0.236347 c -0.117913,0 -0.18487,-0.05897 -0.201218,-0.176694 l -0.04609,-0.472694 c -0.750087,0.550612 -1.527131,0.82609 -2.331479,0.82609 z m 5.842261,-0.141397 c -0.315131,0 -0.561565,-0.09235 -0.739131,-0.277217 -0.17739,-0.184691 -0.26626,-0.442957 -0.26626,-0.77443 v -7.557042 c 0,-0.117743 0.05983,-0.176703 0.179304,-0.176703 H 42.4 c 0.119653,0 0.179479,0.05897 0.179479,0.176703 v 7.543476 c 0,0.173914 0.03357,0.296168 0.100526,0.366778 0.06696,0.07081 0.186608,0.106092 0.358608,0.106092 0.04713,0 0.100525,-0.0033 0.160347,-0.01097 0.05983,-0.0067 0.108697,-0.01074 0.146783,-0.01074 0.110434,0 0.165739,0.05511 0.165739,0.165739 v 0.222777 c 0,0.096 -0.0506,0.155829 -0.152175,0.179306 -0.126781,0.03082 -0.277216,0.04629 -0.45113,0.04629 z m 3.785392,0.03528 C 46.228,54.940171 45.87287,54.81617 45.628349,54.568 45.383826,54.319822 45.261566,53.959303 45.261566,53.486434 V 49.51356 h -0.932174 c -0.119479,0 -0.179305,-0.0598 -0.179305,-0.179297 v -0.116877 c 0,-0.06334 0.01183,-0.11096 0.0353,-0.142607 0.02366,-0.03184 0.07166,-0.05116 0.144001,-0.05847 l 0.956521,-0.08435 0.08434,-1.559654 c 0.0071,-0.06351 0.02435,-0.108697 0.05147,-0.135995 0.02731,-0.02713 0.06887,-0.04074 0.125044,-0.04074 h 0.212 c 0.117739,0 0.176696,0.05897 0.176696,0.176695 v 1.548875 h 1.71739 c 0.11774,0 0.176523,0.05897 0.176523,0.176518 v 0.236527 c 0,0.119473 -0.05878,0.179298 -0.176523,0.179298 h -1.71739 v 3.937567 c 0,0.322434 0.06921,0.55078 0.207825,0.684692 0.138609,0.13409 0.369044,0.201046 0.691479,0.201046 0.228347,0 0.429392,-0.01983 0.603304,-0.05965 0.08696,-0.01444 0.156347,-0.02763 0.207826,-0.03947 0.05165,-0.01168 0.08939,-0.01755 0.112868,-0.01755 0.08696,0 0.130435,0.04696 0.130435,0.141212 v 0.176702 c 0,0.133913 -0.04348,0.217392 -0.130435,0.249909 -0.308,0.101394 -0.66313,0.152175 -1.065217,0.152175 z m 2.672347,-0.07064 c -0.117738,0 -0.176695,-0.05897 -0.176695,-0.176695 v -5.59513 c 0,-0.117567 0.05896,-0.176518 0.176695,-0.176518 h 0.320696 c 0.11774,0 0.176522,0.05897 0.176522,0.176518 v 5.59513 c 0,0.117743 -0.05878,0.176695 -0.176522,0.176695 z m 0.16574,-7.225564 c -0.157565,0 -0.281565,-0.04746 -0.372348,-0.142607 -0.09043,-0.09513 -0.135826,-0.221566 -0.135826,-0.379133 0,-0.157567 0.04539,-0.283475 0.135826,-0.37774 0.09078,-0.09425 0.214783,-0.141212 0.372348,-0.141212 0.157565,0 0.281739,0.04696 0.372348,0.141212 0.09061,0.09426 0.135826,0.220173 0.135826,0.37774 0,0.157567 -0.04522,0.284004 -0.135826,0.379133 -0.09061,0.09513 -0.214783,0.142607 -0.372348,0.142607 z m 2.401565,7.225564 c -0.119479,0 -0.179304,-0.05897 -0.179304,-0.176695 v -5.59513 c 0,-0.117567 0.05983,-0.176518 0.179304,-0.176518 h 0.236523 c 0.125043,0 0.191998,0.05897 0.201043,0.176518 l 0.04626,0.508174 c 0.385739,-0.275301 0.791652,-0.487653 1.217391,-0.637216 0.425739,-0.149394 0.839652,-0.224179 1.241739,-0.224179 0.576174,0 1.015826,0.151831 1.319304,0.455137 0.303479,0.303476 0.45513,0.750608 0.45513,1.341044 v 4.15217 c 0,0.117743 -0.05878,0.176695 -0.176521,0.176695 h -0.320696 c -0.117739,0 -0.176695,-0.05897 -0.176695,-0.176695 V 50.82605 c 0,-0.512693 -0.09826,-0.885393 -0.294782,-1.118258 -0.196523,-0.232696 -0.512175,-0.349222 -0.946957,-0.349222 -0.788,0 -1.556175,0.252 -2.304349,0.75548 v 4.578781 c 0,0.117743 -0.05983,0.176695 -0.179304,0.176695 z m 8.633044,2.578783 c -0.331478,0 -0.654782,-0.03343 -0.970087,-0.100526 -0.315129,-0.06712 -0.591478,-0.160348 -0.828696,-0.279821 -0.08696,-0.03806 -0.130434,-0.120523 -0.130434,-0.247304 v -0.16574 c 0,-0.101566 0.04347,-0.152175 0.130434,-0.152175 0.02347,0 0.04921,0.0033 0.07739,0.01074 0.028,0.0075 0.07738,0.02259 0.148,0.04628 0.559826,0.181213 1.072521,0.271648 1.538087,0.271648 0.731826,0 1.269392,-0.181213 1.61287,-0.543472 0.34313,-0.362267 0.514956,-0.933912 0.514956,-1.714608 v -0.578785 c -0.291826,0.244524 -0.61513,0.437909 -0.970261,0.580172 -0.354956,0.142085 -0.693739,0.213217 -1.016174,0.213217 -0.757391,0 -1.364695,-0.270262 -1.822087,-0.811129 -0.457391,-0.540692 -0.686087,-1.255825 -0.686087,-2.145395 0,-0.954609 0.226783,-1.70782 0.680696,-2.259474 0.45374,-0.551652 1.070957,-0.827483 1.851826,-0.827483 0.740869,0 1.398608,0.263659 1.97287,0.790784 l 0.04887,-0.437565 c 0.01634,-0.117566 0.0833,-0.176516 0.201217,-0.176516 H 63.156 c 0.117739,0 0.176697,0.05897 0.176697,0.176516 v 5.500001 c 0,0.929393 -0.236522,1.636875 -0.709392,2.122437 -0.472696,0.485394 -1.158434,0.728171 -2.057043,0.728171 z m 0.260869,-3.277219 c 0.59061,0 1.201219,-0.251824 1.831653,-0.755303 V 50.127616 C 62.336176,49.859614 62.025045,49.664314 61.725219,49.542051 61.425393,49.41979 61.106088,49.35857 60.76748,49.35857 c -0.630435,0 -1.105739,0.205221 -1.425392,0.615654 -0.319651,0.410264 -0.479651,1.016694 -0.479651,1.819129 0,0.773741 0.167651,1.363303 0.502782,1.769048 0.33513,0.405913 0.822435,0.608689 1.461912,0.608689 m -50.65322,12.872349 c -0.117739,0 -0.1766256,-0.05888 -0.1766256,-0.176626 V 59.02448 c 0,-0.117735 0.058885,-0.176694 0.1766256,-0.176694 h 2.649462 c 0.75,0 1.347338,0.220517 1.792104,0.661735 0.444696,0.44105 0.66713,1.033049 0.66713,1.775828 0,0.731824 -0.222434,1.318782 -0.66713,1.760875 -0.444766,0.441906 -1.042104,0.662953 -1.792104,0.662953 h -2.152175 v 3.157636 c 0,0.117717 -0.0589,0.176626 -0.176626,0.176626 z M 12.79892,63.08152 c 1.166643,0 1.749949,-0.598777 1.749949,-1.796171 0,-1.206611 -0.583306,-1.809915 -1.749949,-1.809915 h -2.127722 v 3.606086 z m 5.370122,4.092354 c -0.543479,0 -0.97513,-0.155778 -1.294783,-0.467393 -0.319825,-0.311615 -0.479652,-0.727372 -0.479652,-1.24729 0,-0.57608 0.197043,-1.029404 0.59113,-1.360103 0.393913,-0.330607 0.930609,-0.495826 1.609913,-0.495826 0.527305,0 1.090609,0.09043 1.690262,0.271656 v -0.994612 c 0,-0.480001 -0.114091,-0.824695 -0.342435,-1.033913 -0.228174,-0.209219 -0.606782,-0.313908 -1.135827,-0.313908 -0.536173,0 -1.111304,0.09878 -1.725564,0.296344 -0.07251,0.02352 -0.132174,0.03528 -0.179305,0.03528 -0.07791,0 -0.116869,-0.05166 -0.116869,-0.154956 v -0.187479 c 0,-0.06334 0.01183,-0.112697 0.0353,-0.148176 0.02347,-0.03528 0.06261,-0.06468 0.116868,-0.08817 0.623132,-0.244693 1.28174,-0.366954 1.975653,-0.366954 0.693739,0 1.208175,0.145916 1.543479,0.437564 0.334956,0.291656 0.502608,0.732866 0.502608,1.323302 v 4.187552 c 0,0.117718 -0.05896,0.176626 -0.176521,0.176626 h -0.250087 c -0.11774,0 -0.180348,-0.05888 -0.187479,-0.176626 l -0.04887,-0.508158 c -0.677564,0.54348 -1.386956,0.81522 -2.127826,0.81522 z m 0.09513,-0.61414 c 0.298956,0 0.621913,-0.06115 0.968696,-0.183406 0.346956,-0.122296 0.697912,-0.293967 1.053043,-0.514962 V 64.383109 C 19.75687,64.239955 19.244174,64.16848 18.747826,64.16848 c -1.103131,0 -1.654783,0.425704 -1.654783,1.277128 0,0.364123 0.09861,0.640835 0.296174,0.830163 0.197391,0.189336 0.489044,0.283963 0.874957,0.283963 z m 4.695131,0.483705 c -0.119479,0 -0.179305,-0.05888 -0.179305,-0.176626 v -5.595157 c 0,-0.117566 0.05983,-0.176526 0.179305,-0.176526 h 0.222956 c 0.126782,0 0.193739,0.05897 0.201044,0.176526 l 0.05983,0.687649 c 0.300696,-0.331648 0.594609,-0.566084 0.88174,-0.703827 0.287131,-0.137735 0.611825,-0.206606 0.974261,-0.206606 0.126608,0 0.229913,0.0033 0.309738,0.01097 0.11774,0.0075 0.176522,0.07064 0.176522,0.190092 v 0.293563 c 0,0.0325 -0.01183,0.06241 -0.0353,0.08974 -0.02348,0.02713 -0.0553,0.04074 -0.09513,0.04074 -0.0633,0 -0.122609,-0.0017 -0.177913,-0.005 -0.0553,-0.0033 -0.138261,-0.0058 -0.248696,-0.0058 -0.362261,0 -0.683305,0.06712 -0.963304,0.201223 -0.279826,0.133912 -0.549391,0.350431 -0.808349,0.649386 v 4.353293 c 0,0.117718 -0.05983,0.176626 -0.179304,0.176626 z m 5.72313,0.07064 c -0.465565,0 -0.820696,-0.12411 -1.065217,-0.37228 -0.244522,-0.248161 -0.366956,-0.608697 -0.366956,-1.081517 v -3.972847 h -0.932 c -0.119479,0 -0.179305,-0.0598 -0.179305,-0.179307 v -0.116869 c 0,-0.06334 0.01164,-0.11096 0.0353,-0.142606 0.02366,-0.03184 0.07147,-0.05115 0.144002,-0.05847 l 0.956521,-0.08434 0.08417,-1.559654 c 0.0073,-0.06351 0.02451,-0.108697 0.05165,-0.136004 0.0273,-0.02713 0.06887,-0.04065 0.125043,-0.04065 h 0.212 c 0.11774,0 0.176523,0.05897 0.176523,0.176694 v 1.548869 h 1.71739 c 0.11774,0 0.176696,0.05897 0.176696,0.176525 v 0.236519 c 0,0.119481 -0.05896,0.179307 -0.176696,0.179307 h -1.71739 v 3.937508 c 0,0.322493 0.06939,0.550754 0.208,0.684785 0.138608,0.134055 0.369043,0.201096 0.691477,0.201096 0.228348,0 0.429392,-0.01991 0.603304,-0.05981 0.08696,-0.01445 0.156349,-0.02763 0.207827,-0.03939 0.05165,-0.01176 0.08921,-0.01765 0.112868,-0.01765 0.08696,0 0.130434,0.04704 0.130434,0.141305 v 0.176626 c 0,0.134047 -0.04347,0.217392 -0.130434,0.250001 -0.308001,0.10144 -0.663131,0.152174 -1.065218,0.152174 z m 2.626087,-0.07064 c -0.119477,0 -0.179304,-0.05888 -0.179304,-0.176626 v -5.595157 c 0,-0.117566 0.05983,-0.176526 0.179304,-0.176526 h 0.236523 c 0.124868,0 0.192,0.05897 0.201043,0.176526 l 0.04608,0.508175 c 0.385913,-0.27531 0.791653,-0.487654 1.217392,-0.637224 0.425913,-0.149385 0.839826,-0.22417 1.241913,-0.22417 0.576174,0 1.015825,0.151821 1.319304,0.455128 0.303479,0.303475 0.45513,0.750608 0.45513,1.341043 v 4.152247 c 0,0.117716 -0.05879,0.176626 -0.176521,0.176626 H 35.52869 c -0.117739,0 -0.176696,-0.05888 -0.176696,-0.176626 v -3.866856 c 0,-0.512695 -0.09826,-0.885386 -0.294783,-1.11826 -0.196521,-0.232696 -0.512173,-0.349212 -0.946955,-0.349212 -0.788175,0 -1.556175,0.252 -2.304349,0.755471 v 4.578857 c 0,0.117716 -0.05983,0.176626 -0.179477,0.176626 z m 9.057045,0.176627 c -0.936696,0 -1.641914,-0.265826 -2.115479,-0.797546 -0.473913,-0.531729 -0.710608,-1.322017 -0.710608,-2.370909 0,-0.992696 0.238608,-1.763126 0.715999,-2.311134 0.477217,-0.547999 1.145392,-0.822083 2.004001,-0.822083 0.717391,0 1.267304,0.204692 1.649565,0.614091 0.382088,0.409558 0.573218,0.996517 0.573218,1.760867 0,0.315302 -0.0153,0.552518 -0.04609,0.712 -0.02366,0.117735 -0.09061,0.176695 -0.201042,0.176695 h -4.008175 c 0.0071,0.827895 0.188349,1.438835 0.543479,1.832855 0.354956,0.394035 0.902956,0.59104 1.644,0.59104 0.566956,0 1.106782,-0.09872 1.619478,-0.296209 0.103303,-0.03982 0.173913,-0.05981 0.212,-0.05981 0.0327,0 0.0607,0.01411 0.08417,0.04217 0.02366,0.02806 0.03549,0.06199 0.03549,0.101897 v 0.176627 c 0,0.126832 -0.04347,0.209252 -0.130435,0.247288 -0.56713,0.268136 -1.190261,0.402175 -1.869565,0.402175 z m 1.456521,-3.581499 c 0.0071,-0.110606 0.01074,-0.241039 0.01074,-0.391306 0,-0.567126 -0.138087,-0.996349 -0.414434,-1.287997 -0.276174,-0.291657 -0.681566,-0.437565 -1.216,-0.437565 -1.246436,0 -1.90487,0.705566 -1.975479,2.116868 z m 2.329566,3.404872 c -0.119479,0 -0.179304,-0.05888 -0.179304,-0.176626 v -5.595157 c 0,-0.117566 0.05983,-0.176526 0.179304,-0.176526 h 0.222956 c 0.126783,0 0.19374,0.05897 0.201044,0.176526 l 0.05983,0.687649 c 0.300696,-0.331648 0.594609,-0.566084 0.88174,-0.703827 0.28713,-0.137735 0.611826,-0.206606 0.974087,-0.206606 0.126957,0 0.230086,0.0033 0.309913,0.01097 0.117739,0.0075 0.176522,0.07064 0.176522,0.190092 v 0.293563 c 0,0.0325 -0.01166,0.06241 -0.0353,0.08974 -0.02347,0.02713 -0.05513,0.04074 -0.09513,0.04074 -0.0633,0 -0.122608,-0.0017 -0.177912,-0.005 -0.0553,-0.0033 -0.138087,-0.0058 -0.248696,-0.0058 -0.362261,0 -0.683479,0.06712 -0.963304,0.201223 -0.279827,0.133912 -0.549392,0.350431 -0.808349,0.649386 v 4.353293 c 0,0.117718 -0.05983,0.176626 -0.179479,0.176626 h -0.317912"
     id="path54"
     inkscape:connector-curvature="0"
     style="fill:#535b64;stroke-width:0.13043478" />
</svg>
