<svg
   xmlns:dc="http://purl.org/dc/elements/1.1/"
   xmlns:cc="http://creativecommons.org/ns#"
   xmlns:rdf="http://www.w3.org/1999/02/22-rdf-syntax-ns#"
   xmlns:svg="http://www.w3.org/2000/svg"
   xmlns="http://www.w3.org/2000/svg"
   xmlns:sodipodi="http://sodipodi.sourceforge.net/DTD/sodipodi-0.dtd"
   xmlns:inkscape="http://www.inkscape.org/namespaces/inkscape"
   id="svg2"
   version="1.1"
   inkscape:version="0.48.4 r9939"
   width="257.14375"
   height="289.73625"
   xml:space="preserve"
   sodipodi:docname="Vector Smart Object3.ai.svg"><metadata
     id="metadata8"><rdf:RDF><cc:Work
         rdf:about=""><dc:format>image/svg+xml</dc:format><dc:type
           rdf:resource="http://purl.org/dc/dcmitype/StillImage" /><dc:title></dc:title></cc:Work></rdf:RDF></metadata><defs
     id="defs6"><clipPath
       clipPathUnits="userSpaceOnUse"
       id="clipPath16"><path
         d="m 0,231.789 205.715,0 L 205.715,0 0,0 0,231.789 z"
         id="path18" /></clipPath></defs><sodipodi:namedview
     pagecolor="#ffffff"
     bordercolor="#666666"
     borderopacity="1"
     objecttolerance="10"
     gridtolerance="10"
     guidetolerance="10"
     inkscape:pageopacity="0"
     inkscape:pageshadow="2"
     inkscape:window-width="1855"
     inkscape:window-height="1056"
     id="namedview4"
     showgrid="false"
     inkscape:zoom="0.81453395"
     inkscape:cx="-87.502613"
     inkscape:cy="144.86812"
     inkscape:window-x="65"
     inkscape:window-y="24"
     inkscape:window-maximized="1"
     inkscape:current-layer="g10" /><g
     id="g10"
     inkscape:groupmode="layer"
     inkscape:label="Vector Smart Object3"
     transform="matrix(1.25,0,0,-1.25,0,289.73625)"><g
       id="g12"
       style="fill:#3c4a61;fill-opacity:1"><g
         id="g14"
         clip-path="url(#clipPath16)"
         style="fill:#3c4a61;fill-opacity:1"><g
           id="g20"
           transform="translate(108.168,96.093)"
           style="fill:#3c4a61;fill-opacity:1"><path
             d="m 0,0 c 2.898,0 6.277,0.485 9.176,0.965 l 0,-22.211 -29.457,0 0,21.731 C -16.902,0 -14.004,-0.48 -11.106,-0.48 L 0,-0.48 0,0 z m 19.316,-31.386 25.11,0 11.105,-55.051 -121.687,0 11.105,55.051 74.367,0 z m -81.609,95.128 0,62.297 113.965,0 0,-62.297 C 51.672,33.805 27.527,9.66 -2.414,9.66 l -5.797,0 c -29.937,0 -54.082,24.145 -54.082,54.082 m -36.219,39.598 c 0,8.692 6.762,15.453 15.453,15.453 4.348,0 8.211,-1.449 11.106,-4.828 l 0,-50.703 c 0,-2.414 0,-4.348 0.484,-6.762 -24.144,19.317 -27.043,45.875 -27.043,46.84 m 159.84,10.625 c 2.899,2.899 6.762,4.828 11.106,4.828 8.691,0 15.453,-6.761 15.453,-14.968 0,-0.485 -2.414,-27.043 -27.043,-46.84 0,2.414 0.484,4.343 0.484,6.757 l 0,50.223 z M 57.949,42.981 c 36.215,21.73 39.598,58.429 39.598,60.359 0,14.008 -11.11,25.113 -25.113,25.113 -3.864,0 -7.727,-0.964 -11.106,-2.898 l 0,10.141 -133.277,0 0,-10.141 c -3.383,1.93 -7.246,2.898 -11.11,2.898 -14.004,0 -25.109,-11.105 -25.109,-25.593 0,-1.45 3.379,-38.149 39.598,-59.879 6.277,-18.352 20.765,-32.84 38.632,-39.117 l 0,-25.11 -33.32,0 -14.488,-74.847 145.351,0 -14.968,74.367 -33.321,0 0,25.109 c 17.868,6.758 32.356,21.246 38.633,39.598"
             style="fill:#3c4a61;fill-opacity:1;fill-rule:nonzero;stroke:none"
             id="path22" /></g></g></g><g
       id="g3037"
       transform="matrix(1.7198087,0,0,1.7198087,102.61202,206.14115)"
       style="fill:#75c8d2;fill-opacity:1"><path
         d="m 0,0 -4.985,-15.342 -16.132,0 13.051,-9.483 -4.985,-15.342 13.051,9.482 13.051,-9.482 -4.985,15.342 13.051,9.483 -16.132,0 L 0,0 z"
         style="fill:#75c8d2;fill-opacity:1;fill-rule:nonzero;stroke:none"
         id="path3039"
         inkscape:connector-curvature="0" /></g><g
       id="g3023"
       transform="translate(184.64546,120.2635)"
       style="fill:#75c8d2;fill-opacity:1"><path
         inkscape:connector-curvature="0"
         d="m 0,0 -4.985,-15.342 -16.132,0 13.051,-9.483 -4.985,-15.342 13.051,9.482 13.051,-9.482 -4.985,15.342 13.051,9.483 -16.132,0 L 0,0 z"
         style="fill:#75c8d2;fill-opacity:1;fill-rule:nonzero;stroke:none"
         id="path3025" /></g><g
       id="g3009"
       transform="translate(19.643132,119.28134)"
       style="fill:#75c8d2;fill-opacity:1"><path
         inkscape:connector-curvature="0"
         d="m 0,0 -4.985,-15.342 -16.132,0 13.051,-9.483 -4.985,-15.342 13.051,9.482 13.051,-9.482 -4.985,15.342 13.051,9.483 -16.132,0 L 0,0 z"
         style="fill:#75c8d2;fill-opacity:1;fill-rule:nonzero;stroke:none"
         id="path3011" /></g></g></svg>
         