<svg xmlns="http://www.w3.org/2000/svg" height="163.72653" width="300">
  <path d="M276.13284 28.981817c.0742 0 .11542-.0366.11542-.10602v-2.24519c0-.10759-.0266-.20577-.0663-.29821-.0491-.10132-.10863-.18593-.1854-.25278-.081-.0726-.17443-.12743-.27628-.16816-.10549-.0407-.21882-.0622-.34625-.0622h-.10968c-.1243 0-.24076.0245-.34156.0742-.10184.0501-.1948.11385-.27209.19532l-.13214.2486c-.0125 0-.023-.003-.0355-.008l-.0392-.0183v.008c-.0616-.15146-.16764-.27262-.3097-.36349-.14101-.0924-.30865-.13631-.49406-.13631h-.0872c-.1243 0-.23763.0245-.34156.0742-.10184.0501-.19063.11385-.27523.19532l-.12117.23032-.0773-.024.0611-.24547v-.13161c0-.0695-.0402-.0987-.11228-.0987h-.24024c-.0705 0-.10602.0292-.10602.0987v2.92779c0 .0695.0355.10602.10602.10602h.24024c.0721 0 .11228-.0366.11228-.10602v-1.99242c.047-.13004.11229-.23449.18175-.32537.0716-.0877.14467-.15615.21151-.2089.0663-.0543.13893-.0893.20108-.11333.0668-.023.11803-.0319.15981-.0319h.0872c.11281 0 .21309.035.29404.10863.0773.0789.1175.16817.1175.27262v2.30578c0 .0256.0115.0486.0308.0637.0209.0167.047.0272.0752.0272h.24442c.0298 0 .0548-.0104.0684-.0287.0204-.023.0251-.0486.0251-.0773v-1.99242c.0543-.13004.11646-.23449.18592-.32537.071-.0877.14362-.15615.2136-.2089.0778-.0543.14154-.0893.20943-.11333.0606-.023.11438-.0319.15981-.0319h.10968c.12116 0 .21726.035.29455.10863.0794.0789.11803.16817.11803.27262v2.29063c0 .0695.0433.10602.11647.10602zm-4.20419-2.77059c.0726 0 .11542-.0345.11542-.10132v-.1619c0-.0695-.0428-.0987-.11542-.0987h-1.93811c-.0778 0-.11333.0292-.11333.0987v.1619c0 .0668.0355.10132.11333.10132h.73587v2.66457c0 .0695.0376.10602.11176.10602h.23084c.0757 0 .11437-.0366.11437-.10602v-2.66457h.74527m-137.01642 60.67353c-.88941 0-1.33489-.37394-1.33489-1.12965v-39.08174c0-1.23253-.46168-2.27392-1.38451-3.12938-.92179-.85233-2.03682-1.28058-3.33254-1.28058h-2.77059c-.4105 0-.99021.12116-1.74383.35879-.75466.2392-1.55633.66432-2.41179 1.28215-.85599.6147-1.69212 1.43517-2.51312 2.4635-.82047 1.02467-1.53962 2.29063-2.15484 3.79056v35.5967c0 .75571-.44706 1.12965-1.33333 1.12965h-2.66509c-.89098 0-1.3349-.37394-1.3349-1.12965v-69.44645c0-.751.44392-1.12755 1.3349-1.12755h2.66509c.88627 0 1.33333.37655 1.33333 1.12755v24.51645l-.71341 2.87033.92284.20891 1.43517-2.66875c.95677-.95678 2.03106-1.7245 3.22913-2.30891 1.19702-.57814 2.51311-.87165 3.94985-.87165h2.77059c1.36518 0 2.66404.24181 3.89449.71863 1.23201.47996 2.31256 1.12495 3.2354 1.94855.92022.8189 1.63833 1.79866 2.15432 2.92622.51025 1.12808.7672 2.30578.7672 3.53831v38.56836c0 .75571-.44497 1.12965-1.33124 1.12965zm37.8184-9.12753v-30.57048c0-1.23253-.25748-2.41023-.77086-3.53831-.51599-1.12756-1.22887-2.10418-2.14962-2.92622-.92596-.8236-2.006-1.46859-3.23696-1.94855-1.22888-.47682-2.53192-.71863-3.89606-.71863h-2.7732c-1.43204 0-2.75022.29351-3.94515.87165-1.19859.58441-2.27392 1.35213-3.2307 2.30891l-1.44092 2.66875-.91708-.31022.71445-2.87191v-1.53962c0-.74631-.44653-1.12756-1.33281-1.12756h-2.66561c-.89098 0-1.33438.38125-1.33438 1.12756v69.444883c0 .75571.4434 1.13278 1.33438 1.13278h2.66561c.88628 0 1.33281-.37707 1.33281-1.13278V84.115737l-.71445-2.87347.91708-.20421 1.44092 2.56273c.95678.96148 2.03211 1.74748 3.2307 2.36218 1.19493.61418 2.51311.92179 3.94515.92179h2.7732c1.36414 0 2.66718-.23502 3.89606-.71915 1.23096-.47108 2.311-1.12652 3.23696-1.94542.92075-.82047 1.63363-1.79396 2.14962-2.92518.51338-1.12755.77086-2.30682.77086-3.53778m-5.33593.41049c0 1.22888-.46168 2.29481-1.38451 3.17743-.92492.89045-2.03525 1.33542-3.33306 1.33542h-2.7732c-.40423 0-.99229-.12116-1.73965-.36193-.75153-.23919-1.55947-.66588-2.41023-1.28058-.85755-.61783-1.69316-1.43517-2.51468-2.4588-.8236-1.02937-1.53962-2.32823-2.15484-3.90128v-24.51957c.61522-1.49993 1.33124-2.76589 2.15484-3.79056.82152-1.02833 1.65713-1.8488 2.51468-2.4635.85076-.61783 1.6587-1.04295 2.41023-1.28215.74736-.23763 1.33542-.35879 1.73965-.35879h2.7732c1.29781 0 2.40814.42825 3.33306 1.28058.92283.85546 1.38451 1.89685 1.38451 3.12938v31.49435m93.55553-35.80404v35.90536c0 1.23045.46428 2.27549 1.38451 3.12782.92596.85807 2.06971 1.28371 3.4349 1.28371.89045 0 1.33855.41154 1.33855 1.2294v1.84514c0 .75571-.4481 1.12965-1.33855 1.12965-1.43517 0-2.76798-.23502-3.99738-.71915-1.23096-.47212-2.30839-1.12652-3.23226-1.94699-.92231-.8189-1.64303-1.79239-2.15171-2.92204-.51495-1.12912-.77399-2.30995-.77399-3.53935v-50.78141c0-.74631.44653-1.12808 1.33855-1.12808h2.76798c.82047 0 1.2294.38177 1.2294 1.12808v11.18054h7.59156c.88889 0 1.33542.38281 1.33542 1.13069v1.8441c0 .8236-.44653 1.23253-1.33542 1.23253h-7.59156m-162.610805 0v35.90536c0 1.23045.464289 2.27549 1.384511 3.12782.925964.85807 2.069714 1.28371 3.435944 1.28371.88941 0 1.33751.41154 1.33751 1.2294v1.84514c0 .75571-.4481 1.12965-1.33751 1.12965-1.43569 0-2.76902-.23502-3.998418-.71915-1.230444-.47212-2.308388-1.12652-3.232266-1.94699-.922311-.8189-1.643029-1.79239-2.15171-2.92204-.516515-1.12912-.773467-2.30995-.773467-3.53935v-50.78141c0-.74631.446532-1.12808 1.33803-1.12808h2.767977c.820992 0 1.229399.38177 1.229399 1.12808v11.18054h7.591565c.88889 0 1.33542.38281 1.33542 1.13069v1.8441c0 .8236-.44653 1.23253-1.33542 1.23253h-7.591565m-38.567839 43.39143v-38.56836c0-1.23253-.256952-2.41023-.7672-3.53935-.516515-1.12652-1.232533-2.10471-2.157977-2.92518-.922311-.82204-1.998688-1.47016-3.232266-1.94855-1.232533-.47839-2.562415-.71863-3.998421-.71863h-5.029205c-1.435222 0-2.768394.24024-3.997741.71863-1.230601.47839-2.308545 1.12651-3.233519 1.94855-.921319.82047-1.640418 1.79866-2.150666 2.92518-.51615 1.12912-.773571 2.30682-.773571 3.53935 0 .75206.446741 1.13226 1.337664 1.13226h2.665143c.886432 0 1.333016-.3802 1.333016-1.13226v-.51338c0-1.23253.462461-2.27235 1.386025-3.12781.924348-.85547 2.067992-1.28215 3.433649-1.28215h5.029205c1.365605 0 2.513167.42668 3.433336 1.28215.922833.85546 1.386077 1.89528 1.386077 3.12781v8.20261c-2.599443.55255-5.195649 1.35631-7.795928 2.41441-2.597824 1.0628-4.923081 2.24102-6.976032 3.53988-2.050653 1.29886-3.711492 2.68128-4.974734 4.15562-1.26789 1.4712-1.89622 2.92361-1.89622 4.35878v8.41256c0 1.2294.257422 2.41023.767669 3.53935.51615 1.12965 1.23222 2.10314 2.154949 2.92204.921893.82047 1.999889 1.47487 3.230855 1.94542 1.230549.4857 2.529461.72072 3.898983.72072h2.768185c1.439087 0 2.753719-.28933 3.94818-.87217 1.19916-.57658 2.27465-1.34743 3.233153-2.30891l1.43517-2.66562.925444.30709-.719674 2.77216v1.6378c0 .75571.446533 1.12965 1.333852 1.12965h2.667703c.888364 0 1.334896-.37394 1.334896-1.12965m-5.336451-10.97581c-.612088 1.5062-1.33124 2.77216-2.154321 3.79996-.817441 1.02363-1.660786 1.84097-2.510085 2.4588-.859065.6147-1.660003 1.04139-2.41237 1.28215-.753203.2392-1.333016.36036-1.745497.36036h-2.768185c-1.299748 0-2.41237-.42564-3.335099-1.28371-.920483-.8539-1.381534-1.89737-1.381534-3.12625v-8.92594c0-.54368.4094-1.31766 1.230131-2.30735.818068-.9902 1.963592-2.03629 3.434902-3.13094 1.469483-1.09309 3.196805-2.15276 5.177684-3.179 1.986258-1.02363 4.137498-1.84567 6.464374-2.4635zm26.328682-32.41562c-.411018 0-.990727.12064-1.739647.36141-.753621.23919-1.55999.66483-2.413885 1.28058-.855461.61679-1.692644 1.43517-2.514681 2.46193-.817858 1.02781-1.535966 2.29376-2.149621 3.79526v35.49225c0 .75571-.448099 1.12965-1.338552 1.12965h-2.664047c-.890453 0-1.333851-.37394-1.333851-1.12965v-46.46806c0-.74788.443398-1.12965 1.333851-1.12965h2.664047c.890453 0 1.338552.38177 1.338552 1.12965v1.53806l-.722807 2.8719.925966.30866 1.434648-2.66875c.95678-.95521 2.032635-1.72607 3.230699-2.30578 1.198586-.57971 2.513114-.87374 3.949328-.87374h5.847743c.888886 0 1.33594.38177 1.33594 1.12965v1.8441c0 .34626-.139443.63402-.412585.87478-.274186.24077-.582842.35775-.923355.35775zm-53.785026 18.05452v-13.23145c0-1.2294-.254184-2.41023-.766834-3.54301-.51615-1.13174-1.221618-2.09374-2.15803-2.92152-.930249-.8283-1.997017-1.46233-3.229237-1.94855-1.227728-.48309-2.528886-.72333-3.900601-.71863-1.365657.0104-6.7688 0-6.7688 0-1.4380423 0-2.7620231.23867-3.9973241.71863-1.2377086.48622-2.3073175 1.12338-3.2345323 1.94855-.9280347.82517-1.6396136 1.7971-2.15432153 2.92518C.25725367 44.776517 0 45.957347 0 47.186747v30.57048c0 1.2341.25725367 2.40239.76911107 3.54405.51470793 1.12495 1.22180063 2.09374 2.15432153 2.91734.9272148.82518 1.9968237 1.47487 3.2345323 1.94542 1.235301.47526 2.5592818.72072 3.9973241.72072h6.7688c1.371715 0 2.659817-.23763 3.900601-.72072 1.23222-.47055 2.302017-1.12024 3.229237-1.94542.928056-.8236 1.644909-1.79239 2.15803-2.91734.51265-1.14166.766834-2.30995.766834-3.54405 0-.75676-.444339-1.12913-1.334635-1.12913h-2.668173c-.887842 0-1.331554.37237-1.331554 1.12913v.51338c0 1.23044-.458648 2.27653-1.382996 3.12625-.931711.85337-2.032321 1.28371-3.337344 1.28371h-6.7688c-1.3684773 0-2.5093016-.42251-3.4381406-1.28371-.9227285-.85703-1.3813248-1.89581-1.3813248-3.12625v-13.7464H21.644429c3.218583 0 5.334362-1.2811 5.334362-4.10601m-5.334362-.10445H5.3358236v-13.64038c0-1.23671.4585963-2.27079 1.3813248-3.12781.928839-.85651 2.0696633-1.28215 3.4381406-1.28215h6.7688c1.305023 0 2.41096.42564 3.337344 1.28215.924348.85702 1.382996 1.8911 1.382996 3.12781v13.64038m227.580541-17.95007c.34574 0 .64917-.11698.92284-.35775.27523-.24076.40997-.52852.40997-.87478v-1.8441c0-.74788-.44653-1.13069-1.33281-1.13069h-5.84931c-1.43203 0-2.7497.29507-3.94515.87478-1.19806.57971-2.27444 1.35057-3.23226 2.30735l-1.43883 2.66718-.92179-.30866.71602-2.8719v-1.53806c0-.74788-.4434-1.13069-1.33019-1.13069h-2.6698c-.88679 0-1.33594.38281-1.33594 1.13069v46.46806c0 .75571.44915 1.12965 1.33594 1.12965h2.6698c.88679 0 1.33019-.37394 1.33019-1.12965v-35.49225c.61836-1.5015 1.33437-2.76745 2.15798-3.79526.82151-1.02676 1.65399-1.84723 2.51416-2.46193.85128-.61575 1.65922-1.04139 2.40761-1.28058.74997-.24077 1.33751-.36141 1.74226-.36141h5.84931" fill="#083a54" stroke-width=".39169484"/>
  <path d="M120.30828 125.63492h-.17966c34.6932 43.6054 98.16343 50.84502 141.77682 16.15658 43.61443-34.69476 50.84669-98.171783 16.15349-141.78883333-.007-.006-.16555 0-.16555 0C308.88532 43.403497 300.80282 104.03159 258.58491 137.61446c-42.21478 33.5729-102.95411 27.9576-138.27663-11.97954" fill="#e0b510" stroke-width=".39169484"/>
  <path d="M200.62504 81.617767c-10.57628 0-19.14865-8.57498-19.14865-19.1497 0-10.57315 8.57237-19.14656 19.14865-19.14656 10.5742 0 19.14709 8.57341 19.14709 19.14656 0 10.57472-8.57289 19.1497-19.14709 19.1497m0-43.51468c-13.45811 0-24.36707 10.91105-24.36707 24.36498 0 13.45864 10.90896 24.36655 24.36707 24.36655 13.45446 0 24.36342-10.90791 24.36342-24.36655 0-13.45393-10.90896-24.36498-24.36342-24.36498" fill="#e0b510" stroke-width=".39169484"/>
  <path d="M14.851553 101.76342c-2.200437.1196-4.741544.23919-4.741544 2.38882 0 1.17665.852328 1.96056 2.643313 1.96056.784852 0 1.722883-.15302 2.098231-.34051zm-2.080892 5.15209c-2.404849 0-3.6325252-1.07533-3.6325252-2.74656 0-2.67815 2.9332202-3.01866 5.7134172-3.17325v-.80063c0-1.551633-1.040863-2.012263-2.404849-2.012263-.853164 0-1.876427.27262-2.4562402.58023l-.3066187-.75101c.6646279-.3238 1.7901499-.63141 2.8310139-.63141 1.927243 0 3.308567.76772 3.308567 2.882353v6.02113c-.631151.35723-1.91053.63141-3.052765.63141m8.096489 3.49549h-1.040028l1.381325-3.66679-3.462217-9.192293h1.091419l2.524394 7.112133c.153858.44235.256064.86904.324167 1.22783h.0341c.05055-.22248.153596-.71602.341296-1.22783l2.52356-7.112133h1.091627L20.86715 110.411m17.93837-3.66679v-6.42954c0-1.330723-.938606-2.098443-2.200437-2.098443-.989422 0-1.773595.34051-2.26854.92231v7.605673h-1.006186v-6.70216c0-1.126513-1.005924-1.825823-2.421562-1.825823-.818903 0-1.534921.15459-2.064127.37551v8.152473h-1.005977v-8.732183c.853164-.37551 1.927243-.63141 3.052765-.63141 1.398873 0 2.40485.51181 2.882613 1.12651.562474-.56352 1.619841-1.12651 2.967323-1.12651 1.824828 0 3.070104 1.10823 3.070104 2.882353v6.48124H38.80552m7.463614-8.561403c-1.807698 0-2.916455 1.48374-2.967271 3.735203l5.542482-.80272c-.01671-1.995033-1.040028-2.932483-2.575211-2.932483zm3.53058 3.547183l-6.447035.95522c.136048 2.25146 1.398873 3.39416 3.342671 3.39416.921058 0 1.910531-.23919 2.490291-.5797l.340723.78443c-.613864.35723-1.705544.63141-2.865117.63141-2.626601 0-4.280703-1.65504-4.280703-4.77659 0-2.831173 1.483793-4.758303 3.88859-4.758303 2.131708 0 3.547084 1.38242 3.547084 3.803093 0 .17078 0 .34208-.0165.54628m8.266694 5.01422v-6.27652c0-1.364143-.835616-2.251463-2.507369-2.251463-.920744 0-1.722413.1713-2.234228.37551v8.152473h-1.005872v-8.732183c.835616-.37551 1.97832-.63141 3.2401-.63141 2.285408 0 3.513241 1.14322 3.513241 3.035373v6.32822h-1.005872m6.714693.0846c-1.36362 0-2.335545-.74945-2.335545-2.30265v-6.207053h-1.433081v-.7672h1.433081v-2.28646l.971925-.37498v2.66144h2.080683v.7672h-2.080683v6.174153c0 1.02311.699306 1.45032 1.517687 1.45032.204726 0 .426686-.035.562996-.0867v.87061c-.153544.0684-.392217.10132-.717063.10132m13.657093-.0846v-6.27652c0-1.364143-.835615-2.251463-2.506846-2.251463-.921267 0-1.722935.1713-2.23475.37551v8.152473H72.69073v-8.732183c.835615-.37551 1.978842-.63141 3.240622-.63141 2.285408 0 3.513241 1.14322 3.513241 3.035373v6.32822h-1.006395m7.466226-8.561403c-1.807541 0-2.916821 1.48374-2.968002 3.735203l5.543265-.80272c-.01671-1.995033-1.040342-2.932483-2.575263-2.932483zm3.530476 3.547183l-6.447297.95522c.13631 2.25146 1.399134 3.39416 3.342985 3.39416.921266 0 1.910426-.23919 2.490135-.5797l.340513.78443c-.613655.35723-1.705178.63141-2.865117.63141-2.626445 0-4.280441-1.65504-4.280441-4.77659 0-2.831173 1.48374-4.758303 3.888746-4.758303 2.131342 0 3.546666 1.38242 3.546666 3.803093 0 .17078 0 .34208-.01619.54628m5.417923 5.09883c-1.36362 0-2.335546-.74945-2.335546-2.30265v-6.207053h-1.433081v-.7672h1.433081v-2.28646l.971926-.37498v2.66144h2.080683v.7672h-2.080683v6.174153c0 1.02311.699305 1.45032 1.517686 1.45032.204726 0 .426687-.035.562997-.0867v.87061c-.153545.0684-.392218.10132-.717063.10132m12.328987-.0846h-1.02363l-2.08069-6.941353c-.0684-.20421-.20472-.78392-.28985-1.22784h-.0345c-.0507.27262-.15354.78444-.28985 1.22784l-2.08069 6.941353h-1.02258l-2.848403-9.192293h1.005873l2.04673 6.906363c.13631.47839.25591 1.1098.28986 1.33072h.0339c.0345-.1713.17078-.80115.32433-1.33072l2.04673-6.906363h1.02363l2.04674 6.906363c.17025.57971.28985 1.15942.3238 1.33072h.034c.0339-.18802.1363-.75101.30656-1.33072l2.0295-6.906363h1.00692l-2.8484 9.192293m8.28304-8.527983c-1.8932 0-2.77999 1.67123-2.77999 3.922693 0 2.25094.88679 3.9227 2.77999 3.9227 1.89319 0 2.77998-1.67176 2.77998-3.9227 0-2.251463-.88679-3.922693-2.77998-3.922693zm0 8.699283c-2.49014 0-3.78639-2.06345-3.78639-4.77659 0-2.711573 1.29625-4.758303 3.78639-4.758303 2.48961 0 3.78638 2.04673 3.78638 4.758303 0 2.71314-1.29677 4.77659-3.78638 4.77659m10.1428-8.630863c-.20472-.0334-.44392-.0517-.68207-.0517-.73377 0-1.56939.13788-2.04674.3588v8.152473h-1.00639v-8.732183c.76772-.37551 2.0295-.63141 3.17273-.63141.37446 0 .6993.0167.78391.035l-.22144.86904m8.08197 8.459563l-4.63923-4.75831h-.0345v4.75831h-.97193V93.355067h.97193v8.494553h.0345l4.41727-4.297673h1.26178l-4.5024 4.382803 4.72436 4.80949h-1.26178M2.7822553 98.217277c-.6991334 0-1.4509003.17025-1.7746595.34103v7.202493c.3070313.11959 1.108982.27314 1.7399815.27314 2.1512611 0 3.294916-1.72346 3.294916-4.01096 0-2.270263-1.1603829-3.805703-3.260238-3.805703zm.016733 8.653323c-.7158666 0-1.4329502-.13736-1.7913927-.27314v3.82294H0V98.012027c.56285502-.32433 1.7065256-.63141 2.7655274-.63141 2.7141265 0 4.2831515 1.87752 4.2831515 4.642363 0 2.79879-1.5355481 4.84762-4.2496904 4.84762" fill="#083a54" stroke-width=".39169484"/>
</svg>