<svg xmlns="http://www.w3.org/2000/svg" viewBox="0 0 339.9 109.7">
  <path d="M53.7 25.8H41.2c-3.7 0-6.7-3-6.7-6.7V6.7c0-3.7 3-6.7 6.7-6.7h12.4c3.7 0 6.7 3 6.7 6.7v12.4c.1 3.7-2.9 6.7-6.6 6.7" fill="#0e6eb7"/>
  <path d="M21.5 53.7h-14c-4.2 0-7.5-3.4-7.5-7.5v-14c0-4.2 3.4-7.5 7.5-7.5h14c4.2 0 7.5 3.4 7.5 7.5v14c0 4.1-3.3 7.5-7.5 7.5" fill="#72217b"/>
  <path d="M20.2 82.7h-8.5c-2.5 0-4.6-2.1-4.6-4.6v-8.5C7 67 9.1 65 11.6 65h8.5c2.5 0 4.6 2.1 4.6 4.6v8.5c.1 2.5-2 4.6-4.5 4.6" fill="#b12384"/>
  <path d="M43.1 109.7H33c-3 0-5.4-2.4-5.4-5.4V94.2c0-3 2.4-5.4 5.4-5.4h10.1c3 0 5.4 2.4 5.4 5.4v10.1c0 3-2.4 5.4-5.4 5.4m37-78.8h-7c-2.1 0-3.8-1.7-3.8-3.8v-7c0-2.1 1.7-3.8 3.8-3.8h7c2.1 0 3.8 1.7 3.8 3.8v7c0 2.1-1.7 3.8-3.8 3.8" fill="#d82b80"/>
  <path d="M233.2 35.6c2.2 0 4-1.8 4-4s-1.8-4-4-4-4 1.8-4 4 1.8 4 4 4m-147.1 43c-.6.9-1.6 1.4-2.7 1.4-.6 0-1.3-.2-1.9-.5-.9-.5-1.5-1.7-1.5-2.9 0-.5.2-1.1.5-1.6l9.4-14.7-9.4-14.7c-.4-.5-.5-1.1-.5-1.6 0-1.1.5-2.3 1.6-2.8.5-.3 1.1-.5 1.7-.5 1.1 0 2.2.5 2.8 1.4l7.6 12.1 7.7-12.1c.6-.9 1.7-1.4 2.8-1.4.6 0 1.2.2 1.7.5 1 .5 1.6 1.7 1.6 2.8 0 .5-.2 1.2-.5 1.6l-9.4 14.7L107 75c.3.5.5 1 .5 1.6 0 1.2-.6 2.3-1.5 2.9-.5.3-1.2.5-1.9.5-1.1 0-2.1-.5-2.7-1.4l-7.7-12-7.6 12zm33.3-33.3c3.5-3.2 8.3-5.1 13.4-5.1 11.2 0 20.2 9 20.2 20.2 0 11.1-9 20-20.2 20-5.1 0-9.9-1.9-13.4-5.1v17.2c0 1.7-1.6 3.2-3.4 3.2-1.6 0-3.3-1.5-3.3-3.2V43.7c0-1.7 1.6-3.2 3.3-3.2 1.8 0 3.4 1.5 3.4 3.2v1.6zm13.4 1.6c-7.5 0-13.4 5.9-13.4 13.5 0 7.5 5.9 13.4 13.4 13.4 7.6 0 13.5-5.9 13.5-13.4 0-7.6-5.9-13.5-13.5-13.5m77.3 9.8v20.2c0 1.7-1.6 3.2-3.3 3.2-1.8 0-3.4-1.5-3.4-3.2V43.7c0-1.7 1.6-3.2 3.4-3.2 1.6 0 3.2 1.4 3.3 3 2.7-2.1 6.2-3.3 10.1-3.4 2.1 0 3.7 1.6 3.7 3.3 0 1.8-1.6 3.4-3.7 3.4-5.3.2-10.1 2.1-10.1 9.9m23.2-16.2c-1.8 0-3.4 1.5-3.4 3.2v33.2c0 1.7 1.6 3.2 3.4 3.2 1.6 0 3.3-1.5 3.3-3.2V43.7c0-1.8-1.7-3.2-3.3-3.2m42.3 3.2c0-1.7 1.6-3.2 3.4-3.2 1.6 0 3.3 1.5 3.3 3.2v33.2c0 1.7-1.6 3.2-3.3 3.2-1.8 0-3.4-1.5-3.4-3.2v-1.6c-3.6 3.2-8.3 5.1-13.4 5.1-11.2 0-20.2-9-20.2-20.2 0-11.1 9-20 20.2-20 5.1 0 9.8 1.9 13.4 5.1v-1.6zm-13.4 30c7.5 0 13.4-5.9 13.4-13.5 0-7.5-5.9-13.4-13.4-13.4-7.6 0-13.5 5.9-13.5 13.4s6 13.5 13.5 13.5M316 57.1c0-5.5-4.8-10.4-10.4-10.4-5.4 0-10.4 2.2-10.4 10v20.2c0 1.7-1.6 3.2-3.3 3.2-1.8 0-3.4-1.5-3.4-3.2V43.7c0-1.7 1.6-3.2 3.4-3.2 1.6 0 3.2 1.4 3.3 3 2.8-2.2 6.4-3.4 10.3-3.4 9 0 17.1 7.1 17.1 16v20.7c0 1.7-1.6 3.2-3.3 3.2-1.8 0-3.4-1.5-3.4-3.2V57.1zm-237.9 2c-.2-10.2-9.3-18.9-20-18.9-11.2 0-20.2 9-20.2 20 0 11.2 9 20.2 20.2 20.2 5.4 0 10.4-2.1 14-5.7.7-.6 1.2-1.6 1.2-2.5 0-1.8-1.6-3.4-3.4-3.4-1 0-1.9.6-2.6 1.3-2.3 2.4-5.6 3.5-9.1 3.5-6.7 0-12.2-4.6-13.3-11h30.2-.1.2c.1 0 .2 0 .3-.1 1.4-.3 2.6-1.7 2.6-3.4m-20-12.3c6 0 11.1 3.9 12.8 9.3H45.2c1.8-5.4 6.8-9.3 12.9-9.3m139.7 12.3c-.2-10.2-9.3-18.9-20-18.9-11.2 0-20.2 9-20.2 20 0 11.2 9 20.2 20.2 20.2 5.4 0 10.4-2.1 14-5.7.7-.6 1.2-1.6 1.2-2.5 0-1.8-1.6-3.4-3.3-3.4-1 0-2 .6-2.7 1.3-2.3 2.4-5.6 3.5-9.1 3.5-6.7 0-12.2-4.6-13.3-11h30.2c.1 0 .2 0 .3-.1h.1c1.4-.2 2.6-1.6 2.6-3.4m-20-12.3c6 0 11.1 3.9 12.8 9.3H165c1.7-5.4 6.7-9.3 12.8-9.3m151.8 33.3c-.3 0-.6-.2-.6-.5V74h-1.3c-.3 0-.5-.2-.5-.5s.2-.6.5-.6h3.6c.3 0 .5.2.5.6 0 .3-.2.5-.5.5H330v5.6c.2.3 0 .5-.4.5m6.6 0c-.3 0-.5-.2-.5-.4l-1.6-4.6v4.5c0 .3-.2.5-.6.5-.3 0-.6-.2-.6-.5v-5.9c0-.4.4-.8.8-.8s.7.3.8.6l1.6 4.6 1.6-4.6c.1-.4.4-.6.8-.6s.8.4.8.8v5.9c0 .3-.2.5-.5.5s-.6-.2-.6-.5v-4.5c-.2.7-.6 1.8-.9 2.7-.6 1.8-.6 1.9-.6 1.9-.1.2-.3.4-.5.4" fill="#004691"/>
</svg>