<svg xmlns="http://www.w3.org/2000/svg" height="70.400002" width="302.35999">
  <path d="M81.0697313 48.7478672v-1.62239995c0-19.07759952-11.16093305-30.80719923-27.4723993-30.80719923-6.9634665 0-13.73586633 2.8598666-18.88853287 8.01093313-5.0541332 5.05519988-7.81866647 11.63693304-7.81866647 18.79053287 0 7.24586648 2.5754666 13.73706632 7.53279981 18.98078619 5.2489332 5.5338532 11.54479971 8.20416726 19.36346619 8.20416726 11.45053304 0 19.9395995-5.43750067 24.8969327-16.12135373H62.08639846c-2.29053328 2.00306662-4.76866655 2.86199993-7.8207998 2.86199993-6.58173318 0-10.49373308-2.86199993-11.82866638-8.29746646zM65.90266503 38.06146749H41.96039895c1.04839997-4.86253322 5.53546653-8.10733314 11.8259997-8.10733314 6.00946652 0 10.30373308 2.86359993 12.11626637 8.10733314M138.10132988 48.7478672v-1.62239995c0-19.07759952-11.16119972-30.80719923-27.47266598-30.80719923-6.96253316 0-13.73746632 2.8598666-18.88853286 8.01093313-5.05519987 5.05519988-7.81986647 11.63693304-7.81986647 18.79053287 0 7.24586648 2.5770666 13.73706632 7.53386648 18.98078619 5.24799987 5.5338532 11.5447997 8.20416726 19.36613285 8.20416726 11.44693304 0 19.9375995-5.43750067 24.89706604-16.12135373h-16.60066625c-2.28639994 2.00306662-4.76773322 2.86199993-7.81973314 2.86199993-6.58079983 0-10.49479974-2.86199993-11.82866637-8.29746646zM122.9338636 38.06146749H98.99173086c1.0489333-4.86253322 5.53279986-8.10733314 11.82853304-8.10733314 6.00999985 0 10.2994664 2.86359993 12.1135997 8.10733314M5.5317732 29.28853436V69.0630267h14.78649296V29.28853436h6.00933318V17.84120131h-6.00933318v-1.23959997c0-4.67346654 1.0489333-6.20053317 5.62759986-6.20053317h.38173332V.09893509c-.85826664 0-1.62399996-.0932-2.3854666-.0932-12.59005302 0-18.50723954 4.95933321-18.50723954 15.92813294 0 .57293332.09688 1.24106663.09688 1.90733328H0v11.44733305h5.5317732M143.8239964 29.28853436V69.0630267h14.7866663V29.28853436h6.00666652V17.84120131h-6.00666652v-1.23959997c0-4.67346654 1.0493333-6.20053317 5.62799986-6.20053317h.37866666V.09893509c-.85599998 0-1.6213333-.0932-2.38533328-.0932-12.58933301 0-18.5026662 4.95933321-18.5026662 15.92813294 0 .57293332.09466666 1.24106663.09466666 1.90733328h-5.53199986v11.44733305h5.53199986M218.67999453 43.11973402c0-6.9650665-2.95599992-14.02279965-8.39199979-19.1718662-5.15066654-4.86559987-11.5399997-7.44106647-18.98399952-7.44106647-6.96133316 0-13.733333 2.86253326-18.8866662 8.0119998-5.05466654 5.05519987-7.81866647 11.63586637-7.81866647 18.7894662 0 7.15479982 2.57333327 13.73959965 7.53466648 18.88703952 5.24799987 5.53646653 11.54133304 8.20521396 19.36399952 8.20521396 7.72533314 0 14.21199964-2.76614743 19.4599995-8.01197396 5.15066655-5.1520932 7.72266648-11.54214638 7.72266648-19.26881285m-14.97333296.37919999c0 6.96413316-5.43866653 12.59319968-12.1119997 12.59319968-6.58399983 0-12.11733302-5.62906652-12.11733302-12.59319968 0-7.0562665 5.43866653-12.68639969 12.11733303-12.68639969 6.67333316 0 12.1119997 5.6301332 12.1119997 12.68639969"/>
  <path d="M241.81466062 34.79946756c-7.25599982-.44213333-13.09066634-6.26773318-13.49466633-13.533333h31.73199921v-.34679999c0-12.46359969-7.9639998-20.76933281-18.9706662-20.76933281-11.63066637 0-19.52133284 8.51613312-19.52133284 19.59213284 0 10.45573307 8.16666646 19.66146617 19.31466618 19.66146617 8.0999998 0 14.53999964-4.49893322 18.00266622-12.80719967h-3.20533325c-2.30399994 4.8661332-7.25733315 8.22959979-12.99999968 8.22959979-.29999999 0-.56266665-.00773333-.8573333-.02653333M282.10265961 34.79946756c7.25733316-.44213333 13.09199968-6.26773318 13.49866633-13.533333h-31.73599921v-.34679999c0-12.46359969 7.9639998-20.76933281 18.97333287-20.76933281 11.6279997 0 19.5239995 8.51613312 19.5239995 19.59213284 0 10.45573307-8.16933312 19.66146617-19.31866618 19.66146617-8.0999998 0-14.5386663-4.49893322-18.00133288-12.80719967h3.20666659c2.30399994 4.8661332 7.25999982 8.22959979 12.99999967 8.22959979.29733333 0 .56266665-.00773333.85333331-.02653333" fill="#f2dd06"/>
</svg>