<?xml version="1.0" encoding="UTF-8" standalone="no"?>
<svg
   xmlns:dc="http://purl.org/dc/elements/1.1/"
   xmlns:cc="http://creativecommons.org/ns#"
   xmlns:rdf="http://www.w3.org/1999/02/22-rdf-syntax-ns#"
   xmlns:svg="http://www.w3.org/2000/svg"
   xmlns="http://www.w3.org/2000/svg"
   xmlns:sodipodi="http://sodipodi.sourceforge.net/DTD/sodipodi-0.dtd"
   xmlns:inkscape="http://www.inkscape.org/namespaces/inkscape"
   width="100"
   height="49.903484"
   version="1.1"
   id="svg14"
   sodipodi:docname="java-logo.svg"
   inkscape:version="0.92.2 5c3e80d, 2017-08-06">
  <metadata
     id="metadata20">
    <rdf:RDF>
      <cc:Work
         rdf:about="">
        <dc:format>image/svg+xml</dc:format>
        <dc:type
           rdf:resource="http://purl.org/dc/dcmitype/StillImage" />
        <dc:title></dc:title>
      </cc:Work>
    </rdf:RDF>
  </metadata>
  <defs
     id="defs18" />
  <sodipodi:namedview
     pagecolor="#ffffff"
     bordercolor="#666666"
     borderopacity="1"
     objecttolerance="10"
     gridtolerance="10"
     guidetolerance="10"
     inkscape:pageopacity="0"
     inkscape:pageshadow="2"
     inkscape:window-width="887"
     inkscape:window-height="586"
     id="namedview16"
     showgrid="false"
     inkscape:zoom="0.58913591"
     inkscape:cx="399.38391"
     inkscape:cy="185.50665"
     inkscape:window-x="0"
     inkscape:window-y="0"
     inkscape:window-maximized="0"
     inkscape:current-layer="svg14" />
  <path
     d="m 11.853436,38.59311 c 0,0 -1.9070251,1.109 1.357165,1.48427 3.954473,0.45113 5.975559,0.38644 10.333416,-0.43835 0,0 1.145722,0.71839 2.745804,1.34062 -9.769164,4.1869 -22.109544,-0.24252 -14.436385,-2.38654 m -1.19374,-5.46363 c 0,0 -2.1389133,1.58327 1.127698,1.92114 4.224292,0.4358 7.560308,0.47145 13.332898,-0.64011 0,0 0.798427,0.80946 2.053905,1.25212 C 15.362695,39.11647 2.2068062,35.935 10.659696,33.12948"
     id="path2"
     inkscape:connector-curvature="0"
     style="fill:#5382a1;stroke-width:0.13450591" />
  <path
     d="m 20.723294,23.86135 c 2.407118,2.77136 -0.632447,5.26523 -0.632447,5.26523 0,0 6.112083,-3.15524 3.305079,-7.10635 -2.621655,-3.68465 -4.632114,-5.51541 6.2517,-11.82764 0,0 -17.083999,4.26679 -8.924332,13.66876"
     id="path4"
     inkscape:connector-curvature="0"
     style="fill:#e76f00;stroke-width:0.13450591" />
  <path
     d="m 33.643797,42.63434 c 0,0 1.411236,1.1628 -1.554216,2.06238 -5.638891,1.70822 -23.4696674,2.22405 -28.4229821,0.0681 -1.7805893,-0.77462 1.55852,-1.84959 2.6088766,-2.07516 1.0954162,-0.23754 1.7214067,-0.19329 1.7214067,-0.19329 -1.980196,-1.39496 -12.799179,2.73908 -5.495508,3.923 19.9181738,3.23016 36.3089298,-1.45454 31.1424228,-3.78499 m -20.8733,-15.16581 c 0,0 -9.0698681,2.15424 -3.2118667,2.93653 2.4734297,0.33115 7.4041467,0.25623 11.9969857,-0.12859 3.753522,-0.31662 7.522512,-0.98983 7.522512,-0.98983 0,0 -1.323538,0.56681 -2.281085,1.22064 -9.210293,2.42232 -27.00286933,1.29543 -21.8806152,-1.1823 4.3318974,-2.09399 7.8540692,-1.85645 7.8540692,-1.85645 m 16.270239,9.09448 c 9.362687,-4.86521 5.033749,-9.54064 2.012208,-8.91075 -0.740589,0.15415 -1.070801,0.28771 -1.070801,0.28771 0,0 0.27493,-0.43069 0.800041,-0.61711 5.977577,-2.10152 10.57472,6.19816 -1.929622,9.48535 0,1.4e-4 0.144863,-0.12939 0.188174,-0.2452"
     id="path6"
     inkscape:connector-curvature="0"
     style="fill:#5382a1;stroke-width:0.13450591" />
  <path
     d="m 23.395926,0 c 0,0 5.185203,5.18695 -4.917939,13.16302 -8.101695,6.39817 -1.847439,10.04624 -0.0034,14.21431 C 13.745494,23.11054 10.274972,19.35446 12.60327,15.85865 16.020661,10.72711 25.487994,8.23916 23.395889,0"
     id="path8"
     inkscape:connector-curvature="0"
     style="fill:#e76f00;stroke-width:0.13450591" />
  <path
     d="m 13.690518,49.74661 c 8.987012,0.57528 22.787588,-0.31919 23.114437,-4.57159 0,0 -0.628277,1.61205 -7.427282,2.89228 -7.670603,1.44352 -17.131211,1.27498 -22.7423942,0.34985 1.345e-4,-1.3e-4 1.1486805,0.95069 7.0552392,1.32946"
     id="path10"
     inkscape:connector-curvature="0"
     style="fill:#5382a1;stroke-width:0.13450591" />
  <path
     d="m 64.076837,29.20821 c -1.286214,1.27599 -2.644668,1.99229 -3.863743,1.99229 -1.740051,0 -2.680172,-1.19337 -2.680172,-3.10747 0,-2.07048 1.007259,-3.58431 5.048331,-3.58431 h 1.495378 v 4.69949 m 3.54928,4.57998 V 19.61108 c 0,-3.62165 -1.805964,-6.01143 -6.160274,-6.01143 -2.54202,0 -4.768764,0.71794 -6.578605,1.63356 l 0.522404,2.50951 c 1.424977,-0.5982 3.269508,-1.15509 5.079961,-1.15509 2.50835,0 3.58744,1.15509 3.58744,3.54323 v 1.7918 h -1.251931 c -6.094362,0 -8.843507,2.70579 -8.843507,6.76717 0,3.50495 1.811677,5.49724 5.222805,5.49724 2.192664,0 3.829459,-1.03536 5.359528,-2.55058 l 0.277731,2.15194 h 2.784448 z m 11.844673,0 H 75.044035 L 69.716748,13.95862 h 3.865579 l 3.305625,12.18343 0.734834,3.66412 c 1.672302,-5.29768 2.855055,-10.67239 3.446636,-15.84755 h 3.760281 c -1.007463,6.5298 -2.820365,13.69702 -5.359119,19.82957 m 16.98075,-4.57998 c -1.288664,1.27599 -2.649564,1.99229 -3.868639,1.99229 -1.736991,0 -2.679561,-1.19337 -2.679561,-3.10747 0,-2.07048 1.009706,-3.58431 5.050371,-3.58431 h 1.497829 v 4.69949 M 100,33.78819 V 19.61108 c 0,-3.62165 -1.810452,-6.01143 -6.159662,-6.01143 -2.543857,0 -4.771417,0.71794 -6.580442,1.63356 l 0.521587,2.50951 c 1.42559,-0.5982 3.27359,-1.15509 5.082614,-1.15509 2.506515,0 3.587237,1.15509 3.587237,3.54323 v 1.7918 h -1.253972 c -6.096199,0 -8.84412,2.70579 -8.84412,6.76717 0,3.50495 1.810249,5.49724 5.220765,5.49724 2.193889,0 3.830072,-1.03536 5.362792,-2.55058 l 0.278753,2.15194 H 100 Z m -49.910095,3.36748 c -1.01175,1.68958 -2.645892,3.02625 -4.434917,3.78247 l -1.752295,-2.3585 c 1.361717,-0.79916 2.529574,-2.08985 3.072179,-3.29209 0.469346,-1.0692 0.663615,-2.44719 0.663615,-5.74255 V 6.90647 h 3.770688 v 22.32834 c -1.34e-4,4.40564 -0.308136,6.18531 -1.31927,7.92086"
     id="path12"
     inkscape:connector-curvature="0"
     style="fill:#5382a1;stroke-width:0.21823895" />
</svg>
