<svg xmlns="http://www.w3.org/2000/svg" viewBox="0 0 160 50.579152" height="50.579151" width="160">
  <defs>
    <clipPath id="a">
      <path d="M500 500v1210h1640V500z"/>
    </clipPath>
  </defs>
  <path d="M11.80050206 14.37529053h-1.35513515V6.58301245c0-.61467182.03741313-1.36447877.11297297-2.24942087h-.03227799c-.12911197.52355213-.24494209.8984556-.34687259 1.12471044l-3.94428576 8.91698851h-.66135136L1.62131276 5.52316688c-.10783784-.23706564-.22335908-.63359074-.3468726-1.1895753h-.03227798c.04297297.46447877.06455598 1.21930503.06455598 2.2660232v7.77567575H0V2.7722016h1.790695l3.54895757 8.09150588c.26876448.61505792.44355213 1.0791506.5242471 1.39150581h.05656372c.26861004-.74401545.4542471-1.21891893.55637066-1.42393824l3.62166027-8.05907345h1.70200774v11.60308893M15.56544419 14.37529053h-1.32285716V6.08957616h1.32285716v8.28571437m.22590734-11.25521248c0 .24826255-.0861004.45444016-.25818534.61891893-.17223938.16486487-.37644788.24671815-.61293437.24671815-.24208494 0-.44660232-.07953668-.6130888-.23861004-.16667954-.15907336-.25007723-.36795367-.25007723-.62702704 0-.23204633.0818919-.43320463.24598456-.6027027.16393823-.17027028.36965251-.25521236.61718147-.25521236.24718147 0 .45424711.08378378.6210811.25096525.16648648.16718147.2500386.36949807.2500386.60694981M23.39613925 13.99536775c-.64015444.388417-1.3953668.58223939-2.26679539.58223939-.75289576 0-1.42895754-.17374518-2.0283784-.52162163-.59980696-.34787645-1.066139-.84015445-1.39945947-1.476834-.33362935-.63629344-.50011584-1.35135136-.50011584-2.14440156 0-1.36988419.39119692-2.4706564 1.17351353-3.30115834.78247105-.83050194 1.82432434-1.24633206 3.12548266-1.24633206.72046333 0 1.35791507.14054054 1.91196913.42084943v1.35945947c-.61853283-.43166024-1.27451739-.64749035-1.96833979-.64749035-.85482626 0-1.55019307.3061776-2.0849421.91853283-.5353282.61235521-.80258689 1.40386101-.80258689 2.3749035 0 .96563707.25397684 1.72895754.76243244 2.28996141.50810812.56100387 1.1895753.84131275 2.04440157.84131275.72046333 0 1.39806951-.23706564 2.03281855-.71196912v1.26254828M29.29034781 7.43281941c-.23667954-.17799228-.57258688-.26718147-1.00810812-.26718147-.58648649 0-1.06216217.27683398-1.42779924.82934364-.36563707.55328186-.54826255 1.27220079-.54826255 2.15675678v4.22355217h-1.32277994V6.08957616h1.32277994v1.70733592h.03204633c.18262548-.57142858.46486487-1.02355213.84710425-1.35521237.38146719-.33166023.81969113-.4976834 1.31467183-.4976834.34401545 0 .60772202.03783784.7903475.11312741v1.3756757M36.24980735 10.24864956c0-1.04092665-.22972973-1.83938226-.6895753-2.39498072-.45984556-.55559846-1.11737453-.83359074-1.9722008-.83359074-.84980695 0-1.52162163.28494208-2.01660233.85366796-.4945946.56949808-.74208495 1.37142859-.74208495 2.40733593 0 .9926641.24903475 1.7679537.74633205 2.32625486.4972973.55830116 1.16833978.83745174 2.01235524.83745174.86023167 0 1.51891893-.27490348 1.9760618-.82509653.45714286-.55019306.68571429-1.34054056.68571429-2.3710425m1.35521237-.04864865c0 1.31660233-.37258688 2.3752896-1.11698843 3.17606181-.74517375.80115831-1.74362936 1.20154442-2.99652513 1.20154442-1.22123553 0-2.19536682-.3895753-2.92393826-1.16911198-.72895753-.7795367-1.0930502-1.80540543-1.0930502-3.07876452 0-1.37027028.37374518-2.45289578 1.12123553-3.24903478.74710426-.7953668 1.7772201-1.1934363 3.08918923-1.1934363 1.22586873 0 2.1857143.38455598 2.8795367 1.15328186.6934363.76833977 1.04054056 1.82200774 1.04054056 3.1594595M43.74942133 12.1583021c0 .71776062-.27567568 1.3-.82664094 1.74787646-.55135135.44787645-1.2837838.67142858-2.19806952.67142858-.77992279 0-1.46293438-.16718147-2.04864867-.50154441v-1.42432434c.65019306.52895754 1.36563708.7930502 2.14555987.7930502 1.04826256 0 1.572973-.38532819 1.572973-1.15714287 0-.31235521-.10270271-.56756757-.30694982-.76447877-.2042471-.1969112-.66911198-.46216217-1.39536681-.7972973-.73127414-.31235522-1.24749036-.64826256-1.54864867-1.00733593-.3011583-.35830116-.45135135-.83436294-.45135135-1.42779924 0-.6853282.27413128-1.25675677.82239383-1.71544403.54864865-.45830117 1.24478766-.6880309 2.08918921-.6880309.65057916 0 1.23938225.12972973 1.76640929.388417v1.33513514c-.53783785-.3934363-1.16138998-.5907336-1.8714286-.5907336-.43552123 0-.78610039.10810812-1.05250966.32355213-.26602317.21621622-.3992278.4938224-.3992278.83359075 0 .36718147.1019305.64864865.3065637.84555985.20424711.1972973.62625484.43050194 1.26640929.7.7849421.33436295 1.33590735.6853282 1.65366797 1.05212357.31698842.36679537.47567568.82818534.47567568 1.3833977M51.41814728 10.24864956c0-1.04092665-.22972973-1.83938226-.6891892-2.39498072-.46023166-.55559846-1.11737452-.83359074-1.97220079-.83359074-.84980696 0-1.52200774.28494208-2.01660234.85366796-.4949807.56949808-.74208495 1.37142859-.74208495 2.40733593 0 .9926641.24864866 1.7679537.74594596 2.32625486.4972973.55830116 1.16833978.83745174 2.01274133.83745174.85984557 0 1.51891894-.27490348 1.9760618-.82509653.45675676-.55019306.6853282-1.34054056.6853282-2.3710425m1.35521236-.04864865c0 1.31660233-.37258687 2.3752896-1.11698843 3.17606181-.74478765.80115831-1.74362936 1.20154442-2.99652512 1.20154442-1.22084944 0-2.19536682-.3895753-2.92393826-1.16911198-.72895754-.7795367-1.0930502-1.80540543-1.0930502-3.07876452 0-1.37027028.37374517-2.45289578 1.12123553-3.24903478.74710425-.7953668 1.7772201-1.1934363 3.08918922-1.1934363 1.22586874 0 2.18610041.38455598 2.87953671 1.15328186.6938224.76833977 1.04054055 1.82200774 1.04054055 3.1594595M58.19227863 3.273746c-.25791506-.14555984-.55135136-.21853281-.87915059-.21853281-.92509653 0-1.3872587.58571429-1.3872587 1.75598457v1.2783784h1.93590736v1.12471043h-1.93590736v7.16100394H54.6027033V7.2142866h-1.40308882V6.08957616h1.40308882V4.7463329c0-.84131275.24749035-1.52123554.74208495-2.03899616.4949807-.51776063 1.12393824-.77683399 1.88764481-.77683399.40347491 0 .72316603.04864865.95984557.14555985V3.273746M62.9980702 14.29459555c-.31737453.17799228-.73166025.26679537-1.24247107.26679537-1.44131275 0-2.16177608-.81428572-2.16177608-2.44324327V7.2142866H58.174518V6.08957616h1.41930504V4.0667962l1.32277994-.42895753v2.45173748h2.0814672v1.12471043H60.916603v4.67683403c0 .55598456.0942085.95096526.28262548 1.1857143.1880309.23474904.50270271.35173746.94324326.35173746.32818533 0 .61351352-.0888031.85559846-.26679537v1.13281854M19.25930523 22.28803193c0-1.53745175-.90324325-2.30617763-2.71007725-2.30617763h-1.58903477v4.75791511h1.41965253c.93011584 0 1.64243245-.21158301 2.13745176-.63513514.49467182-.42355213.74200773-1.02895754.74200773-1.81660234m1.41984558-.07297297c0 1.12200773-.3861004 2.02702705-1.15752897 2.71467184-.77177607.6880309-1.78424713 1.03204635-3.03694984 1.03204635H14.9601932v4.39355217h-1.35513515V18.75212456h3.17810815c1.23656372 0 2.19501933.3034749 2.87552126.91003862.6799228.60694981 1.02046334 1.45791507 1.02046334 2.55289578M26.25907365 26.16370765l-2.00038612.28339769c-.6830116.0969112-1.16177608.26023166-1.43590736.4895753-.27413127.22934362-.41158301.6-.41158301 1.11274132 0 .41544402.14787645.74826255.44401545.9992278.2953668.25096526.67451738.376139 1.13706565.376139.65598456 0 1.1980695-.23173745 1.62548264-.69583012.42741313-.46370656.64131275-1.04401545.64131275-1.73976835v-.82548264m1.32239383 4.19162167h-1.32239383v-1.29471044h-.03243243c-.57567569.99818534-1.42239384 1.49694982-2.54092667 1.49694982-.7957529 0-1.43320465-.21702703-1.91158304-.65123553-.47876448-.43405405-.71776062-1.01830116-.71776062-1.7518919 0-1.54247107.90849422-2.44362938 2.72625485-2.70270274l2.4764479-.34787645c0-1.40231662-.56756757-2.10386103-1.70231661-2.10386103-.9949807 0-1.89266412.33706564-2.69382243 1.01158303V22.6521246c.24208495-.18339768.65598457-.36023166 1.24208496-.53011584.5861004-.16988417 1.10772202-.25482625 1.56486488-.25482625 1.94092666 0 2.91158304 1.03320464 2.91158304 3.09922783v5.38891898M33.96834014 23.41274237c-.23667954-.17799228-.57258688-.26718147-1.00810812-.26718147-.58648649 0-1.06216217.27683398-1.42779924.82934364-.36602317.55328186-.54864866 1.27181468-.54864866 2.15637068v4.2240541H29.6613903v-8.2858302h1.32239383v1.70733592h.03243244c.18262548-.57142858.46486487-1.02355214.84710425-1.35559847.38146719-.33166024.81969113-.4972973 1.31467183-.4972973.34362935 0 .60733592.03783783.7903475.1131274v1.3756757M40.13204677 30.27432546c-.31737452.17814672-.73127414.26710425-1.24208495.26710425-1.44092666 0-2.16138999-.81440156-2.16138999-2.4437452v-4.90347496H35.3088807V22.0694991h1.41969113v-2.02277994l1.32277994-.42895754v2.45173748h2.080695v1.12471044h-2.080695v4.67683403c0 .55598456.0938224.95096526.28223939 1.1857143.18803089.23436293.5027027.3518919.94362935.3518919.32779923 0 .61312742-.08895754.85482626-.26694982v1.1326255M48.83745227 30.35532932h-1.32277993v-4.7255985c0-1.75289578-.64015445-2.62972977-1.91969114-2.62972977-.65096526 0-1.19536681.24671815-1.63359076.74015445-.43822394.4938224-.65752896 1.12393824-.65752896 1.88957531v4.7255985h-1.32239384v-8.2858302h1.32239384v1.3756757h.03243243c.61814673-1.05212357 1.52162164-1.5779923 2.71042474-1.5779923.90849422 0 1.60077222.2969112 2.076834.8899614.47567568.5938224.71389962 1.43513515.71389962 2.52471045v5.07347496M56.13552185 25.4193061c-.0108108-.76563708-.1949807-1.36061778-.55250966-1.7841699-.35791506-.42316603-.86216217-.63513515-1.51235522-.63513515-.61312742 0-1.13745175.22123553-1.572973.66370657-.43552124.44208495-.70965251 1.02741314-.82277993 1.75559848h4.46061781m1.35482627 1.12471044h-5.8316603c.02162163.93359074.26756758 1.64671816.73822395 2.14054056.47027028.4934363 1.12239384.74023167 1.95598458.74023167.93552125 0 1.7876448-.30200773 2.55675679-.90625484v1.2380309c-.72046333.53405406-1.6776062.80100387-2.8714286.80100387-1.1776062 0-2.09691123-.38142857-2.7583012-1.14486487-.66138996-.76328187-.992278-1.81926643-.992278-3.1679151 0-.82007723.16525097-1.56833978.496139-2.24555987.33050194-.67683398.7864865-1.20154441 1.36718148-1.57374519.580695-.37220077 1.22586874-.55830116 1.93590736-.55830116 1.06949808 0 1.90463323.34942085 2.50424713 1.04787646.59961391.6988417.89922781 1.6764479.89922781 2.93320466v.6957529M63.32085012 23.41274237c-.23745174-.17799228-.57297298-.26718147-1.00849422-.26718147-.5864865 0-1.06216218.27683398-1.42779925.82934364-.36563707.55328186-.54864865 1.27181468-.54864865 2.15637068v4.2240541h-1.32239384v-8.2858302H60.335908v1.70733592h.03243243c.18262549-.57142858.46525097-1.02355214.84671816-1.35559847.38185328-.33166024.82007723-.4972973 1.31505793-.4972973.34401545 0 .60772201.03783783.7907336.1131274v1.3756757" fill="#0d0d0d"/>
  <path d="M35.2158305 44.79247233l-.25444015.71490349h-.01428572c-.04555984-.16756757-.12200772-.40513514-.24131274-.70706565l-1.36293438-3.42918922h-1.33204635v5.45216222h.8787645v-3.35169888c0-.2069112-.00463321-.45683398-.01312742-.74293437-.0046332-.1446332-.02084942-.2607722-.02509653-.34915058h.01930502c.04478765.2054054.0911197.36196911.12471043.46664093l1.63397685 3.9771429h.61467182l1.62162164-4.01305024c.03667954-.0915444.07606178-.27011583.11158301-.4307336h.01930502c-.02123552.39710426-.03899614.76011584-.04131274.97911199v3.46467185h.93706565v-5.45216222h-1.2795367l-1.3969112 3.42135138M38.7749039 46.82312873h.91621623v-3.90702707h-.91621623v3.90702707M39.24247147 41.2555997c-.15096525 0-.28223938.0518533-.3903475.15351352-.1084942.102278-.16332046.23135136-.16332046.3833977 0 .1496139.05405406.27598455.16138997.37583011.1069498.0992278.23899614.14945946.392278.14945946.15328185 0 .28610038-.05023166.3938224-.14945946.1084942-.09984556.16370656-.22621622.16370656-.37583012 0-.14675676-.05366796-.2742085-.15945946-.37903475-.10540541-.10478765-.23976835-.15787645-.3980695-.15787645M42.9343634 42.87691247c-.17606177-.0365251-.34826255-.05505792-.51196911-.05505792-.42046333 0-.7953668.09050193-1.11428573.26876448-.31930502.17857143-.56679537.43359074-.73436294.7580309-.16756757.32351352-.25250966.7011583-.25250966 1.12254828 0 .36934363.08223939.70779923.24517375 1.00656371.16293437.2992278.3934363.53316603.6853282.69544403.2918919.16196911.62857143.24416988 1.0015444.24416988.43552125 0 .80733592-.0873359 1.10501933-.25957529l.0123552-.0069112v-.8418919l-.03861003.02822394c-.13513514.0984556-.2861004.17733591-.44787645.23389962-.16216217.05671814-.30965252.08552123-.43938225.08552123-.35945946 0-.64787645-.11297297-.85752897-.3354054-.2096525-.22277993-.31621621-.53528959-.31621621-.92891893 0-.39621622.1108108-.71714287.32972973-.9537838.21814672-.23602317.50733591-.3557915.85907337-.3557915.3015444 0 .5949807.10239382.87220078.30436293l.03861004.02803089v-.8872587l-.01235521-.0069498c-.10463321-.0588031-.24710425-.10706564-.42393823-.14401545M45.95289626 42.84826382c-.23011583 0-.43629344.07416988-.61274132.2203475-.15482626.12833976-.26640927.30432432-.35250966.52393822h-.0096525v-.67644788h-.91583013v3.90702707h.91583012v-1.99868728c0-.3399614.07722008-.61895754.22857143-.82980696.14942085-.2084556.34903476-.31401545.592278-.31401545.08262549 0 .17528958.01374517.27567568.04057915.0992278.02683398.17104247.05610039.21351352.08671815l.03861004.02791506v-.9264865l-.01505792-.00637066c-.08494208-.03633204-.2057915-.05471042-.35868726-.05471042M49.16949861 45.83027157c-.17181467.21656371-.43088804.32637066-.76988418.32637066-.33629344 0-.6019305-.11189189-.7888031-.33254826-.18803089-.22169885-.28339768-.5376834-.28339768-.93945947 0-.41401545.0953668-.738417.28339768-.96389963.1872587-.22428571.45019306-.33799228.7814672-.33799228.32162162 0 .57760618.10857143.76100386.32320464.18416989.2153668.27799229.53706564.27799229.95606178 0 .424556-.088417.75015445-.26177607.96826256m-.72818534-3.00841702c-.64247105 0-1.15250966.1888417-1.51621623.56119692-.36332047.37223939-.54749035.88756758-.54749035 1.5318919 0 .61173747.17992278 1.10355214.53436294 1.46204636.35482626.3584942.83783785.5403861 1.43552125.5403861.62239383 0 1.12239383-.19138996 1.4857143-.56888031.36332047-.37706564.54787646-.8872973.54787646-1.51664095 0-.6215444-.17297298-1.11714286-.51389962-1.47308881-.34092665-.35621622-.82084943-.5369112-1.42586875-.5369112M52.41274189 44.53050322c-.2888031-.11644788-.47413128-.21297298-.54980696-.28687259-.07374517-.07146718-.1111969-.1727027-.1111969-.30088803 0-.11370657.04633204-.20467182.14092663-.278417.0953668-.0742085.22818533-.11173745.3945946-.11173745.15482626 0 .31274132.02444016.46988418.07239382.15714286.04795367.2949807.11235522.41042471.19092665l.03783784.0257915v-.8495753l-.01467181-.00633204c-.10617761-.04555985-.24633205-.08474904-.41621622-.11644788-.16988418-.0315058-.32355213-.04749035-.45714287-.04749035-.43706564 0-.7980695.11220078-1.07451738.33316603-.27760618.22247104-.41853283.51397684-.41853283.8669112 0 .18324325.03050193.34629345.0903475.48413129.06023166.13891892.15328185.26108108.27760618.3634749.12239382.1015058.31196911.20799228.56332046.31640927.21119692.08702703.36872588.1607722.46872588.21915058.0976834.0568726.16756757.11416989.2065637.17.03822395.0545946.05752897.12907337.05752897.22138997 0 .26274132-.1957529.39030888-.59922781.39030888-.14980695 0-.32007722-.03135135-.50694981-.09320463-.1872587-.0615444-.36177607-.15050193-.51930503-.26409267l-.03861004-.027722v.89586873l.01389962.00648649c.13166023.0607722.2969112.11204633.4918919.15247104s.37181467.0607722.52509653.0607722c.47451738 0 .85598456-.1126641 1.13436294-.33482626.28030889-.2238224.42239383-.522278.42239383-.88772201 0-.26332047-.07644788-.48926642-.22702703-.67115831-.14980695-.18065637-.40965251-.34671815-.77220078-.49316603M56.60386163 45.83027157c-.17181468.21656371-.43088804.32637066-.76949808.32637066-.33667954 0-.60231661-.11189189-.7891892-.33254826-.18803089-.22169885-.28339769-.5376834-.28339769-.93945947 0-.41401545.0953668-.738417.2833977-.96389963.18725868-.22428571.44980695-.33799228.78146718-.33799228.32123553 0 .57760618.10857143.76100387.32320464.18416989.2153668.27760618.53706564.27760618.95606178 0 .424556-.08803089.75015445-.26138996.96826256m-.72857144-3.00841702c-.64208495 0-1.15212356.1888417-1.51583013.56119692-.36332047.37223939-.54787646.88756758-.54787646 1.5318919 0 .61173747.17992279 1.10355214.53474904 1.46204636.35482626.3584942.83783785.5403861 1.43513516.5403861.62239382 0 1.12239383-.19138996 1.4861004-.56888031.36332046-.37706564.54749035-.8872973.54749035-1.51664095 0-.6215444-.17258687-1.11714286-.51351352-1.47308881-.34131274-.35621622-.82123553-.5369112-1.42625484-.5369112M62.70000069 43.66552252v-.74942086h-.92818534v-1.16536681l-.03088803.0096525-.87142858.26752897-.01737452.00528958v.88289576h-1.37451739v-.49181468c0-.22911197.05135135-.40436294.15212356-.52108109.1-.11567567.24285714-.17436293.42471043-.17436293.13127413 0 .26679536.03108108.4030888.09216216l.03436294.01525097v-.78942086l-.01621622-.00571429c-.12741313-.04602316-.3-.06938224-.51467182-.06938224-.27104247 0-.51698842.05942085-.73127414.176139-.21467182.11749035-.38339769.28474904-.5015444.49772201-.11814673.21235522-.17799229.45787646-.17799229.7295367v.54096525h-.64594595v.74942086h.64594595v3.1576062h.92741314v-3.1576062h1.3745174v2.00667955c0 .82621623.38880308 1.24517376 1.15521236 1.24517376.12586873 0 .25830116-.01478764.3934363-.04389961.13822394-.02969112.23204633-.0595753.28687259-.09123552l.01235521-.00706564v-.75667955l-.03783784.02517375c-.04980695.03378378-.11235521.06123552-.18610039.08162162-.07413127.02081081-.13590733.03119691-.18301158.03119691-.17992278 0-.31274132-.04841699-.3953668-.14416988-.08301159-.09667954-.12586873-.26544402-.12586873-.50208495v-1.84471044h.92818534" fill="#777471"/>
  <path d="M20.22278015 43.8735148h4.30969116v-4.32343635h-4.30969116z" fill="#e44c22"/>
  <path d="M24.98108136 43.87336036h4.30953672V39.549924h-4.30953672z" fill="#6dbb29" fill-opacity=".95686275"/>
  <path d="M20.22278015 48.64864998h4.30953672v-4.32343634h-4.30953672z" fill="#599dd5"/>
  <path d="M24.98108136 48.64864998h4.30953672v-4.32343634h-4.30953672z" fill="#f3bf00"/>
  <path d="M69.88417065.00000103v50.57915114" fill="none" stroke="#000" stroke-width=".15444" stroke-miterlimit="10"/>
  <path d="M81.02085031 13.5266421c-.43436294.24749036-.91698842.37104248-1.44787646.37104248-.40424711 0-.76525098-.0915058-1.0830116-.27451738-.31583012-.18262548-.55907336-.44131274-.73011583-.77490348-.17065638-.33397684-.25637066-.71081082-.25637066-1.13127414 0-.66370657.2104247-1.21158303.63050193-1.64401547.42046333-.43243243.95830117-.64864865 1.61389964-.64864865.47065637 0 .86563707.07644788 1.1853282.22934363v.56100387c-.34980696-.22316603-.76409268-.33474904-1.24285716-.33474904-.31544402 0-.60000001.07644788-.85328187.22934363-.25173745.15057915-.44864865.36486487-.5915058.64247105-.14054054.27760618-.2111969.5861004-.2111969.92586874 0 .54517375.14285714.97528958.42857143 1.2911197.28764479.31389962.67876448.47065638 1.17335908.47065638.33590734 0 .62857144-.06833977.87760619-.2050193v-1.20965253h-.94710426v-.45868727h1.45405407v1.96061779M84.7640936 12.26602433c0 .4903475-.13976834.8857143-.41930503 1.1853282-.27760618.2976834-.65057916.44633205-1.11930503.44633205-.45637066 0-.82123553-.14478764-1.0949807-.43436294-.27142858-.2915058-.40694982-.67451738-.40694982-1.14903476 0-.51081082.13938224-.91389962.41930503-1.20965252.27915058-.2976834.66447877-.44633205 1.15521236-.44633205.45830117 0 .81737453.14362934 1.076834.43127413.25945946.2853282.38918919.67760619.38918919 1.1764479m-.50694982.01814671c0-.3880309-.08648648-.6861004-.25945946-.8930502-.17104247-.20694981-.41621622-.31081082-.73590734-.31081082-.31776062 0-.56911198.10694981-.75405406.32007723-.1849421.21081081-.27760619.50965251-.27760619.8957529 0 .36988418.0926641.65945947.27760619.86872588.18687258.20694981.43822394.31081082.75405406.31081082.32162162 0 .56795367-.1027027.73899614-.30772202.17104248-.2054054.25637066-.4996139.25637066-.88378379M85.52934457 13.822395h.49469113V9.2494992h-.49469113zM89.63668052 13.822395h-.4949807v-.52471042h-.01196911c-.22934363.4-.58301159.6-1.06177607.6-.3899614 0-.70077221-.13976834-.93204635-.41930502-.23127413-.28146719-.34671815-.65637067-.34671815-1.12509654 0-.51081082.12741313-.92084943.3830116-1.23050194.25714285-.30965252.6011583-.46447877 1.03166023-.46447877.42200773 0 .73088804.16679537.92586874.5007722h.01196911V9.24942198h.4949807v4.57297303m-.4949807-1.39652512v-.45559846c0-.25521235-.08532818-.46756757-.25637066-.63629344-.16872587-.16911197-.37490348-.25366796-.61814672-.25366796-.2976834 0-.53397684.11081082-.70888032.33204634-.17490348.21891892-.26254826.52355213-.26254826.91389962 0 .35405406.08223938.63436294.24749035.84169885.16486486.20501931.38687259.30772202.66640927.30772202.27142857 0 .4949807-.0988417.66988418-.2957529.17490347-.1972973.26216216-.44826256.26216216-.75405407M95.07258792 13.64440273c-.31776062.16911197-.71505792.25328185-1.1915058.25328185-.40000001 0-.75521237-.08918919-1.06486488-.26833977-.30965252-.17915058-.54903476-.43243244-.71776063-.76023167-.16718147-.32972973-.25057915-.70579151-.25057915-1.12818534 0-.44015444.0938224-.83745175.28069498-1.1915058.1868726-.35559846.44942086-.63204634.7872587-.82934364s.71698842-.2957529 1.13706565-.2957529c.40849421 0 .74826255.05945946 1.01969113.17799228v.53706564c-.30965251-.17297297-.65173746-.25945946-1.02548264-.25945946-.32586873 0-.61544402.07528958-.86872588.22625483-.25366795.15096525-.45057915.36602317-.5915058.64555985-.13861003.27953668-.2081081.5992278-.2081081.95907337 0 .34208495.06525096.64440155.196139.90810812.13088803.26332047.31583011.46640927.55521235.60926641.23938225.14054055.51274132.21119692.82046333.21119692.43436294 0 .80810812-.0965251 1.12200774-.2895753v.4945946M95.88919024 13.822395h.49469113V9.2494992h-.49469113zM100.1895764 12.26602433c0 .4903475-.13976835.8857143-.41930503 1.1853282-.27760618.2976834-.65057916.44633205-1.11930503.44633205-.45637067 0-.82123553-.14478764-1.09498071-.43436294-.27142858-.2915058-.40694981-.67451738-.40694981-1.14903476 0-.51081082.13938224-.91389962.41930502-1.20965252.27915058-.2976834.66447877-.44633205 1.15521237-.44633205.45830116 0 .81737453.14362934 1.07683399.43127413.25945946.2853282.3891892.67760619.3891892 1.1764479m-.50694982.01814671c0-.3880309-.08648649-.6861004-.25945946-.8930502-.17104248-.20694981-.41621622-.31081082-.73590735-.31081082-.31776062 0-.56911197.10694981-.75405406.32007723-.18494209.21081081-.27760618.50965251-.27760618.8957529 0 .36988418.0926641.65945947.27760618.86872588.18687259.20694981.43822394.31081082.75405406.31081082.32162163 0 .56795368-.1027027.73899615-.30772202.17104247-.2054054.25637066-.4996139.25637066-.88378379M103.44942199 13.822395h-.4945946v-.48880309h-.01235522c-.2050193.37606178-.52162162.56409267-.94980696.56409267-.73822394 0-1.10733591-.43938224-1.10733591-1.31814673v-1.84594597h.4949807v1.76756759c0 .64980696.24903475.97451739.74787645.97451739.24517375 0 .44440155-.0888031.5972973-.26563707.15289576-.17915058.22934364-.41119692.22934364-.6969112v-1.7795367h.4945946V13.822395M107.05753014 13.822395h-.4949807v-.52471042h-.01196912c-.22934363.4-.58339769.6-1.06177607.6-.3903475 0-.7007722-.13976834-.93204634-.41930502-.23127414-.28146719-.34671815-.65637067-.34671815-1.12509654 0-.51081082.12741313-.92084943.38301158-1.23050194.25752896-.30965252.60115831-.46447877 1.03166025-.46447877.42200772 0 .73088804.16679537.92586873.5007722h.01196911V9.24942198h.4949807v4.57297303m-.4949807-1.39652512v-.45559846c0-.25521235-.08532818-.46756757-.25637065-.63629344-.16872588-.16911197-.37490348-.25366796-.61814673-.25366796-.2976834 0-.53397684.11081082-.70888032.33204634-.17490347.21891892-.26254826.52355213-.26254826.91389962 0 .35405406.08262548.63436294.24749035.84169885.16486487.20501931.38687259.30772202.66640927.30772202.27142858 0 .4945946-.0988417.66988418-.2957529.17490348-.1972973.26216216-.44826256.26216216-.75405407M112.19768463 10.78803204c0 .41814672-.14478764.75598456-.43436294 1.01351352-.28725869.25521236-.66563707.38301159-1.13397684.38301159h-.57027028v1.63783786h-.50656371V9.49691233h1.188417c.46254827 0 .82046333.11351352 1.07374518.34092665.25559846.22509652.3830116.54169884.3830116.95019306m-.53088804.02702703c0-.57297298-.33783785-.85984557-1.01351353-.85984557h-.5942085v1.77374519h.53088804c.34787645 0 .61467182-.07837838.7992278-.23513514.1853282-.15907336.27760619-.38532819.27760619-.67876448M112.94556109 13.822395h.49469112V9.2494992h-.49469112zM116.62741441 13.822395h-.4945946v-.48262548h-.01235521c-.21505792.37220077-.53166024.55791506-.95019306.55791506-.2972973 0-.53552124-.08030888-.71467183-.24131274-.17876448-.16293437-.26833977-.38108109-.26833977-.65444016 0-.57490349.33976835-.91081082 1.01930503-1.00733592l.92625484-.12972973c0-.52316603-.21235521-.784556-.63667954-.784556-.37181468 0-.70772202.12586873-1.00733592.37722008v-.5069498c.09034749-.06795368.24517375-.13359074.46447877-.1957529.21930502-.06447877.41428572-.0965251.58532819-.0965251.72586873 0 1.0888031.38494209 1.0888031 1.15521236v2.00888034m-.4945946-1.56254828l-.74826256.1057915c-.25521235.03590734-.43436294.0972973-.53706564.18378379-.1023166.08455598-.15366795.22239382-.15366795.41312742 0 .15521235.05521235.27953668.16602316.37413127.11042471.0926641.25250966.13899615.42509653.13899615.24555985 0 .44749036-.0864865.60656372-.25945947.16061776-.17297297.24131274-.3891892.24131274-.64864865v-.30772201M118.9868739 13.79227918c-.11891892.06640926-.27335908.0996139-.46447877.0996139-.53899615 0-.80849422-.30386101-.80849422-.91119693v-1.82779924h-.53088804v-.41930503h.53088804v-.75405406l.4945946-.15984556v.91389962h.77837839v.41930503h-.7783784v1.74362936c0 .2069498.03513514.35482626.10579152.44324325.07027027.08648649.18803089.12972973.35289575.12972973.12239383 0 .22895753-.03320463.31969113-.0996139v.42239383M121.1683411 9.68378492c-.0965251-.05405405-.2061776-.08146718-.32895753-.08146718-.34555985 0-.51891893.21853282-.51891893.65482626v.47644788h.72393824v.41930503h-.72393824v2.6694981h-.4945946v-2.6694981h-.52471043v-.41930503h.52471043v-.5007722c0-.31351352.0926641-.56718148.27760618-.76023167.1849421-.1930502.42046333-.2895753.70579152-.2895753.15096525 0 .27065637.01814672.35907336.05444016v.44633205M124.37451874 12.26602433c0 .4903475-.13976834.8857143-.41891892 1.1853282-.27760618.2976834-.65057916.44633205-1.11930503.44633205-.45637066 0-.82162163-.14478764-1.09498071-.43436294-.27142857-.2915058-.40733591-.67451738-.40733591-1.14903476 0-.51081082.14015444-.91389962.41930502-1.20965252.27953669-.2976834.66486487-.44633205 1.15559847-.44633205.45830116 0 .81737453.14362934 1.07683399.43127413.25945946.2853282.3888031.67760619.3888031 1.1764479m-.50656372.01814671c0-.3880309-.08648649-.6861004-.25945946-.8930502-.17065637-.20694981-.41621622-.31081082-.73590735-.31081082-.31776062 0-.56911197.10694981-.75405406.32007723-.18532819.21081081-.27760618.50965251-.27760618.8957529 0 .36988418.092278.65945947.27760618.86872588.1868726.20694981.43822394.31081082.75405406.31081082.32162163 0 .56795368-.1027027.73899615-.30772202.17065637-.2054054.25637066-.4996139.25637066-.88378379M126.75096665 11.23436409c-.0888031-.06640927-.21428572-.0996139-.37722009-.0996139-.21891892 0-.3969112.1034749-.53397684.31081081-.13667953.20501931-.2050193.47258688-.2050193.80231661v1.5745174h-.4945946v-3.08880313h.4945946v.63629345h.0119691c.06833978-.21312742.17413128-.38108109.31698843-.50347491.14285714-.12471043.3065637-.1872587.4915058-.1872587.12857143 0 .22741313.01428572.2957529.04247105v.51274132M131.67567712 13.822395h-.4945946v-1.77374519c0-.34555985-.05328185-.5930502-.15984556-.74208495-.1046332-.15057915-.28146718-.22625483-.53088803-.22625483-.21119692 0-.3911197.0965251-.54015445.2895753-.14671815.1930502-.22007722.42355212-.22007722.6907336V13.822395h-.4945946v-1.83397686c0-.60540541-.23436294-.90810812-.70270271-.90810812-.21737452 0-.3965251.0918919-.53706565.27451738-.14054054.18108108-.21119691.41621622-.21119691.70579151v1.76177609h-.4945946v-3.08880313h.4945946v.4888031h.01196911c.21930502-.37606178.53822395-.56409267.95637067-.56409267.2011583 0 .38185329.05598455.54285715.16872587.16100386.11274131.27258687.27065637.33474904.47374518.22934363-.42857144.57142857-.64247105 1.02586873-.64247105.6795367 0 1.01930503.42007722 1.01930503 1.26061777v1.90347493M81.02085031 22.40695108c-.43436294.24749035-.91698842.37104248-1.44787646.37104248-.40424711 0-.76525098-.0915058-1.0830116-.27451738-.31583012-.18262548-.55907336-.44131274-.73011583-.77490348-.17065638-.33397684-.25637066-.71081082-.25637066-1.13127414 0-.66370658.2104247-1.21158303.63050193-1.64401547.42046333-.43243243.95830117-.64864865 1.61389964-.64864865.47065637 0 .86563707.07644787 1.1853282.22934363v.56100387c-.34980696-.22316603-.76409268-.33474904-1.24285716-.33474904-.31544402 0-.60000001.07644788-.85328187.22934363-.25173745.15057915-.44864865.36486487-.5915058.64247105-.14054054.27760618-.2111969.5861004-.2111969.92586874 0 .54517375.14285714.97528958.42857143 1.2911197.28764479.31389962.67876448.47065638 1.17335908.47065638.33590734 0 .62857144-.06833977.87760619-.20501931v-1.20965252h-.94710426v-.45868727h1.45405407v1.96061778M84.7640936 21.14633331c0 .4903475-.13976834.8857143-.41930503 1.1853282-.27760618.2976834-.65057916.44633205-1.11930503.44633205-.45637066 0-.82123553-.14478765-1.0949807-.43436294-.27142858-.2915058-.40694982-.67451738-.40694982-1.14903476 0-.51081082.13938224-.91389963.41930503-1.20965252.27915058-.2976834.66447877-.44633206 1.15521236-.44633206.45830117 0 .81737453.14362935 1.076834.43127414.25945946.28532819.38918919.67760619.38918919 1.17644789m-.50694982.01814672c0-.3880309-.08648648-.6861004-.25945946-.8930502-.17104247-.20694981-.41621622-.31081082-.73590734-.31081082-.31776062 0-.56911198.1069498-.75405406.32007722-.1849421.21081082-.27760619.50965252-.27760619.89575291 0 .36988417.0926641.65945947.27760619.86872588.18687258.2069498.43822394.31081081.75405406.31081081.32162162 0 .56795367-.1027027.73899614-.307722.17104248-.20540542.25637066-.49961391.25637066-.8837838M85.52934457 22.70270398h.49469113v-4.5728958h-.49469113zM89.63668052 22.70270398h-.4949807v-.52471043h-.01196911c-.22934363.4-.58301159.60000001-1.06177607.60000001-.3899614 0-.70077221-.13976834-.93204635-.41930502-.23127413-.28146719-.34671815-.65637067-.34671815-1.12509654 0-.51081082.12741313-.92084943.3830116-1.23050195.25714285-.3096525.6011583-.46447877 1.03166023-.46447877.42200773 0 .73088804.16679537.92586874.50077221h.01196911v-1.90965253h.4949807v4.57297302m-.4949807-1.3965251v-.45559847c0-.25521236-.08532818-.46756757-.25637066-.63629344-.16872587-.16911197-.37490348-.25366796-.61814672-.25366796-.2976834 0-.53397684.11081081-.70888032.33204634-.17490348.21891892-.26254826.52355213-.26254826.91389962 0 .35405406.08223938.63436294.24749035.84169885.16486486.2050193.38687259.30772201.66640927.30772201.27142857 0 .4949807-.0988417.66988418-.2957529.17490347-.1972973.26216216-.44826255.26216216-.75405406M95.47992383 22.70270398h-.56138997l-.45521236-1.20965252h-1.83706565l-.43127414 1.20965252h-.56100387l1.65289577-4.32548267h.52471043l1.66833979 4.32548267m-1.1857143-1.66795368l-.67876448-1.84015446c-.01583012-.04401545-.03899614-.14169885-.06911197-.2926641h-.01196912c-.01814672.12664093-.04054054.22432433-.06640926.2926641l-.67297298 1.84015446h1.49922781M98.89112078 21.06486613c0 .52277993-.12741313.93899615-.38301159 1.24864866-.25521236.30965251-.5972973.46447877-1.02548264.46447877-.4061776 0-.71505792-.17297298-.92625483-.51853282h-.01196911v1.86409268h-.4945946v-4.50965256h.4945946v.54285715h.0119691c.24362935-.41196912.59961391-.61814673 1.06795369-.61814673.38610039 0 .6938224.13667954.92316603.41003862.22895753.27335908.34362935.64555985.34362935 1.11621623m-.50656371-.0061776c0-.33359075-.07837838-.60038612-.23552124-.79922782-.15675676-.1992278-.37297298-.2988417-.64826256-.2988417-.28378378 0-.51389962.0988417-.6907336.2957529-.17722007.1972973-.26563706.44826255-.26563706.75405406v.43127414c0 .25945946.08455598.47683398.25328185.65173746.17104248.17490347.38108109.26254826.63050194.26254826.2976834 0 .53088804-.11467181.7-.34401544.17104248-.22934364.25637067-.54710426.25637067-.95328187M102.49266522 21.06486613c0 .52277993-.12779923.93899615-.38301159 1.24864866-.25521236.30965251-.5972973.46447877-1.02548263.46447877-.40617761 0-.71505793-.17297298-.92625484-.51853282h-.01196911v1.86409268h-.4945946v-4.50965256h.4945946v.54285715h.01196911c.24324325-.41196912.5992278-.61814673 1.06795368-.61814673.38610039 0 .6938224.13667954.92316603.41003862.22895753.27335908.34362935.64555985.34362935 1.11621623m-.50656371-.0061776c0-.33359075-.07837838-.60038612-.23552124-.79922782-.15675676-.1992278-.37297298-.2988417-.64826256-.2988417-.28378378 0-.51389962.0988417-.6907336.2957529-.17722007.1972973-.26563706.44826255-.26563706.75405406v.43127414c0 .25945946.08455598.47683398.25328185.65173746.17104248.17490347.38108109.26254826.63050194.26254826.2976834 0 .53088804-.11467181.7-.34401544.17065638-.22934364.25637067-.54710426.25637067-.95328187M103.25289689 22.70270398h.49469112v-4.5728958h-.49469112zM105.32702819 18.50695104c0 .092278-.03204634.16988417-.0965251.23204634-.06447877.06061776-.14092664.09073359-.22934363.09073359-.0903475 0-.16679537-.02934363-.22934364-.0876448-.06216216-.06023165-.09343629-.13861003-.09343629-.23513513 0-.08648649.03011583-.16100386.0907336-.22316602.06216215-.06447877.13976833-.0965251.23204633-.0965251.09266409 0 .16988417.03127413.23243243.0934363.06216216.06216216.0934363.13783783.0934363.22625482m-.08455599 4.19575294h-.4945946v-3.08880312h.4945946v3.08880312M108.32393942 22.56100514c-.23899615.14478765-.52162163.21698842-.84749036.21698842-.28146719 0-.53474904-.06409267-.76023167-.1930502-.22316603-.13050193-.3969112-.31467181-.52162163-.55173745-.12471042-.23745174-.18725869-.50386101-.18725869-.79961391 0-.51081082.14594595-.92084943.43745175-1.23050195.2938224-.3096525.68378379-.46447877 1.17027028-.46447877.26949807 0 .50810811.05212356.71505792.15675676v.50656372c-.23127413-.16061777-.47644788-.24131275-.73590734-.24131275-.31969113 0-.58030889.11467182-.7814672.34401545-.1988417.22741313-.2984556.52200773-.2984556.8837838 0 .36023166.0945946.64440154.2833977.85366796.19111969.2092664.44671814.31389961.76640927.31389961.26949807 0 .52277993-.08880309.75984557-.26563707v.47065638M111.25907458 22.70270398h-.4945946v-.48262548h-.01235521c-.21505792.37220077-.53166024.55791506-.94980696.55791506-.2976834 0-.53590734-.08030888-.71505792-.24131274-.17915058-.16293437-.26833977-.38108109-.26833977-.65444017 0-.57490348.33976834-.91081082 1.01930503-1.00733591l.92625483-.12972974c0-.52316602-.21235521-.78455599-.63667954-.78455599-.37181468 0-.70772202.12586873-1.00733592.37722008v-.50694981c.0903475-.06795367.24517375-.13359073.46447877-.1957529.21930502-.06447876.41428572-.0965251.5853282-.0965251.72586873 0 1.0888031.3849421 1.0888031 1.15521237v2.00888033m-.4945946-1.56254828l-.74826256.10579151c-.25521236.03590734-.43436294.0972973-.53667955.18378379-.1027027.08455598-.15405405.22239382-.15405405.41312741 0 .15521236.05521235.27953669.16602317.37413128.1104247.0926641.25212355.13899614.42509653.13899614.24555984 0 .44749035-.08648648.6065637-.25945946.16061777-.17297297.24131275-.3891892.24131275-.64864866v-.307722M113.61853407 22.67258815c-.11891892.06640927-.27335908.0996139-.46447877.0996139-.53899615 0-.80849422-.303861-.80849422-.91119692v-1.82779925h-.53088804v-.41930502h.53088804v-.75405406l.4945946-.15984556v.91389962h.77837839v.41930502h-.77837839v1.74362937c0 .2069498.03513514.35482626.1057915.44324325.07027028.08648648.1880309.12972973.35289577.12972973.12239382 0 .22934363-.03320464.31969112-.0996139v.42239382M114.85289702 18.50695104c0 .092278-.03204634.16988417-.0965251.23204634-.06447877.06061776-.14092664.09073359-.22934363.09073359-.0903475 0-.16679537-.02934363-.22934364-.0876448-.06216216-.06023165-.09343629-.13861003-.09343629-.23513513 0-.08648649.03011583-.16100386.0903475-.22316602.06254826-.06447877.14015443-.0965251.23243243-.0965251.0926641 0 .16988417.03127413.23243243.0934363.06216216.06216216.0934363.13783783.0934363.22625482m-.08455599 4.19575294h-.4945946v-3.08880312h.4945946v3.08880312M118.57413258 21.14633331c0 .4903475-.13976834.8857143-.41930503 1.1853282-.27760618.2976834-.65057915.44633205-1.11930503.44633205-.45637066 0-.82123553-.14478765-1.0949807-.43436294-.27142858-.2915058-.40694982-.67451738-.40694982-1.14903476 0-.51081082.13938225-.91389963.41930503-1.20965252.27915058-.2976834.66447877-.44633206 1.15521237-.44633206.45830116 0 .81737452.14362935 1.07683398.43127414.25945947.28532819.3891892.67760619.3891892 1.17644789m-.50694981.01814672c0-.3880309-.0864865-.6861004-.25945947-.8930502-.17104247-.20694981-.41621622-.31081082-.73590734-.31081082-.31776062 0-.56911198.1069498-.75405406.32007722-.18494209.21081082-.27760618.50965252-.27760618.89575291 0 .36988417.09266409.65945947.27760618.86872588.18687259.2069498.43822394.31081081.75405406.31081081.32162162 0 .56795367-.1027027.73899615-.307722.17104247-.20540542.25637066-.49961391.25637066-.8837838M121.90347624 22.70270398h-.4949807V20.9409279c0-.65328186-.23899614-.98030889-.71776062-.98030889-.24324325 0-.44749035.0926641-.61235522.27760618-.16293437.18301159-.24440155.41737452-.24440155.70270271v1.76177608h-.4945946v-3.08880312h.4945946v.51274132h.01235521c.23088804-.392278.56872588-.5880309 1.01351353-.5880309.33976834 0 .5980695.11042472.77490348.33166024.17915058.22123552.26872587.53513514.26872587.94131275v1.89111971M127.80733731 20.48571554c0 .44015445-.0965251.82934364-.28957529 1.16718148-.1930502.33590734-.46756757.5953668-.82355213.77837839-.35598456.18108108-.76332047.27142857-1.22162164.27142857H124.329345v-4.32548267h1.1945946c1.52200774 0 2.28339771.70270271 2.28339771 2.10849423m-.53088803.01196911c0-1.10810812-.588417-1.66216218-1.76486489-1.66216218h-.67567568v3.40849425h.64247105c.57104248 0 1.01351352-.15173745 1.32741314-.45521236.31351352-.30579151.47065638-.73590734.47065638-1.2911197M131.0517389 21.28185455h-2.18069501c.007722.34787645.0996139.61428572.27451738.7996139.17683397.18262549.42123552.27451738.73281854.27451738.34980695 0 .66872587-.11274131.95637066-.33783784v.46138997c-.26949807.1988417-.62741313.2984556-1.07413128.2984556-.44015445 0-.7841699-.14169884-1.03127414-.42509653-.24749035-.28571429-.37104248-.67992279-.37104248-1.1826255 0-.3057915.06100386-.58416989.18378379-.83552124.12471042-.25328186.2957529-.44942085.51274131-.5880309.21737452-.13899614.45868727-.2081081.72393824-.2081081.4003861 0 .71196912.13050193.93513514.3918919.22509653.25945945.33783784.62355212.33783784 1.0918919v.25945946m-.5065637-.41930503c-.00424711-.28532819-.07374518-.5065637-.20810812-.66332047-.13281853-.15907336-.32084942-.23861004-.56409267-.23861004-.22934363 0-.42548263.08262548-.588417.24749035-.16293436.16486487-.26525096.38301159-.307722.65444016h1.66833978M134.20309028 19.61390086l-1.23088805 3.08880312h-.48841699l-1.16756758-3.08880312h.54594595l.784556 2.24131277c.04208494.11853282.07644787.26332046.1023166.43436294h.01505791c.01814672-.14903475.05019306-.2888031.0965251-.41930503l.82355213-2.25637068h.51891893M137.1922795 21.28185455h-2.180695c.007722.34787645.0996139.61428572.27451737.7996139.17683398.18262549.42123553.27451738.73281855.27451738.34980695 0 .66872587-.11274131.95637066-.33783784v.46138997c-.26949807.1988417-.62741313.2984556-1.07413128.2984556-.44015445 0-.7841699-.14169884-1.03127415-.42509653-.24749035-.28571429-.37104247-.67992279-.37104247-1.1826255 0-.3057915.06138996-.58416989.18378378-.83552124.12471043-.25328186.2957529-.44942085.51274132-.5880309.21737452-.13899614.45868727-.2081081.72393823-.2081081.4003861 0 .71196912.13050193.93513515.3918919.22509653.25945945.33783784.62355212.33783784 1.0918919v.25945946m-.50656371-.41930503c-.0042471-.28532819-.07374518-.5065637-.20810811-.66332047-.13281854-.15907336-.32084943-.23861004-.56409267-.23861004-.22934363 0-.42548263.08262548-.588417.24749035-.16293436.16486487-.26525096.38301159-.307722.65444016h1.66833978M137.91544553 22.70270398h.49469113v-4.5728958h-.49469113zM142.21583168 21.14633331c0 .4903475-.13976834.8857143-.41930502 1.1853282-.27760618.2976834-.65057916.44633205-1.11930504.44633205-.45637066 0-.82123553-.14478765-1.0949807-.43436294-.27142858-.2915058-.40694981-.67451738-.40694981-1.14903476 0-.51081082.13938224-.91389963.41930502-1.20965252.27915058-.2976834.66447877-.44633206 1.15521237-.44633206.45830116 0 .81737452.14362935 1.07683399.43127414.25945946.28532819.38918919.67760619.38918919 1.17644789m-.50694981.01814672c0-.3880309-.08648649-.6861004-.25945946-.8930502-.17104248-.20694981-.41621623-.31081082-.73590735-.31081082-.31776062 0-.56911197.1069498-.75405406.32007722-.18494209.21081082-.27760618.50965252-.27760618.89575291 0 .36988417.0926641.65945947.27760618.86872588.18687259.2069498.43822394.31081081.75405406.31081081.32162163 0 .56795368-.1027027.73899615-.307722.17104247-.20540542.25637066-.49961391.25637066-.8837838M145.82239543 21.06486613c0 .52277993-.12741313.93899615-.3830116 1.24864866-.25521235.30965251-.5972973.46447877-1.02548263.46447877-.4061776 0-.71505792-.17297298-.92625483-.51853282h-.01196912v1.86409268h-.4945946v-4.50965256h.4945946v.54285715h.01196912c.24362934-.41196912.5996139-.61814673 1.06795368-.61814673.38610039 0 .6938224.13667954.92277993.41003862.22934363.27335908.34401545.64555985.34401545 1.11621623m-.50656372-.0061776c0-.33359075-.07837837-.60038612-.23552123-.79922782-.15675676-.1992278-.37297298-.2988417-.64826256-.2988417-.28378379 0-.51389962.0988417-.6907336.2957529-.17722008.1972973-.26563707.44826255-.26563707.75405406v.43127414c0 .25945946.08455599.47683398.25366796.65173746.17065637.17490347.38069499.26254826.63011584.26254826.2976834 0 .53088803-.11467181.7-.34401544.17065638-.22934364.25637066-.54710426.25637066-.95328187M150.96834143 22.70270398h-.4945946V20.9289588c0-.34555985-.05328185-.5930502-.15984556-.74208495-.1046332-.15057915-.28146719-.22625483-.53088804-.22625483-.21119691 0-.3911197.0965251-.54015445.2895753-.14671814.19305019-.22007722.42355212-.22007722.6907336v1.76177607h-.4945946v-1.83397685c0-.60540541-.23436293-.90810812-.7027027-.90810812-.21737453 0-.3965251.0918919-.53706565.27451738-.14054054.18108108-.21119691.41621622-.21119691.70579151v1.76177608h-.4945946v-3.08880312h.4945946v.4888031h.0119691c.21930503-.37606179.53822395-.56409268.95637067-.56409268.2011583 0 .38185329.05598456.54285715.16872588.16100387.1127413.27258688.27065637.33474904.47374517.22934363-.42857143.57142858-.64247105 1.02586874-.64247105.67953669 0 1.01930503.42007723 1.01930503 1.26061778v1.90347492M154.35366965 21.28185455h-2.180695c.007722.34787645.0996139.61428572.27451737.7996139.17683398.18262549.42123553.27451738.73281855.27451738.34980695 0 .66872587-.11274131.95637066-.33783784v.46138997c-.26949807.1988417-.62741313.2984556-1.07413128.2984556-.44015445 0-.7841699-.14169884-1.03127415-.42509653-.24749035-.28571429-.37104247-.67992279-.37104247-1.1826255 0-.3057915.06100386-.58416989.18378378-.83552124.12471043-.25328186.2957529-.44942085.51274132-.5880309.21737452-.13899614.45868727-.2081081.72393823-.2081081.4003861 0 .71196912.13050193.93513515.3918919.22509653.25945945.33783784.62355212.33783784 1.0918919v.25945946m-.50656371-.41930503c-.0042471-.28532819-.07374518-.5065637-.20810811-.66332047-.13281854-.15907336-.32084943-.23861004-.56409267-.23861004-.22934363 0-.42548263.08262548-.588417.24749035-.16293436.16486487-.26525096.38301159-.307722.65444016h1.66833978M157.64054227 22.70270398h-.4945946V20.9409279c0-.65328186-.23938224-.98030889-.71776062-.98030889-.24324325 0-.44749035.0926641-.61235522.27760618-.16293436.18301159-.24440155.41737452-.24440155.70270271v1.76177608h-.4945946v-3.08880312h.4945946v.51274132h.01196911c.23127414-.392278.56911198-.5880309 1.01351353-.5880309.33976834 0 .5984556.11042472.77528958.33166024.17915058.22123552.26833977.53513514.26833977.94131275v1.89111971M160.00000176 22.67258815c-.11853282.06640927-.27374518.0996139-.46447877.0996139-.53899614 0-.80849422-.303861-.80849422-.91119692v-1.82779925h-.53088803v-.41930502h.53088803v-.75405406l.4945946-.15984556v.91389962h.77837839v.41930502h-.77837839v1.74362937c0 .2069498.03513514.35482626.10579151.44324325.07027027.08648648.18803089.12972973.35289576.12972973.12239382 0 .22934363-.03320464.31969112-.0996139v.42239382M81.02085031 31.2874145c-.43436294.24733591-.91698842.37100387-1.44787646.37100387-.40424711 0-.76525098-.0915444-1.0830116-.27447877-.31583012-.18297297-.55907336-.44146719-.73011583-.77521236-.17065638-.3337838-.25637066-.71084943-.25637066-1.13115832 0-.66366796.2104247-1.21154441.63050193-1.64397685.42046333-.43243244.95830117-.64864865 1.61389964-.64864865.47065637 0 .86563707.07644787 1.1853282.22934363v.56100386c-.34980696-.22316602-.76409268-.33474903-1.24285716-.33474903-.31544402 0-.60000001.07644787-.85328187.22934363-.25173745.15057915-.44864865.36486487-.5915058.64247105-.14054054.27760618-.2111969.58610039-.2111969.92598456 0 .54490348.14285714.9753668.42857143 1.29104249.28764479.31370657.67876448.47054054 1.17335908.47054054.33590734 0 .62857144-.06830115.87760619-.20509652V29.7852137h-.94710426v-.45857143h1.45405407v1.96077222M84.7640936 30.02652646c0 .49065637-.13976834.88579151-.41930503 1.18548264-.27760618.29756757-.65057916.44640927-1.11930503.44640927-.45637066 0-.82123553-.14478765-1.0949807-.43436294-.27142858-.2915444-.40694982-.67463321-.40694982-1.14926642 0-.51081082.13938224-.9137838.41930503-1.2095367.27915058-.2976834.66447877-.44633205 1.15521236-.44633205.45830117 0 .81737453.14362935 1.076834.43127414.25945946.28532819.38918919.67760618.38918919 1.17633206m-.50694982.0181081c0-.3880695-.08648648-.6857529-.25945946-.89289576-.17104247-.2069498-.41621622-.31081081-.73590734-.31081081-.31776062 0-.56911198.1069498-.75405406.32007722-.1849421.21096526-.27760619.5096139-.27760619.8957143 0 .3699614.0926641.65953669.27760619.86872588.18687258.20706564.43822394.31069498.75405406.31069498.32162162 0 .56795367-.10258687.73899614-.3076834.17104248-.20513514.25637066-.49969113.25637066-.8838224M85.52934457 31.58301296h.49469113v-4.5728958h-.49469113zM89.63668052 31.58301296h-.4949807v-.52486487h-.01196911c-.22934363.40015445-.58301159.60027028-1.06177607.60027028-.3899614 0-.70077221-.13980695-.93204635-.41926642-.23127413-.28158301-.34671815-.6565251-.34671815-1.12513514 0-.51081082.12741313-.92096526.3830116-1.23061778.25714285-.30965251.6011583-.46447877 1.03166023-.46447877.42200773 0 .73088804.16679537.92586874.5007722h.01196911v-1.90965252h.4949807v4.57297302m-.4949807-1.39660233V29.730928c0-.25532819-.08532818-.46760618-.25637066-.63633205-.16872587-.16911198-.37490348-.25366796-.61814672-.25366796-.2976834 0-.53397684.11081081-.70888032.33204634-.17490348.21907336-.26254826.52374517-.26254826.91389962 0 .35397684.08223938.63451738.24749035.84158302.16486486.20509653.38687259.3076834.66640927.3076834.27142857 0 .4949807-.0984942.66988418-.29563707.17490347-.19710425.26216216-.44837838.26216216-.75409267M95.60965356 29.3659473c0 .4403861-.0965251.82949808-.2895753 1.16733592-.19305019.33590734-.46756756.59528958-.82355212.77826256-.35598456.18096525-.76332048.27146718-1.22162164.27146718h-1.14324325V27.2575303h1.1942085c1.52239384 0 2.28378381.7027027 2.28378381 2.10841701m-.53088804.01208494c0-1.10814673-.58841699-1.66220079-1.76486488-1.66220079h-.67567568v3.4086873h.64247105c.57142857 0 1.01351352-.1518919 1.32741314-.45548263.31351352-.3057143.47065637-.73598457.47065637-1.29100388M98.85405514 30.16227936h-2.180695c.007722.34795367.0992278.61428572.27451737.79934363.17683398.18297298.42123553.27451738.73281855.27451738.34980695 0 .66872587-.1126641.95637066-.33783784v.4615058c-.26988417.19907336-.62741313.29861004-1.07413128.29861004-.44015445 0-.7841699-.14177607-1.03166025-.4253282-.24710425-.28548262-.37104247-.67972973-.37104247-1.18243244 0-.30567568.06138996-.58409267.18416988-.83559846.12471043-.25328186.2957529-.44942086.51274132-.5880309.21737452-.13899614.45868727-.2081081.72393823-.2081081.4 0 .71196912.13050192.93513515.39189189.22509653.25945946.33783784.6234749.33783784 1.09204634v.25942086m-.50656371-.41926642c-.0042471-.28552124-.07374518-.50671815-.20849421-.6634749-.13243244-.15907337-.32046333-.23861005-.56370657-.23861005-.22934363 0-.42548263.08262548-.588417.24749035-.16293436.16486487-.26525096.3830888-.307722.6545946h1.66833978M102.00540653 28.49420984l-1.23050195 3.08880312h-.4888031l-1.16718147-3.08880312h.54594595l.7841699 2.24119693c.04208494.11868726.07644787.26347491.1027027.43436294h.01505791c.01776062-.1488803.05019305-.28853282.0965251-.41930502l.82316603-2.25625485h.51891893M106.40926758 29.3659473c0 .46046333-.08455599.86467182-.25328186 1.21258689-.16679536.34583012-.4081081.61235522-.72393823.79934363-.31389962.18702703-.67567568.28054055-1.0861004.28054055-.396139 0-.74903475-.09050193-1.05868727-.27146719-.307722-.18293436-.54594595-.44146718-.71467182-.77521236-.16911197-.33586873-.25366796-.71594595-.25366796-1.14023167 0-.45644788.0857143-.8587645.25637066-1.20664094.17104248-.34787645.41621622-.61428572.73629345-.79922781.31969112-.18687259.6895753-.28069498 1.11003862-.28069498.38378379 0 .72779924.09150579 1.03127414.27451737.30579151.18301159.54131275.44054055.70617762.77220078.16679537.33204634.25019305.71003862.25019305 1.13428573m-.53088804.06637066c0-.56320464-.13166023-1.00258689-.3949807-1.3180309-.26332046-.31583012-.63050193-.47374518-1.10115831-.47374518-.2957529 0-.56100387.07528957-.796139.22625482-.23320464.14903476-.41428572.36100387-.54324325.63629345-.12857143.27567568-.1930502.58339769-.1930502.92320464 0 .34583012.06138996.654556.18416989.92602318.12471042.26949807.3015444.47857143.53088803.62741313.22934364.14675676.4895753.22019305.7810811.22019305.47876448 0 .85366796-.15683397 1.12509653-.47054054.27142858-.31370657.40733591-.746139.40733591-1.29706565M110.02934484 29.94509789c0 .52289575-.12741313.93915059-.38301159 1.2488031-.25521236.3096139-.5972973.46451738-1.02548263.46451738-.40617761 0-.71505793-.17297298-.92625484-.5188031h-.01196911v1.8641313h-.4945946v-4.50953673h.4945946v.54285715h.0119691c.24362936-.41196912.59961392-.61814673 1.06795369-.61814673.38610039 0 .6938224.13667954.92316603.41003862.22895753.27335907.34362935.64559846.34362935 1.116139m-.50656371-.00602316c0-.33378379-.07837838-.60046333-.23552124-.79930503-.15675676-.1992278-.37297298-.2988417-.64826256-.2988417-.28378378 0-.51389962.0988417-.6907336.2957529-.17722007.1972973-.26563706.448417-.26563706.75413128v.43135136c0 .25938224.08455598.4765637.25328185.6515444.17104248.1749421.38108109.26243244.63050194.26243244.2976834 0 .53088804-.1146332.7-.34389962.17104248-.2292278.25637067-.54702703.25637067-.95316603M112.47567691 30.75652647c0 .26741313-.1034749.4845946-.31081081.6515444-.2050193.16694981-.47837838.2503475-.82046333.2503475-.2915058 0-.54671815-.062278-.76602318-.18702703v-.53088804c.24324325.19714286.51081082.29563707.80231662.29563707.392278 0 .588417-.14374517.588417-.43135136 0-.11660231-.03822395-.2111583-.11467183-.28355212-.07644787-.07436294-.25057915-.17389962-.52200772-.29861004-.27335908-.11660232-.46640927-.24131275-.57915059-.37405406-.11274131-.13467182-.16872587-.3126641-.16872587-.53389962 0-.25521236.1023166-.46872588.30772201-.63938225.2050193-.17104247.46525097-.25637066.7810811-.25637066.24324324 0 .46332046.04826255.66061776.14478765v.4976834c-.2011583-.14671815-.43436294-.22046332-.7-.22046332-.16254827 0-.2942085.04054054-.3949807.12084942-.0984556.08030888-.14787646.18378379-.14787646.31081082 0 .13664092.03822394.24223938.11467182.3165637.07644788.07239383.23436294.1588417.47374518.25942086.2934363.12474903.4996139.25532819.61814672.39212355.11891892.13679537.17799228.30872588.17799228.51583013M81.02085031 40.16772348c-.43436294.24733591-.91698842.37100387-1.44787646.37100387-.40424711 0-.76525098-.0915444-1.0830116-.27447877-.31583012-.18297298-.55907336-.44146719-.73011583-.77521237-.17065638-.33378378-.25637066-.71084942-.25637066-1.1311583 0-.66362936.2104247-1.21154442.63050193-1.64393825.42046333-.43243244.95830117-.64853283 1.61389964-.64853283.47065637 0 .86563707.07644788 1.1853282.2292278v.56104248c-.34980696-.22320463-.76409268-.33478765-1.24285716-.33478765-.31544402 0-.60000001.07644788-.85328187.2292278-.25173745.15081082-.44864865.3649807-.5915058.64250967-.14054054.27749035-.2111969.58621622-.2111969.92602317 0 .54490348.14285714.9753668.42857143 1.29104249.28764479.31370656.67876448.47054054 1.17335908.47054054.33590734 0 .62857144-.06830116.87760619-.20509653v-1.2096139h-.94710426v-.45849422h1.45405407v1.960695M84.7640936 38.90683544c0 .49065637-.13976834.88579151-.41930503 1.18548263-.27760618.29756758-.65057916.44640928-1.11930503.44640928-.45637066 0-.82123553-.14478765-1.0949807-.43436294-.27142858-.2915444-.40694982-.67463322-.40694982-1.14926643 0-.51081081.13938224-.91393823.41930503-1.2095753.27915058-.29756757.66447877-.44640927 1.15521236-.44640927.45830117 0 .81737453.14374518 1.076834.43135136.25945946.28548263.38918919.6776448.38918919 1.17637067m-.50694982.0181081c0-.3880695-.08648648-.6857529-.25945946-.89285715-.17104247-.20706564-.41621622-.31069498-.73590734-.31069498-.31776062 0-.56911198.10664093-.75405406.31976834-.1849421.2111197-.27760619.50976835-.27760619.89586874 0 .3699614.0926641.65953668.27760619.86872587.18687258.20706564.43822394.31069499.75405406.31069499.32162162 0 .56795367-.10258687.73899614-.3076834.17104248-.20513514.25637066-.49969113.25637066-.8838224M85.52934457 40.46332194h.49469113v-4.5728958h-.49469113zM89.63668052 40.46332194h-.4949807v-.52486487h-.01196911c-.22934363.40015444-.58301159.60027028-1.06177607.60027028-.3899614 0-.70077221-.13980696-.93204635-.41926642-.23127413-.28158301-.34671815-.6565251-.34671815-1.12513515 0-.51081081.12741313-.92104248.3830116-1.23069499.25714285-.3096139.6011583-.46451738 1.03166023-.46451738.42200773 0 .73088804.1669498.92586874.5007336h.01196911v-1.90942087h.4949807v4.5728958m-.4949807-1.39660233v-.45548263c0-.2553282-.08532818-.46752897-.25637066-.63644789-.16872587-.16891892-.37490348-.25339768-.61814672-.25339768-.2976834 0-.53397684.11057915-.70888032.33181467-.17490348.21915058-.26254826.5238224-.26254826.91397685 0 .35397683.08223938.63451738.24749035.84158302.16486486.20509653.38687259.3076834.66640927.3076834.27142857 0 .4949807-.09849421.66988418-.29563707.17490347-.19710425.26216216-.44837838.26216216-.75409267M95.60965356 38.24625628c0 .4403861-.0965251.82949808-.2895753 1.16733592-.19305019.33590734-.46756756.59528958-.82355212.77826256-.35598456.18096525-.76332048.27146718-1.22162164.27146718h-1.14324325v-4.32552128h1.1942085c1.52239384 0 2.28378381.70281854 2.28378381 2.10845562m-.53088804.01208494c0-1.10810812-.58841699-1.66204635-1.76486488-1.66204635h-.67567568v3.40853286h.64247105c.57142857 0 1.01351352-.1518919 1.32741314-.45548263.31351352-.3057143.47065637-.73598457.47065637-1.29100388M98.58262657 40.46332194h-.4945946v-.48262549h-.01235522c-.21505791.37208495-.53166023.5580309-.95019306.5580309-.2972973 0-.53552124-.0803861-.71467182-.24131275-.17915058-.16289575-.26833977-.3811197-.26833977-.65455599 0-.57509653.33976834-.91096526 1.01930503-1.00749036l.92625484-.12969112c0-.52289576-.21235522-.78428572-.63667955-.78428572-.37181467 0-.70772201.12563706-1.00733592.37706564v-.50675676c.0903475-.06833977.24517375-.13378379.46447877-.19606178.21930503-.06440155.41428572-.0965251.5853282-.0965251.72586873 0 1.0888031.38505792 1.0888031 1.15528959v2.00891894m-.4945946-1.56250967l-.74826256.10559846c-.25521236.0361776-.43436294.09756757-.53667954.18397683-.1027027.08447877-.15405406.22216217-.15405406.41324325 0 .15490348.05521236.27949807.16602317.37405406.11042471.09243243.25212355.13876448.42509653.13876448.24555985 0 .44749035-.08644788.60656371-.25942085.16061777-.17301159.24131275-.38911198.24131275-.64853283v-.3076834M100.94208605 40.4331675c-.11891892.06633205-.27335907.09953668-.46447877.09953668-.53899614 0-.80849421-.30359074-.80849421-.91096526v-1.82795369h-.53088804v-.41926641h.53088804v-.75409268l.4945946-.15988417v.91397685h.77837838v.41926641h-.77837838v1.74351353c0 .20706564.03513513.35486487.1057915.4433977.07027027.08640926.1880309.12969111.35289576.12969111.12239382 0 .22895753-.03316602.31969112-.09953668v.4223166M103.78417103 40.46332194h-.4945946v-.48262549h-.01235522c-.21505791.37208495-.53166023.5580309-.95019306.5580309-.2972973 0-.53590734-.0803861-.71467182-.24131275-.17876448-.16289575-.26872587-.3811197-.26872587-.65455599 0-.57509653.34015444-.91096526 1.01969113-1.00749036l.92625484-.12969112c0-.52289576-.21235522-.78428572-.63667955-.78428572-.37181467 0-.70772201.12563706-1.00733592.37706564v-.50675676c.0903475-.06833977.24517375-.13378379.46447877-.19606178.21930502-.06440155.41428572-.0965251.5849421-.0965251.72625483 0 1.0891892.38505792 1.0891892 1.15528959v2.00891894m-.4945946-1.56250967l-.74826256.10559846c-.25521236.0361776-.43436294.09756757-.53706564.18397683-.1023166.08447877-.15366796.22216217-.15366796.41324325 0 .15490348.05521236.27949807.16602317.37405406.11042471.09243243.25250965.13876448.42509653.13876448.24555985 0 .44749035-.08644788.60656371-.25942085.16061776-.17301159.24131275-.38911198.24131275-.64853283v-.3076834M108.85559965 37.42880453c0 .41822394-.14478764.75606179-.43436294 1.01351353-.28764479.2553668-.66525097.3830888-1.13397684.3830888h-.57027028v1.63791508h-.50656371v-4.32552128h1.188417c.46254827 0 .82046333.11355212 1.07374519.34084942.25521235.22517375.38301158.5418919.38301158.95015445m-.53088803.02714286c0-.57308881-.33783785-.85965252-1.01351353-.85965252h-.5942085v1.77362936h.53088804c.34787645 0 .61428572-.07841699.7996139-.23528957.1849421-.1588031.27722009-.38501931.27722009-.67868727M109.6034761 40.46332194h.49484171v-4.5728958h-.4948417zM113.28532943 40.46332194h-.4945946v-.48262549h-.01235521c-.21505792.37208495-.53166024.5580309-.94980696.5580309-.2976834 0-.53590734-.0803861-.71505792-.24131275-.17915059-.16289575-.26833978-.3811197-.26833978-.65455599 0-.57509653.33976835-.91096526 1.01930503-1.00749036l.92625484-.12969112c0-.52289576-.21235521-.78428572-.63667954-.78428572-.37181468 0-.70772202.12563706-1.00733592.37706564v-.50675676c.0903475-.06833977.24517375-.13378379.46447877-.19606178.21930502-.06440155.41428572-.0965251.5853282-.0965251.72586872 0 1.0888031.38505792 1.0888031 1.15528959v2.00891894m-.4945946-1.56250967l-.74826257.10559846c-.25521235.0361776-.43436293.09756757-.53667954.18397683-.1027027.08447877-.15405405.22216217-.15405405.41324325 0 .15490348.05559845.27949807.16602316.37405406.11042472.09243243.25212356.13876448.42509653.13876448.24555985 0 .44749036-.08644788.60656372-.25942085.16100386-.17301159.24131274-.38911198.24131274-.64853283v-.3076834M115.64478892 40.4331675c-.11853282.06633205-.27374518.09953668-.46447877.09953668-.53899615 0-.80849422-.30359074-.80849422-.91096526v-1.82795369h-.53088804v-.41926641h.53088804v-.75409268l.4945946-.15988417v.91397685h.77837839v.41926641h-.77837839v1.74351353c0 .20706564.03513514.35486487.1057915.4433977.07027028.08640926.1876448.12969111.35289576.12969111.12239383 0 .22934364-.03316602.31969113-.09953668v.4223166M117.82625612 36.32478908c-.0965251-.05428572-.2061776-.08142858-.32895753-.08142858-.34555985 0-.51853282.21822394-.51853282.654556v.47660232h.72393823v.41926641h-.72393823v2.66953671h-.4949807v-2.6695367h-.52471044v-.41926642h.52471044v-.5007336c0-.31370657.09266409-.56706564.27760618-.76011584.18494208-.1930502.42046332-.2895753.7057915-.2895753.15096526 0 .27065638.0180695.35907337.05428572v.44640928M121.03281986 38.90683544c0 .49065637-.13976834.88579151-.41930502 1.18548263-.27760618.29756758-.65057916.44640928-1.11930503.44640928-.45637066 0-.82123553-.14478765-1.0949807-.43436294-.27142858-.2915444-.40694982-.67463322-.40694982-1.14926643 0-.51081081.13938224-.91393823.41930502-1.2095753.27915059-.29756757.66447878-.44640927 1.15521237-.44640927.45830117 0 .81737453.14374518 1.076834.43135136.25945945.28548263.38918918.6776448.38918918 1.17637067m-.5069498.0181081c0-.3880695-.0864865-.6857529-.25945947-.89285715-.17104247-.20706564-.41621622-.31069498-.73590734-.31069498-.31776063 0-.56911198.10664093-.75405407.31976834-.18494208.2111197-.27760618.50976835-.27760618.89586874 0 .3699614.0926641.65953668.27760618.86872587.1868726.20706564.43822395.31069499.75405407.31069499.32162162 0 .56795367-.10258687.73899614-.3076834.17104248-.20513514.25637066-.49969113.25637066-.8838224M123.40888167 37.87525241c-.088417-.06637065-.21428572-.09953668-.37722008-.09953668-.21930503 0-.3972973.10359074-.53397684.31065638-.13667954.20513513-.20501931.47254826-.20501931.80239383v1.574556h-.4945946v-3.08880312h.4945946v.63644788h.01196911c.06833977-.2130888.17413128-.3811197.31660232-.50374518.14285714-.12471043.30694981-.18698842.4918919-.18698842.12857143 0 .22741313.01401545.2957529.04220077v.51281854M128.33359215 40.46332194h-.4945946v-1.77366797c0-.34583012-.05328186-.59316603-.15984557-.74200773-.1046332-.15084943-.28146718-.22625483-.53088803-.22625483-.21119692 0-.3911197.0965251-.53976835.28957529-.14710425.1930502-.22046332.42335908-.22046332.6907722v1.76158304h-.4945946v-1.83397685c0-.60525098-.23436294-.90795368-.70270271-.90795368-.21737452 0-.396139.0915444-.53706565.27451738-.14092664.18096525-.2111969.41625483-.2111969.70583012v1.76158303h-.4945946v-3.08880312h.4945946v.48864865h.0123552c.21891893-.37598456.53745175-.56405406.95598457-.56405406.2011583 0 .38223939.05625483.54285715.16891892.16100386.1126641.27258687.27042471.33513514.47355213.22895753-.42830116.57065637-.64247105 1.02548263-.64247105.6795367 0 1.01930504.4203475 1.01930504 1.26084944v1.90335909" fill="#856a1a"/>
</svg>