<?xml version="1.0" encoding="UTF-8" standalone="no"?>
<svg
   xmlns:dc="http://purl.org/dc/elements/1.1/"
   xmlns:cc="http://creativecommons.org/ns#"
   xmlns:rdf="http://www.w3.org/1999/02/22-rdf-syntax-ns#"
   xmlns:svg="http://www.w3.org/2000/svg"
   xmlns="http://www.w3.org/2000/svg"
   xmlns:sodipodi="http://sodipodi.sourceforge.net/DTD/sodipodi-0.dtd"
   xmlns:inkscape="http://www.inkscape.org/namespaces/inkscape"
   width="100"
   height="61.24498"
   version="1.2"
   viewBox="0 0 74.999954 45.933819"
   id="svg58"
   sodipodi:docname="nodejs-logo.svg"
   inkscape:version="0.92.2 5c3e80d, 2017-08-06">
  <metadata
     id="metadata62">
    <rdf:RDF>
      <cc:Work
         rdf:about="">
        <dc:format>image/svg+xml</dc:format>
        <dc:type
           rdf:resource="http://purl.org/dc/dcmitype/StillImage" />
        <dc:title></dc:title>
      </cc:Work>
    </rdf:RDF>
  </metadata>
  <sodipodi:namedview
     pagecolor="#ffffff"
     bordercolor="#666666"
     borderopacity="1"
     objecttolerance="10"
     gridtolerance="10"
     guidetolerance="10"
     inkscape:pageopacity="0"
     inkscape:pageshadow="2"
     inkscape:window-width="908"
     inkscape:window-height="592"
     id="namedview60"
     showgrid="false"
     inkscape:zoom="0.65330889"
     inkscape:cx="268.12608"
     inkscape:cy="180.62034"
     inkscape:window-x="0"
     inkscape:window-y="0"
     inkscape:window-maximized="0"
     inkscape:current-layer="svg58" />
  <defs
     id="defs36">
    <clipPath
       id="a">
      <path
         d="m 239.03,226.605 -42.13,24.317 c -1.578,0.91 -2.546,2.59 -2.546,4.406 v 48.668 c 0,1.817 0.968,3.496 2.546,4.406 l 42.133,24.336 c 1.575,0.907 3.517,0.907 5.09,0 l 42.126,-24.336 c 1.57,-0.91 2.54,-2.59 2.54,-4.406 v -48.668 c 0,-1.816 -0.97,-3.496 -2.55,-4.406 l -42.12,-24.317 c -0.79,-0.453 -1.67,-0.68 -2.55,-0.68 -0.88,0 -1.76,0.227 -2.55,0.68"
         id="path2"
         inkscape:connector-curvature="0" />
    </clipPath>
    <linearGradient
       id="b"
       x1="-0.34799999"
       x2="1.251"
       gradientTransform="matrix(-38.064915,77.652126,-77.652126,-38.064915,258.72325,244.62943)"
       gradientUnits="userSpaceOnUse">
      <stop
         offset=".3"
         stop-color="#3E863D"
         id="stop5" />
      <stop
         offset=".5"
         stop-color="#55934F"
         id="stop7" />
      <stop
         offset=".8"
         stop-color="#5AAD45"
         id="stop9" />
    </linearGradient>
    <clipPath
       id="c">
      <path
         d="m 195.398,307.086 c 0.403,0.523 0.907,0.976 1.5,1.316 l 36.14,20.875 6.02,3.46 c 0.9,0.52 1.926,0.74 2.934,0.665 0.336,-0.027 0.672,-0.09 1,-0.183 l 44.434,-81.36 c -0.34,-0.37 -0.738,-0.68 -1.184,-0.94 l -27.586,-15.93 -14.582,-8.39 c -0.414,-0.24 -0.863,-0.41 -1.32,-0.53 z m 0,0"
         id="path12"
         inkscape:connector-curvature="0" />
    </clipPath>
    <linearGradient
       id="d"
       x1="-0.456"
       x2="0.58200002"
       gradientTransform="matrix(106.8057,-78.916731,78.916731,106.8057,235.18824,285.39477)"
       gradientUnits="userSpaceOnUse">
      <stop
         offset=".57"
         stop-color="#3E863D"
         id="stop15" />
      <stop
         offset=".72"
         stop-color="#619857"
         id="stop17" />
      <stop
         offset="1"
         stop-color="#76AC64"
         id="stop19" />
    </linearGradient>
    <clipPath
       id="e">
      <path
         d="m 241.066,225.953 c -0.707,0.07 -1.398,0.29 -2.035,0.652 l -42.01,24.247 45.3,82.51 c 0.63,-0.09 1.25,-0.3 1.81,-0.624 l 42.13,-24.336 c 1.3,-0.754 2.19,-2.03 2.46,-3.476 l -46.18,-78.89 c -0.34,-0.067 -0.68,-0.102 -1.03,-0.102 -0.14,0 -0.28,0.007 -0.42,0.02"
         id="path22"
         inkscape:connector-curvature="0" />
    </clipPath>
    <linearGradient
       id="f"
       x1="0.043000001"
       x2="0.98400003"
       gradientTransform="matrix(97.417,0,0,97.417,192.862,279.652)"
       gradientUnits="userSpaceOnUse">
      <stop
         offset=".16"
         stop-color="#6BBF47"
         id="stop25" />
      <stop
         offset=".38"
         stop-color="#79B461"
         id="stop27" />
      <stop
         offset=".47"
         stop-color="#75AC64"
         id="stop29" />
      <stop
         offset=".7"
         stop-color="#659E5A"
         id="stop31" />
      <stop
         offset=".9"
         stop-color="#3E863D"
         id="stop33" />
    </linearGradient>
  </defs>
  <path
     d="m 37.069233,45.93382 c -0.247531,0 -0.493366,-0.0649 -0.71038,-0.18989 l -2.261177,-1.3387 c -0.337727,-0.18887 -0.172932,-0.25567 -0.06154,-0.29415 0.450302,-0.15768 0.541685,-0.19328 1.022336,-0.46624 0.05052,-0.0288 0.116645,-0.0187 0.168355,0.0119 l 1.737123,1.03081 c 0.06273,0.0339 0.15174,0.0339 0.209893,0 l 6.773189,-3.90963 c 0.06273,-0.0356 0.10342,-0.10851 0.10342,-0.18311 v -7.81587 c 0,-0.078 -0.04069,-0.1475 -0.104777,-0.18649 l -6.770476,-3.90624 c -0.06273,-0.0373 -0.145805,-0.0373 -0.208536,0 l -6.76912,3.90624 c -0.06561,0.0373 -0.107319,0.1102 -0.107319,0.1848 v 7.81587 c 0,0.0746 0.04069,0.1458 0.105115,0.18141 l 1.854786,1.0715 c 1.007077,0.50354 1.622514,-0.0899 1.622514,-0.68664 v -7.71415 c 0,-0.1102 0.08647,-0.19497 0.196668,-0.19497 h 0.857881 c 0.106811,0 0.194972,0.0848 0.194972,0.19497 v 7.71754 c 0,1.34277 -0.732419,2.11418 -2.005677,2.11418 -0.391641,0 -0.700207,0 -1.561479,-0.42385 l -1.776796,-1.02403 c -0.439113,-0.25432 -0.71038,-0.72903 -0.71038,-1.23596 v -7.81587 c 0,-0.50863 0.271267,-0.98334 0.71038,-1.23426 l 6.77997,-3.91133 c 0.428941,-0.24244 0.9986,-0.24244 1.42415,0 l 6.771493,3.91302 c 0.437418,0.25262 0.71038,0.72564 0.71038,1.23426 v 7.81587 c 0,0.50693 -0.272962,0.97995 -0.71038,1.23427 l -6.771493,3.91132 c -0.217013,0.12546 -0.462849,0.18989 -0.71377,0.18989"
     id="path38"
     inkscape:connector-curvature="0"
     style="fill:#689f63;stroke-width:0.16954164" />
  <path
     d="m 39.161377,40.54816 c -2.963588,0 -3.584958,-1.3604 -3.584958,-2.50142 0,-0.1085 0.08748,-0.19497 0.196159,-0.19497 h 0.874835 c 0.09664,0 0.178019,0.0704 0.193278,0.16581 0.132242,0.89145 0.525579,1.34108 2.317634,1.34108 1.427541,0 2.0345,-0.32247 2.0345,-1.07948 0,-0.43572 -0.172933,-0.75954 -2.390537,-0.97656 -1.854786,-0.1831 -3.000888,-0.5917 -3.000888,-2.07519 0,-1.3665 1.152884,-2.1803 3.083963,-2.1803 2.168438,0 3.243332,0.75276 3.378965,2.37019 0.0051,0.0559 -0.01526,0.1102 -0.05256,0.15089 -0.0373,0.039 -0.08986,0.0627 -0.14411,0.0627 h -0.879922 c -0.09155,0 -0.171237,-0.0644 -0.189886,-0.15258 -0.211927,-0.93757 -0.723943,-1.23766 -2.11588,-1.23766 -1.558088,0 -1.739497,0.54254 -1.739497,0.94944 0,0.49336 0.213622,0.63747 2.315939,0.91552 2.081971,0.27635 3.070399,0.6663 3.070399,2.12944 0,1.47502 -1.230872,2.32103 -3.37727,2.32103 m 8.249897,-8.28889 h 0.227185 c 0.186496,0 0.2221,-0.13055 0.2221,-0.20684 0,-0.20006 -0.137329,-0.20006 -0.213622,-0.20006 h -0.233968 z m -0.276353,-0.64087 h 0.503538 c 0.172933,0 0.512016,0 0.512016,0.38656 0,0.26957 -0.172932,0.32552 -0.276353,0.35942 0.201755,0.0136 0.215318,0.14581 0.242445,0.33231 0.01356,0.11698 0.0356,0.31873 0.07629,0.38655 h -0.310262 c -0.0085,-0.0678 -0.05595,-0.44081 -0.05595,-0.46115 -0.02034,-0.0831 -0.04917,-0.12377 -0.152588,-0.12377 h -0.256 v 0.58662 h -0.283134 z m -0.605264,0.72903 c 0,0.60696 0.489975,1.09863 1.091848,1.09863 0.606959,0 1.096935,-0.50184 1.096935,-1.09863 0,-0.60866 -0.496757,-1.09185 -1.09863,-1.09185 -0.593396,0 -1.091848,0.47641 -1.091848,1.09015 m 2.400709,0.005 c 0,0.71886 -0.588309,1.30547 -1.30547,1.30547 -0.712075,0 -1.305471,-0.57983 -1.305471,-1.30547 0,-0.7392 0.606959,-1.30547 1.305471,-1.30547 0.703598,0 1.303775,0.56796 1.303775,1.30547"
     id="path40"
     inkscape:connector-curvature="0"
     style="fill:#689f63;stroke-width:0.16954164" />
  <path
     d="m 16.095067,15.3519 c 0,-0.31196 -0.164456,-0.59848 -0.433688,-0.75361 L 8.4802731,10.46656 C 8.3590508,10.39536 8.223248,10.35805 8.0855802,10.35296 h -0.074259 c -0.1376678,0.005 -0.2734706,0.0424 -0.3967274,0.1136 l -7.18076686,4.13173 c -0.26753701,0.15597 -0.4343659899,0.4425 -0.4343659899,0.75446 L 0.01522832,26.48146 c 0,0.15428 0.07968458,0.29839 0.21531789,0.37469 0.13224248,0.0814 0.29839329,0.0814 0.43063578,0 L 4.9302406,24.41136 C 5.1998118,24.25097 5.3642672,23.9675 5.3642672,23.65859 V 18.4596 c 0,-0.31026 0.1644554,-0.59679 0.4331789,-0.75107 l 1.8174865,-1.04675 c 0.1349551,-0.078 0.2831345,-0.11665 0.4340266,-0.11665 0.1485185,0 0.3000887,0.0383 0.4313139,0.11648 l 1.8166389,1.04641 c 0.268893,0.15428 0.434026,0.44081 0.434026,0.75107 v 5.19865 c 0,0.30857 0.16666,0.5934 0.434875,0.75277 l 4.266346,2.44309 c 0.133938,0.0797 0.300597,0.0797 0.434026,0 0.131565,-0.0763 0.214979,-0.2204 0.214979,-0.37468 z m 33.885949,5.79425 c 0,0.0775 -0.0412,0.1492 -0.108507,0.18752 l -2.466492,1.42177 c -0.06697,0.0385 -0.149705,0.0385 -0.216504,0 l -2.466831,-1.42177 c -0.06782,-0.0385 -0.108507,-0.11021 -0.108507,-0.18752 v -2.84762 c 0,-0.0777 0.04069,-0.14919 0.106811,-0.18819 l 2.465136,-1.42415 c 0.06782,-0.039 0.150892,-0.039 0.218709,0 l 2.46683,1.42415 c 0.06782,0.039 0.108507,0.11054 0.108507,0.18819 z M 50.647314,0.05483006 c -0.134616,-0.0749 -0.298393,-0.0729 -0.431313,0.005 -0.132243,0.078 -0.213962,0.22041 -0.213962,0.37469 V 11.45473 c 0,0.1085 -0.05764,0.20853 -0.15157,0.26278 -0.09325,0.0543 -0.209384,0.0543 -0.30348,0 l -1.798837,-1.03606 c -0.267875,-0.15497 -0.597803,-0.15497 -0.866697,0 l -7.183479,4.1458 c -0.268384,0.15428 -0.434027,0.44081 -0.434027,0.74937 v 8.29398 c 0,0.31026 0.165643,0.59509 0.434027,0.75107 l 7.183479,4.14868 c 0.268215,0.15429 0.598482,0.15429 0.867545,0 l 7.18348,-4.15038 c 0.267875,-0.15598 0.434026,-0.44081 0.434026,-0.75107 V 3.1983901 c 0,-0.31467 -0.171237,-0.60408 -0.445894,-0.75785 z M 74.568454,18.22359 c 0.266858,-0.15496 0.431144,-0.44114 0.431144,-0.74971 V 15.4638 c 0,-0.30925 -0.164455,-0.59459 -0.431823,-0.75023 l -7.137703,-4.14359 c -0.269571,-0.15598 -0.600177,-0.15598 -0.869748,0 l -7.181784,4.14529 c -0.269572,0.15598 -0.434027,0.44081 -0.434027,0.75107 v 8.29059 c 0,0.31195 0.167846,0.60017 0.437417,0.75446 l 7.136008,4.0673 c 0.26279,0.15089 0.584919,0.15259 0.851099,0.005 l 4.316531,-2.39902 c 0.135633,-0.0763 0.222099,-0.2204 0.222099,-0.37638 0,-0.15598 -0.08308,-0.30178 -0.218709,-0.37808 l -7.225865,-4.14699 c -0.135633,-0.0763 -0.218708,-0.2204 -0.218708,-0.37468 v -2.60077 c 0,-0.1553 0.08138,-0.2984 0.217013,-0.37571 l 2.248122,-1.29699 c 0.133938,-0.078 0.298394,-0.078 0.432331,0 l 2.249818,1.29699 c 0.133938,0.0763 0.217013,0.22041 0.217013,0.37469 v 2.04467 c 0,0.15428 0.08308,0.2984 0.217014,0.37638 0.133938,0.0763 0.300088,0.0763 0.434026,-0.002 z m 0,0"
     id="path42"
     inkscape:connector-curvature="0"
     style="fill:#333333;fill-rule:evenodd;stroke-width:0.16954164" />
  <path
     d="m 66.890082,17.83568 c 0.05086,-0.03 0.11461,-0.03 0.166151,0 l 1.378374,0.79515 c 0.05154,0.0298 0.08307,0.0848 0.08307,0.14411 v 1.592 c 0,0.0593 -0.03153,0.11427 -0.08307,0.14411 l -1.378374,0.79515 c -0.05154,0.03 -0.115288,0.03 -0.166151,0 l -1.377526,-0.79515 c -0.05256,-0.0298 -0.08477,-0.0848 -0.08477,-0.14411 v -1.592 c 0,-0.0593 0.03052,-0.11427 0.08308,-0.14411 z m 0,0"
     id="path44"
     inkscape:connector-curvature="0"
     style="fill:#689f63;fill-rule:evenodd;stroke-width:0.16954164" />
  <g
     clip-path="url(#a)"
     transform="matrix(0.16954164,0,0,0.16954164,-13.276667,-27.80764)"
     id="g48">
    <path
       d="m 331.363,246.793 -118.715,-58.19 -60.87,124.174 118.712,58.193 z m 0,0"
       id="path46"
       style="fill:url(#b)"
       inkscape:connector-curvature="0" />
  </g>
  <g
     clip-path="url(#c)"
     transform="matrix(0.16954164,0,0,0.16954164,-13.276667,-27.80764)"
     id="g52">
    <path
       d="m 144.07,264.004 83.825,113.453 110.86,-81.906 -83.83,-113.45 z m 0,0"
       id="path50"
       style="fill:url(#d)"
       inkscape:connector-curvature="0" />
  </g>
  <g
     clip-path="url(#e)"
     transform="matrix(0.16954164,0,0,0.16954164,-13.276667,-27.80764)"
     id="g56">
    <path
       d="m 197.02,225.934 v 107.43 h 91.683 v -107.43 z m 0,0"
       id="path54"
       style="fill:url(#f)"
       inkscape:connector-curvature="0" />
  </g>
</svg>
