<?xml version="1.0" encoding="UTF-8" standalone="no"?>
<svg
   xmlns:dc="http://purl.org/dc/elements/1.1/"
   xmlns:cc="http://creativecommons.org/ns#"
   xmlns:rdf="http://www.w3.org/1999/02/22-rdf-syntax-ns#"
   xmlns:svg="http://www.w3.org/2000/svg"
   xmlns="http://www.w3.org/2000/svg"
   xmlns:sodipodi="http://sodipodi.sourceforge.net/DTD/sodipodi-0.dtd"
   xmlns:inkscape="http://www.inkscape.org/namespaces/inkscape"
   width="90"
   height="47.34375"
   viewBox="0 0 89.999971 47.343811"
   version="1.1"
   id="svg44"
   sodipodi:docname="php-logo.svg"
   inkscape:version="0.92.2 5c3e80d, 2017-08-06">
  <metadata
     id="metadata48">
    <rdf:RDF>
      <cc:Work
         rdf:about="">
        <dc:format>image/svg+xml</dc:format>
        <dc:type
           rdf:resource="http://purl.org/dc/dcmitype/StillImage" />
        <dc:title></dc:title>
      </cc:Work>
    </rdf:RDF>
  </metadata>
  <sodipodi:namedview
     pagecolor="#ffffff"
     bordercolor="#666666"
     borderopacity="1"
     objecttolerance="10"
     gridtolerance="10"
     guidetolerance="10"
     inkscape:pageopacity="0"
     inkscape:pageshadow="2"
     inkscape:window-width="934"
     inkscape:window-height="534"
     id="namedview46"
     showgrid="false"
     inkscape:zoom="0.43503203"
     inkscape:cx="95.846004"
     inkscape:cy="151.93683"
     inkscape:window-x="0"
     inkscape:window-y="0"
     inkscape:window-maximized="0"
     inkscape:current-layer="svg44" />
  <defs
     id="defs20">
    <clipPath
       id="a">
      <path
         d="M 11.52,162 C 11.52,81.677 135.307,16.56 288,16.56 440.693,16.56 564.48,81.678 564.48,162 564.48,242.322 440.693,307.44 288,307.44 135.307,307.44 11.52,242.32 11.52,162"
         id="path2"
         inkscape:connector-curvature="0" />
    </clipPath>
    <radialGradient
       id="b"
       cx="0"
       cy="0"
       r="1"
       fx="0"
       fy="0"
       gradientTransform="matrix(363.06,0,0,-363.06,177.52,256.31)"
       gradientUnits="userSpaceOnUse"
       spreadMethod="pad">
      <stop
         offset="0"
         stop-color="#aeb2d5"
         id="stop5" />
      <stop
         offset=".3"
         stop-color="#aeb2d5"
         id="stop7" />
      <stop
         offset=".75"
         stop-color="#484c89"
         id="stop9" />
      <stop
         offset="1"
         stop-color="#484c89"
         id="stop11" />
    </radialGradient>
    <clipPath
       id="c">
      <path
         d="M 0,324 H 576 V 0 H 0 Z"
         id="path14"
         inkscape:connector-curvature="0" />
    </clipPath>
    <clipPath
       id="d">
      <path
         d="M 0,324 H 576 V 0 H 0 Z"
         id="path17"
         inkscape:connector-curvature="0" />
    </clipPath>
  </defs>
  <g
     clip-path="url(#a)"
     transform="matrix(0.16276063,0,0,-0.16276063,-1.8750619,50.039128)"
     id="g24">
    <path
       d="M 11.52,162 C 11.52,81.677 135.307,16.56 288,16.56 440.693,16.56 564.48,81.678 564.48,162 564.48,242.322 440.693,307.44 288,307.44 135.307,307.44 11.52,242.32 11.52,162"
       id="path22"
       style="fill:url(#b)"
       inkscape:connector-curvature="0" />
  </g>
  <g
     clip-path="url(#c)"
     transform="matrix(0.16276063,0,0,-0.16276063,-1.8750619,50.039128)"
     id="g28">
    <path
       d="m 288,27.36 c 146.73,0 265.68,60.28 265.68,134.64 0,74.36 -118.95,134.643 -265.68,134.643 -146.73,0 -265.68,-60.282 -265.68,-134.64 C 22.32,87.64 141.27,27.36 288,27.36"
       id="path26"
       inkscape:connector-curvature="0"
       style="fill:#777bb3" />
  </g>
  <g
     clip-path="url(#d)"
     transform="matrix(0.16276063,0,0,-0.16276063,-1.8750619,50.039128)"
     id="g42">
    <path
       d="m 161.73,145.31 c 12.065,0 21.072,2.225 26.77,6.61 5.64,4.342 9.533,11.863 11.574,22.354 1.903,9.806 1.178,16.653 -2.154,20.348 -3.407,3.774 -10.773,5.688 -21.893,5.688 h -19.28 l -10.69,-55 z M 98.667,77.56 c -0.895,0 -1.745,0.4 -2.314,1.092 -0.57,0.69 -0.8,1.6 -0.63,2.48 l 28.328,145.75 c 0.28,1.41 1.51,2.428 2.95,2.428 h 61.05 c 19.19,0 33.47,-5.21 42.45,-15.487 9.03,-10.33 11.81,-24.772 8.288,-42.92 -1.435,-7.395 -3.905,-14.262 -7.34,-20.41 -3.44,-6.155 -7.984,-11.85 -13.51,-16.93 -6.629,-6.193 -14.111,-10.683 -22.249,-13.323 -8,-2.61 -18.278,-3.93 -30.546,-3.93 h -24.722 l -7.06,-36.322 c -0.274,-1.41 -1.508,-2.428 -2.944,-2.428 h -31.75 z"
       id="path30"
       inkscape:connector-curvature="0" />
    <path
       d="m 159.22,197.31 h 16.808 c 13.42,0 18.083,-2.945 19.667,-4.7 2.628,-2.914 3.124,-9.058 1.435,-17.767 -1.898,-9.75 -5.416,-16.663 -10.458,-20.545 -5.162,-3.974 -13.554,-5.988 -24.94,-5.988 h -12.036 z m 28.83,35 h -61.054 c -2.872,0 -5.34,-2.036 -5.89,-4.855 L 92.779,81.705 c -0.35,-1.76 0.12,-3.58 1.25,-4.962 1.14,-1.383 2.84,-2.183 4.63,-2.183 h 31.75 c 2.87,0 5.34,2.036 5.89,4.855 l 6.591,33.895 h 22.25 c 12.58,0 23.177,1.372 31.48,4.077 8.54,2.775 16.4,7.48 23.356,13.984 5.75,5.3 10.49,11.24 14.08,17.66 3.59,6.42 6.17,13.6 7.667,21.3 3.715,19.11 0.697,34.41 -8.97,45.47 -9.566,10.959 -24.608,16.509 -44.7,16.509 m -45.633,-90 h 19.31 c 12.802,0 22.337,2.41 28.602,7.234 6.266,4.824 10.492,12.876 12.688,24.156 2.1,10.833 1.144,18.477 -2.87,22.93 -4.02,4.453 -12.06,6.68 -24.123,6.68 h -21.753 l -11.856,-61 m 45.632,84 c 18.368,0 31.767,-4.82 40.19,-14.46 8.42,-9.642 10.956,-23.1 7.596,-40.376 -1.383,-7.117 -3.722,-13.624 -7.015,-19.52 -3.29,-5.898 -7.6,-11.292 -12.92,-16.184 -6.34,-5.93 -13.38,-10.16 -21.13,-12.673 -7.751,-2.53 -17.621,-3.787 -29.621,-3.787 h -27.2 l -7.532,-38.75 h -31.75 l 28.328,145.75 h 61.054"
       id="path32"
       inkscape:connector-curvature="0"
       style="fill:#ffffff" />
    <path
       d="m 311.58,116.31 c -0.896,0 -1.745,0.4 -2.314,1.092 -0.57,0.69 -0.802,1.6 -0.63,2.48 l 12.53,64.49 c 1.192,6.132 0.898,10.534 -0.827,12.394 -1.059,1.137 -4.229,3.044 -13.609,3.044 h -22.7 l -15.755,-81.072 c -0.275,-1.41 -1.51,-2.428 -2.945,-2.428 h -31.5 c -0.896,0 -1.745,0.4 -2.315,1.092 -0.57,0.69 -0.8,1.6 -0.63,2.48 l 28.328,145.75 c 0.274,1.41 1.51,2.428 2.945,2.428 h 31.5 c 0.896,0 1.745,-0.4 2.315,-1.09 0.57,-0.693 0.8,-1.602 0.63,-2.482 l -6.836,-35.178 h 24.423 c 18.604,0 31.22,-3.28 38.568,-10.028 7.49,-6.884 9.827,-17.89 6.947,-32.72 l -13.18,-67.822 c -0.275,-1.412 -1.508,-2.43 -2.945,-2.43 z"
       id="path34"
       inkscape:connector-curvature="0" />
    <path
       d="m 293.66,271.06 h -31.5 c -2.873,0 -5.342,-2.036 -5.89,-4.855 l -28.328,-145.75 c -0.342,-1.76 0.12,-3.58 1.26,-4.962 1.14,-1.383 2.838,-2.183 4.63,-2.183 h 31.5 c 2.872,0 5.342,2.036 5.89,4.855 l 15.283,78.645 h 20.23 c 9.362,0 11.327,-2 11.406,-2.086 0.57,-0.61 1.32,-3.44 0.09,-9.78 l -12.53,-64.49 c -0.34,-1.76 0.12,-3.578 1.26,-4.96 1.14,-1.384 2.84,-2.184 4.63,-2.184 h 32 c 2.87,0 5.34,2.036 5.89,4.855 l 13.169,67.825 c 3.094,15.92 0.448,27.864 -7.86,35.5 -7.928,7.28 -21.208,10.82 -40.6,10.82 h -20.782 l 6.142,31.605 c 0.34,1.76 -0.12,3.58 -1.26,4.96 -1.14,1.385 -2.838,2.185 -4.63,2.185 m 0,-6 -7.53,-38.75 h 28.06 c 17.658,0 29.837,-3.082 36.54,-9.238 6.703,-6.16 8.71,-16.14 6.032,-29.938 l -13.18,-67.824 h -32 l 12.53,64.488 c 1.427,7.336 0.903,12.34 -1.573,15.008 -2.48,2.668 -7.75,4.004 -15.81,4.004 h -25.18 l -16.23,-83.5 h -31.5 l 28.341,145.75 h 31.5"
       id="path36"
       inkscape:connector-curvature="0"
       style="fill:#ffffff" />
    <path
       d="m 409.55,145.31 c 12.065,0 21.072,2.225 26.77,6.61 5.64,4.34 9.533,11.862 11.575,22.354 1.903,9.806 1.178,16.653 -2.155,20.348 -3.407,3.774 -10.773,5.688 -21.893,5.688 h -19.28 l -10.69,-55 z M 346.488,77.56 c -0.895,0 -1.745,0.4 -2.314,1.092 -0.57,0.69 -0.802,1.6 -0.63,2.48 l 28.327,145.75 c 0.28,1.41 1.51,2.428 2.95,2.428 h 61.05 c 19.19,0 33.47,-5.21 42.45,-15.487 9.03,-10.33 11.81,-24.77 8.29,-42.92 -1.434,-7.395 -3.903,-14.262 -7.34,-20.41 -3.44,-6.155 -7.982,-11.85 -13.51,-16.93 -6.631,-6.193 -14.113,-10.683 -22.251,-13.323 -8,-2.61 -18.278,-3.93 -30.546,-3.93 H 388.24 l -7.056,-36.322 c -0.275,-1.41 -1.51,-2.428 -2.946,-2.428 z"
       id="path38"
       inkscape:connector-curvature="0" />
    <path
       d="m 407.04,197.31 h 16.808 c 13.42,0 18.083,-2.945 19.667,-4.7 2.63,-2.914 3.125,-9.058 1.435,-17.766 -1.898,-9.75 -5.417,-16.664 -10.458,-20.546 -5.162,-3.974 -13.554,-5.988 -24.94,-5.988 h -12.035 z m 28.83,35 h -61.053 c -2.872,0 -5.34,-2.036 -5.89,-4.855 L 340.6,81.705 c -0.342,-1.76 0.12,-3.58 1.26,-4.962 1.14,-1.383 2.837,-2.183 4.63,-2.183 h 31.75 c 2.87,0 5.34,2.036 5.89,4.855 l 6.585,33.895 h 22.25 c 12.58,0 23.173,1.372 31.478,4.077 8.54,2.775 16.4,7.48 23.356,13.986 5.75,5.29 10.48,11.23 14.07,17.655 3.591,6.427 6.171,13.594 7.671,21.302 3.715,19.105 0.697,34.403 -8.97,45.467 -9.563,10.957 -24.608,16.513 -44.698,16.513 m -45.632,-90 h 19.31 c 12.802,0 22.337,2.41 28.602,7.234 6.268,4.824 10.492,12.876 12.688,24.156 2.102,10.833 1.145,18.477 -2.87,22.93 -4.02,4.453 -12.06,6.68 -24.123,6.68 h -21.753 l -11.854,-61 m 45.63,84 c 18.368,0 31.767,-4.82 40.19,-14.46 8.42,-9.642 10.956,-23.1 7.596,-40.376 -1.383,-7.117 -3.722,-13.624 -7.015,-19.52 -3.29,-5.898 -7.6,-11.292 -12.92,-16.184 -6.34,-5.93 -13.38,-10.16 -21.13,-12.673 -7.751,-2.53 -17.621,-3.787 -29.621,-3.787 h -27.2 l -7.53,-38.75 h -31.75 l 28.326,145.75 h 61.054"
       id="path40"
       inkscape:connector-curvature="0"
       style="fill:#ffffff" />
  </g>
</svg>
