<svg xmlns="http://www.w3.org/2000/svg" fill="#00d5b5" viewBox="0 0 365.30201 75.877998" >
  <path d="M24.552 24.653c-1.212 5.153-3.536 8.79-8.184 11.922h15.964V24.653zM0 24.653v11.922h5.052c8.992 0 14.448-4.749 16.57-11.922zm22.127-2.93c.202-.808.202-1.718.202-2.728V9.801H10.205v6.87c0 2.021-.404 3.84-1.313 5.052zM8.993 39.505v20.207c0 9.598 6.062 15.357 15.761 15.357 4.951 0 7.578-1.212 7.578-1.212V62.743c-.708.202-2.526.404-4.143.404-3.839 0-5.86-1.414-5.86-5.759V39.505zM71.23 24.451c-1.01-.101-2.021-.202-3.132-.202-4.243 0-11.114 1.212-14.145 7.78v-7.376H40.92v49.709h13.437V51.629c0-10.709 5.961-14.044 12.832-14.044 1.212 0 2.526.102 4.041.405zm5.052 36.373c0 7.779 6.466 14.953 17.075 14.953 7.375 0 12.124-3.436 14.65-7.376 0 1.92.202 4.648.505 5.961h12.326c-.303-1.717-.606-5.254-.606-7.881v-24.45c0-10.002-5.86-18.894-21.621-18.894-13.337 0-20.51 8.588-21.319 16.368l11.922 2.526c.405-4.344 3.638-8.083 9.498-8.083 5.658 0 8.386 2.93 8.386 6.466 0 1.718-.91 3.133-3.739 3.537l-12.225 1.818c-8.285 1.213-14.852 6.163-14.852 15.055m19.904 4.95c-4.345 0-6.466-2.829-6.466-5.759 0-3.839 2.728-5.759 6.163-6.264l11.215-1.718v2.223c0 8.79-5.254 11.518-10.912 11.518M325.838 43.85c.303-4.547 4.143-9.801 11.114-9.801 7.679 0 10.912 4.85 11.114 9.801zm23.541 12.932c-1.616 4.446-5.051 7.578-11.315 7.578-6.669 0-12.226-4.749-12.529-11.316H361.1c0-.202.202-2.223.202-4.143 0-15.963-9.195-25.764-24.552-25.764-12.73 0-24.45 10.306-24.45 26.169 0 16.771 12.023 26.572 25.662 26.572 12.226 0 20.106-7.174 22.632-15.762zM143.773 24.653h-13.438v49.709h13.438zM128.719 8.386c0 4.446 3.738 8.184 8.285 8.184 4.648 0 8.285-3.738 8.285-8.184 0-4.647-3.637-8.386-8.285-8.386-4.547 0-8.285 3.739-8.285 8.386m121.343 16.267h-13.438v49.709h13.438zM235.008 8.386c0 4.446 3.738 8.184 8.285 8.184 4.647 0 8.285-3.738 8.285-8.184 0-4.647-3.638-8.386-8.285-8.386-4.547 0-8.285 3.739-8.285 8.386m-67.795 37.383c0-5.759 3.436-10.305 9.296-10.305 6.466 0 9.194 4.344 9.194 9.901v28.997h13.437V43.041c0-10.911-5.658-19.701-17.984-19.701-5.355 0-11.316 2.323-14.347 7.476v-6.163h-13.033v49.709h13.437zm106.188 0c0-5.759 3.435-10.305 9.295-10.305 6.467 0 9.195 4.344 9.195 9.901v28.997h13.437V43.041c0-10.911-5.658-19.701-17.984-19.701-5.355 0-11.316 2.323-14.347 7.476v-6.163h-13.034v49.709h13.438zm-44.253 17.277c-.909.101-1.617.101-2.324.101-3.334 0-5.759-1.212-5.759-5.557V1.213h-13.236v58.6c0 9.598 6.063 15.256 15.762 15.256 2.122 0 3.637-.202 5.557-.606z"/>
</svg>