<?xml version="1.0" encoding="UTF-8" standalone="no"?>
<!-- Created with Inkscape (http://www.inkscape.org/) -->

<svg
   xmlns:dc="http://purl.org/dc/elements/1.1/"
   xmlns:cc="http://creativecommons.org/ns#"
   xmlns:rdf="http://www.w3.org/1999/02/22-rdf-syntax-ns#"
   xmlns:svg="http://www.w3.org/2000/svg"
   xmlns="http://www.w3.org/2000/svg"
   version="1.1"
   width="94"
   height="80"
   id="svg2"
   xml:space="preserve"><metadata
     id="metadata8"><rdf:RDF><cc:Work
         rdf:about=""><dc:format>image/svg+xml</dc:format><dc:type
           rdf:resource="http://purl.org/dc/dcmitype/StillImage" /><dc:title></dc:title></cc:Work></rdf:RDF></metadata><defs
     id="defs6"><clipPath
       id="clipPath16"><path
         d="m 0,108.826 127.807,0 L 127.807,0 0,0 0,108.826 z"
         id="path18" /></clipPath></defs><g
     transform="matrix(1.25,0,0,-1.25,0,79.999999)"
     id="g10"><g
       transform="scale(0.58809476,0.58809476)"
       id="g12"><g
         clip-path="url(#clipPath16)"
         id="g14"><g
           transform="translate(20.53,58.576)"
           id="g20"><path
             d="m 0,0 -6.098,0 -0.803,0 -6.097,0 c -4.16,0 -7.532,-3.372 -7.532,-7.532 l 0,-18.406 c 0,-1.435 1.163,-2.598 2.598,-2.598 l 0.052,0 c 1.435,0 2.598,1.163 2.598,2.598 l 0,16.713 1.312,0 0,-46.012 c 0,-1.844 1.495,-3.339 3.339,-3.339 l 0.067,0 c 1.844,0 3.339,1.495 3.339,3.339 l 0,26.701 0.324,0 0.803,0 0.325,0 0,-26.701 c 0,-1.844 1.495,-3.339 3.339,-3.339 l 0.067,0 c 1.844,0 3.339,1.495 3.339,3.339 l 0,46.012 1.312,0 0,-16.713 c 0,-1.435 1.163,-2.598 2.597,-2.598 l 0.053,0 c 1.435,0 2.598,1.163 2.598,2.598 l 0,18.406 C 7.532,-3.372 4.16,0 0,0"
             id="path22"
             style="fill:#e35b6b;fill-opacity:1;fill-rule:nonzero;stroke:none" /></g><g
           transform="translate(14.0309,59.9015)"
           id="g24"><path
             d="m 0,0 c 3.487,0 6.314,2.827 6.314,6.314 0,3.487 -2.827,6.314 -6.314,6.314 -3.487,0 -6.314,-2.827 -6.314,-6.314 C -6.314,2.827 -3.487,0 0,0"
             id="path26"
             style="fill:#e35b6b;fill-opacity:1;fill-rule:nonzero;stroke:none" /></g><g
           transform="translate(53.8714,58.576)"
           id="g28"><path
             d="m 0,0 -6.098,0 -0.803,0 -6.097,0 c -4.16,0 -7.532,-3.372 -7.532,-7.532 l 0,-18.406 c 0,-1.435 1.163,-2.598 2.598,-2.598 l 0.052,0 c 1.435,0 2.598,1.163 2.598,2.598 l 0,16.713 1.312,0 0,-46.012 c 0,-1.844 1.495,-3.339 3.339,-3.339 l 0.067,0 c 1.844,0 3.339,1.495 3.339,3.339 l 0,26.701 0.324,0 0.803,0 0.325,0 0,-26.701 c 0,-1.844 1.495,-3.339 3.339,-3.339 l 0.067,0 c 1.844,0 3.339,1.495 3.339,3.339 l 0,46.012 1.312,0 0,-16.713 c 0,-1.435 1.163,-2.598 2.597,-2.598 l 0.053,0 c 1.435,0 2.598,1.163 2.598,2.598 l 0,18.406 C 7.532,-3.372 4.16,0 0,0"
             id="path30"
             style="fill:#e35b6b;fill-opacity:1;fill-rule:nonzero;stroke:none" /></g><g
           transform="translate(47.3723,59.9015)"
           id="g32"><path
             d="m 0,0 c 3.487,0 6.314,2.827 6.314,6.314 0,3.487 -2.827,6.314 -6.314,6.314 -3.487,0 -6.314,-2.827 -6.314,-6.314 C -6.314,2.827 -3.487,0 0,0"
             id="path34"
             style="fill:#e35b6b;fill-opacity:1;fill-rule:nonzero;stroke:none" /></g><g
           transform="translate(86.9334,58.576)"
           id="g36"><path
             d="m 0,0 -6.098,0 -0.803,0 -6.097,0 c -4.16,0 -7.532,-3.372 -7.532,-7.532 l 0,-18.406 c 0,-1.435 1.163,-2.598 2.598,-2.598 l 0.052,0 c 1.435,0 2.598,1.163 2.598,2.598 l 0,16.713 1.312,0 0,-46.012 c 0,-1.844 1.495,-3.339 3.339,-3.339 l 0.067,0 c 1.844,0 3.339,1.495 3.339,3.339 l 0,26.701 0.324,0 0.803,0 0.325,0 0,-26.701 c 0,-1.844 1.495,-3.339 3.339,-3.339 l 0.067,0 c 1.844,0 3.339,1.495 3.339,3.339 l 0,46.012 1.312,0 0,-16.713 c 0,-1.435 1.163,-2.598 2.597,-2.598 l 0.053,0 c 1.435,0 2.598,1.163 2.598,2.598 l 0,18.406 C 7.532,-3.372 4.16,0 0,0"
             id="path38"
             style="fill:#e35b6b;fill-opacity:1;fill-rule:nonzero;stroke:none" /></g><g
           transform="translate(80.4343,59.9015)"
           id="g40"><path
             d="m 0,0 c 3.487,0 6.314,2.827 6.314,6.314 0,3.487 -2.827,6.314 -6.314,6.314 -3.487,0 -6.314,-2.827 -6.314,-6.314 C -6.314,2.827 -3.487,0 0,0"
             id="path42"
             style="fill:#e35b6b;fill-opacity:1;fill-rule:nonzero;stroke:none" /></g><g
           transform="translate(120.2748,58.576)"
           id="g44"><path
             d="m 0,0 -6.098,0 -0.803,0 -6.097,0 c -4.16,0 -7.532,-3.372 -7.532,-7.532 l 0,-18.406 c 0,-1.435 1.163,-2.598 2.598,-2.598 l 0.052,0 c 1.435,0 2.598,1.163 2.598,2.598 l 0,16.713 1.312,0 0,-46.012 c 0,-1.844 1.495,-3.339 3.339,-3.339 l 0.067,0 c 1.844,0 3.339,1.495 3.339,3.339 l 0,26.701 0.324,0 0.803,0 0.325,0 0,-26.701 c 0,-1.844 1.495,-3.339 3.339,-3.339 l 0.067,0 c 1.844,0 3.339,1.495 3.339,3.339 l 0,46.012 1.312,0 0,-16.713 c 0,-1.435 1.163,-2.598 2.597,-2.598 l 0.053,0 c 1.435,0 2.598,1.163 2.598,2.598 l 0,18.406 C 7.532,-3.372 4.16,0 0,0"
             id="path46"
             style="fill:#e35b6b;fill-opacity:1;fill-rule:nonzero;stroke:none" /></g><g
           transform="translate(113.7757,59.9015)"
           id="g48"><path
             d="m 0,0 c 3.487,0 6.314,2.827 6.314,6.314 0,3.487 -2.827,6.314 -6.314,6.314 -3.487,0 -6.314,-2.827 -6.314,-6.314 C -6.314,2.827 -3.487,0 0,0"
             id="path50"
             style="fill:#e35b6b;fill-opacity:1;fill-rule:nonzero;stroke:none" /></g><g
           transform="translate(113.7737,81.6742)"
           id="g52"><path
             d="m 0,0 c -0.01,0 -0.02,-0.001 -0.03,-0.001 -0.652,-0.007 -1.308,0.238 -1.806,0.736 -0.161,0.161 -0.295,0.339 -0.403,0.527 l -7.757,7.757 c -0.981,0.981 -0.981,2.571 0,3.551 0.49,0.491 1.133,0.736 1.775,0.736 0.642,0 1.285,-0.245 1.775,-0.736 l 3.875,-3.875 0,15.885 c 0,1.421 1.152,2.572 2.573,2.572 0.71,0 1.354,-0.287 1.819,-0.753 0.466,-0.465 0.754,-1.109 0.754,-1.819 l 0,-15.885 3.875,3.875 c 0.98,0.981 2.57,0.981 3.55,0 0.491,-0.49 0.736,-1.133 0.736,-1.775 C 10.736,10.153 10.491,9.51 10,9.019 L 2.243,1.262 C 2.135,1.074 2.001,0.896 1.839,0.735 1.342,0.237 0.686,-0.008 0.034,-0.001 0.024,-0.001 0.014,0 0.004,0 L 0,0"
             id="path54"
             style="fill:#445568;fill-opacity:1;fill-rule:nonzero;stroke:none" /></g><g
           transform="translate(80.5254,81.6742)"
           id="g56"><path
             d="m 0,0 c -0.01,0 -0.02,-0.001 -0.03,-0.001 -0.652,-0.007 -1.308,0.238 -1.806,0.736 -0.161,0.161 -0.295,0.339 -0.403,0.527 l -7.757,7.757 c -0.981,0.981 -0.981,2.571 0,3.551 0.49,0.491 1.133,0.736 1.775,0.736 0.642,0 1.285,-0.245 1.775,-0.736 l 3.875,-3.875 0,15.885 c 0,1.421 1.152,2.572 2.573,2.572 0.71,0 1.354,-0.287 1.819,-0.753 0.466,-0.465 0.754,-1.109 0.754,-1.819 l 0,-15.885 3.875,3.875 c 0.98,0.981 2.57,0.981 3.55,0 0.491,-0.49 0.736,-1.133 0.736,-1.775 C 10.736,10.153 10.491,9.51 10,9.019 L 2.243,1.262 C 2.135,1.074 2.001,0.896 1.839,0.735 1.342,0.237 0.686,-0.008 0.034,-0.001 0.024,-0.001 0.014,0 0.004,0 L 0,0"
             id="path58"
             style="fill:#445568;fill-opacity:1;fill-rule:nonzero;stroke:none" /></g><g
           transform="translate(47.2771,81.6742)"
           id="g60"><path
             d="m 0,0 c -0.01,0 -0.02,-0.001 -0.03,-0.001 -0.652,-0.007 -1.308,0.238 -1.806,0.736 -0.161,0.161 -0.295,0.339 -0.403,0.527 l -7.757,7.757 c -0.981,0.981 -0.981,2.571 0,3.551 0.49,0.491 1.133,0.736 1.775,0.736 0.642,0 1.285,-0.245 1.775,-0.736 l 3.875,-3.875 0,15.885 c 0,1.421 1.152,2.572 2.573,2.572 0.71,0 1.354,-0.287 1.819,-0.753 0.466,-0.465 0.754,-1.109 0.754,-1.819 l 0,-15.885 3.875,3.875 c 0.98,0.981 2.57,0.981 3.55,0 0.491,-0.49 0.736,-1.133 0.736,-1.775 C 10.736,10.153 10.491,9.51 10,9.019 L 2.243,1.262 C 2.135,1.074 2.001,0.896 1.839,0.735 1.342,0.237 0.686,-0.008 0.034,-0.001 0.024,-0.001 0.014,0 0.004,0 L 0,0"
             id="path62"
             style="fill:#445568;fill-opacity:1;fill-rule:nonzero;stroke:none" /></g><g
           transform="translate(14.0288,81.6742)"
           id="g64"><path
             d="m 0,0 c -0.01,0 -0.02,-0.001 -0.03,-0.001 -0.652,-0.007 -1.308,0.238 -1.806,0.736 -0.161,0.161 -0.295,0.339 -0.403,0.527 l -7.757,7.757 c -0.981,0.981 -0.981,2.571 0,3.551 0.49,0.491 1.133,0.736 1.775,0.736 0.642,0 1.285,-0.245 1.775,-0.736 l 3.875,-3.875 0,15.885 c 0,1.421 1.152,2.572 2.573,2.572 0.71,0 1.354,-0.287 1.819,-0.753 0.466,-0.465 0.754,-1.109 0.754,-1.819 l 0,-15.885 3.875,3.875 c 0.98,0.981 2.57,0.981 3.55,0 0.491,-0.49 0.736,-1.133 0.736,-1.775 C 10.736,10.153 10.491,9.51 10,9.019 L 2.243,1.262 C 2.135,1.074 2.001,0.896 1.839,0.735 1.342,0.237 0.686,-0.008 0.034,-0.001 0.024,-0.001 0.014,0 0.004,0 L 0,0"
             id="path66"
             style="fill:#445568;fill-opacity:1;fill-rule:nonzero;stroke:none" /></g></g></g></g></svg>