<?xml version="1.0" encoding="UTF-8" standalone="no"?>
<!-- Created with Inkscape (http://www.inkscape.org/) -->

<svg
   xmlns:dc="http://purl.org/dc/elements/1.1/"
   xmlns:cc="http://creativecommons.org/ns#"
   xmlns:rdf="http://www.w3.org/1999/02/22-rdf-syntax-ns#"
   xmlns:svg="http://www.w3.org/2000/svg"
   xmlns="http://www.w3.org/2000/svg"
   version="1.1"
   width="106.2"
   height="83"
   id="svg2"
   xml:space="preserve"><metadata
     id="metadata8"><rdf:RDF><cc:Work
         rdf:about=""><dc:format>image/svg+xml</dc:format><dc:type
           rdf:resource="http://purl.org/dc/dcmitype/StillImage" /><dc:title></dc:title></cc:Work></rdf:RDF></metadata><defs
     id="defs6"><clipPath
       id="clipPath16"><path
         d="m 0,153.029 195.858,0 L 195.858,0 0,0 0,153.029 z"
         id="path18" /></clipPath></defs><g
     transform="matrix(1.25,0,0,-1.25,0,82.999995)"
     id="g10"><g
       transform="scale(0.43390468,0.43390468)"
       id="g12"><g
         clip-path="url(#clipPath16)"
         id="g14"><g
           transform="translate(121.426,139.076)"
           id="g20"><path
             d="m 0,0 -6.098,0 -0.803,0 -6.097,0 c -4.16,0 -7.532,-3.372 -7.532,-7.532 l 0,-18.406 c 0,-1.435 1.163,-2.598 2.598,-2.598 l 0.052,0 c 1.435,0 2.598,1.163 2.598,2.598 l 0,16.713 1.312,0 0,-46.012 c 0,-1.844 1.495,-3.339 3.339,-3.339 l 0.067,0 c 1.844,0 3.339,1.495 3.339,3.339 l 0,26.701 0.324,0 0.803,0 0.325,0 0,-26.701 c 0,-1.844 1.495,-3.339 3.339,-3.339 l 0.067,0 c 1.844,0 3.339,1.495 3.339,3.339 l 0,46.012 1.312,0 0,-16.713 c 0,-1.435 1.163,-2.598 2.597,-2.598 l 0.053,0 c 1.435,0 2.598,1.163 2.598,2.598 l 0,18.406 C 7.532,-3.372 4.16,0 0,0"
             id="path22"
             style="fill:#6fcbd1;fill-opacity:1;fill-rule:nonzero;stroke:none" /></g><g
           transform="translate(114.9269,140.4015)"
           id="g24"><path
             d="m 0,0 c 3.487,0 6.314,2.827 6.314,6.314 0,3.487 -2.827,6.314 -6.314,6.314 -3.487,0 -6.314,-2.827 -6.314,-6.314 C -6.314,2.827 -3.487,0 0,0"
             id="path26"
             style="fill:#6fcbd1;fill-opacity:1;fill-rule:nonzero;stroke:none" /></g><g
           transform="translate(154.7674,139.076)"
           id="g28"><path
             d="m 0,0 -6.098,0 -0.803,0 -6.097,0 c -4.16,0 -7.532,-3.372 -7.532,-7.532 l 0,-18.406 c 0,-1.435 1.163,-2.598 2.598,-2.598 l 0.052,0 c 1.435,0 2.598,1.163 2.598,2.598 l 0,16.713 1.312,0 0,-46.012 c 0,-1.844 1.495,-3.339 3.339,-3.339 l 0.067,0 c 1.844,0 3.339,1.495 3.339,3.339 l 0,26.701 0.324,0 0.803,0 0.325,0 0,-26.701 c 0,-1.844 1.495,-3.339 3.339,-3.339 l 0.067,0 c 1.844,0 3.339,1.495 3.339,3.339 l 0,46.012 1.312,0 0,-16.713 c 0,-1.435 1.163,-2.598 2.597,-2.598 l 0.053,0 c 1.435,0 2.598,1.163 2.598,2.598 l 0,18.406 C 7.532,-3.372 4.16,0 0,0"
             id="path30"
             style="fill:#6fcbd1;fill-opacity:1;fill-rule:nonzero;stroke:none" /></g><g
           transform="translate(148.2683,140.4015)"
           id="g32"><path
             d="m 0,0 c 3.487,0 6.314,2.827 6.314,6.314 0,3.487 -2.827,6.314 -6.314,6.314 -3.487,0 -6.314,-2.827 -6.314,-6.314 C -6.314,2.827 -3.487,0 0,0"
             id="path34"
             style="fill:#6fcbd1;fill-opacity:1;fill-rule:nonzero;stroke:none" /></g><g
           transform="translate(54.5826,139.076)"
           id="g36"><path
             d="m 0,0 -6.098,0 -0.803,0 -6.097,0 c -4.16,0 -7.532,-3.372 -7.532,-7.532 l 0,-18.406 c 0,-1.435 1.163,-2.598 2.598,-2.598 l 0.052,0 c 1.435,0 2.598,1.163 2.598,2.598 l 0,16.713 1.312,0 0,-46.012 c 0,-1.844 1.495,-3.339 3.339,-3.339 l 0.067,0 c 1.844,0 3.339,1.495 3.339,3.339 l 0,26.701 0.324,0 0.803,0 0.325,0 0,-26.701 c 0,-1.844 1.495,-3.339 3.339,-3.339 l 0.067,0 c 1.844,0 3.339,1.495 3.339,3.339 l 0,46.012 1.312,0 0,-16.713 c 0,-1.435 1.163,-2.598 2.597,-2.598 l 0.053,0 c 1.435,0 2.598,1.163 2.598,2.598 l 0,18.406 C 7.532,-3.372 4.16,0 0,0"
             id="path38"
             style="fill:#445568;fill-opacity:1;fill-rule:nonzero;stroke:none" /></g><g
           transform="translate(48.0835,140.4015)"
           id="g40"><path
             d="m 0,0 c 3.487,0 6.314,2.827 6.314,6.314 0,3.487 -2.827,6.314 -6.314,6.314 -3.487,0 -6.314,-2.827 -6.314,-6.314 C -6.314,2.827 -3.487,0 0,0"
             id="path42"
             style="fill:#445568;fill-opacity:1;fill-rule:nonzero;stroke:none" /></g><g
           transform="translate(87.924,139.076)"
           id="g44"><path
             d="m 0,0 -6.098,0 -0.803,0 -6.097,0 c -4.16,0 -7.532,-3.372 -7.532,-7.532 l 0,-18.406 c 0,-1.435 1.163,-2.598 2.598,-2.598 l 0.052,0 c 1.435,0 2.598,1.163 2.598,2.598 l 0,16.713 1.312,0 0,-46.012 c 0,-1.844 1.495,-3.339 3.339,-3.339 l 0.067,0 c 1.844,0 3.339,1.495 3.339,3.339 l 0,26.701 0.324,0 0.803,0 0.325,0 0,-26.701 c 0,-1.844 1.495,-3.339 3.339,-3.339 l 0.067,0 c 1.844,0 3.339,1.495 3.339,3.339 l 0,46.012 1.312,0 0,-16.713 c 0,-1.435 1.163,-2.598 2.597,-2.598 l 0.053,0 c 1.435,0 2.598,1.163 2.598,2.598 l 0,18.406 C 7.532,-3.372 4.16,0 0,0"
             id="path46"
             style="fill:#445568;fill-opacity:1;fill-rule:nonzero;stroke:none" /></g><g
           transform="translate(81.4249,140.4015)"
           id="g48"><path
             d="m 0,0 c 3.487,0 6.314,2.827 6.314,6.314 0,3.487 -2.827,6.314 -6.314,6.314 -3.487,0 -6.314,-2.827 -6.314,-6.314 C -6.314,2.827 -3.487,0 0,0"
             id="path50"
             style="fill:#445568;fill-opacity:1;fill-rule:nonzero;stroke:none" /></g><g
           transform="translate(121.426,58.576)"
           id="g52"><path
             d="m 0,0 -6.098,0 -0.803,0 -6.097,0 c -4.16,0 -7.532,-3.372 -7.532,-7.532 l 0,-18.406 c 0,-1.435 1.163,-2.598 2.598,-2.598 l 0.052,0 c 1.435,0 2.598,1.163 2.598,2.598 l 0,16.713 1.312,0 0,-46.012 c 0,-1.844 1.495,-3.339 3.339,-3.339 l 0.067,0 c 1.844,0 3.339,1.495 3.339,3.339 l 0,26.701 0.324,0 0.803,0 0.325,0 0,-26.701 c 0,-1.844 1.495,-3.339 3.339,-3.339 l 0.067,0 c 1.844,0 3.339,1.495 3.339,3.339 l 0,46.012 1.312,0 0,-16.713 c 0,-1.435 1.163,-2.598 2.597,-2.598 l 0.053,0 c 1.435,0 2.598,1.163 2.598,2.598 l 0,18.406 C 7.532,-3.372 4.16,0 0,0"
             id="path54"
             style="fill:#445568;fill-opacity:1;fill-rule:nonzero;stroke:none" /></g><g
           transform="translate(114.9269,59.9015)"
           id="g56"><path
             d="m 0,0 c 3.487,0 6.314,2.827 6.314,6.314 0,3.487 -2.827,6.314 -6.314,6.314 -3.487,0 -6.314,-2.827 -6.314,-6.314 C -6.314,2.827 -3.487,0 0,0"
             id="path58"
             style="fill:#445568;fill-opacity:1;fill-rule:nonzero;stroke:none" /></g><g
           transform="translate(154.7674,58.576)"
           id="g60"><path
             d="m 0,0 -6.098,0 -0.803,0 -6.097,0 c -4.16,0 -7.532,-3.372 -7.532,-7.532 l 0,-18.406 c 0,-1.435 1.163,-2.598 2.598,-2.598 l 0.052,0 c 1.435,0 2.598,1.163 2.598,2.598 l 0,16.713 1.312,0 0,-46.012 c 0,-1.844 1.495,-3.339 3.339,-3.339 l 0.067,0 c 1.844,0 3.339,1.495 3.339,3.339 l 0,26.701 0.324,0 0.803,0 0.325,0 0,-26.701 c 0,-1.844 1.495,-3.339 3.339,-3.339 l 0.067,0 c 1.844,0 3.339,1.495 3.339,3.339 l 0,46.012 1.312,0 0,-16.713 c 0,-1.435 1.163,-2.598 2.597,-2.598 l 0.053,0 c 1.435,0 2.598,1.163 2.598,2.598 l 0,18.406 C 7.532,-3.372 4.16,0 0,0"
             id="path62"
             style="fill:#445568;fill-opacity:1;fill-rule:nonzero;stroke:none" /></g><g
           transform="translate(148.2683,59.9015)"
           id="g64"><path
             d="m 0,0 c 3.487,0 6.314,2.827 6.314,6.314 0,3.487 -2.827,6.314 -6.314,6.314 -3.487,0 -6.314,-2.827 -6.314,-6.314 C -6.314,2.827 -3.487,0 0,0"
             id="path66"
             style="fill:#445568;fill-opacity:1;fill-rule:nonzero;stroke:none" /></g><g
           transform="translate(188.3262,139.076)"
           id="g68"><path
             d="m 0,0 -6.098,0 -0.803,0 -6.097,0 c -4.16,0 -7.532,-3.372 -7.532,-7.532 l 0,-18.406 c 0,-1.435 1.163,-2.598 2.598,-2.598 l 0.052,0 c 1.435,0 2.598,1.163 2.598,2.598 l 0,16.713 1.312,0 0,-46.012 c 0,-1.844 1.495,-3.339 3.339,-3.339 l 0.067,0 c 1.844,0 3.339,1.495 3.339,3.339 l 0,26.701 0.324,0 0.803,0 0.325,0 0,-26.701 c 0,-1.844 1.495,-3.339 3.339,-3.339 l 0.067,0 c 1.844,0 3.339,1.495 3.339,3.339 l 0,46.012 1.312,0 0,-16.713 c 0,-1.435 1.163,-2.598 2.597,-2.598 l 0.053,0 c 1.435,0 2.598,1.163 2.598,2.598 l 0,18.406 C 7.532,-3.372 4.16,0 0,0"
             id="path70"
             style="fill:#6fcbd1;fill-opacity:1;fill-rule:nonzero;stroke:none" /></g><g
           transform="translate(181.8271,140.4015)"
           id="g72"><path
             d="m 0,0 c 3.487,0 6.314,2.827 6.314,6.314 0,3.487 -2.827,6.314 -6.314,6.314 -3.487,0 -6.314,-2.827 -6.314,-6.314 C -6.314,2.827 -3.487,0 0,0"
             id="path74"
             style="fill:#6fcbd1;fill-opacity:1;fill-rule:nonzero;stroke:none" /></g><g
           transform="translate(188.3262,58.576)"
           id="g76"><path
             d="m 0,0 -6.098,0 -0.803,0 -6.097,0 c -4.16,0 -7.532,-3.372 -7.532,-7.532 l 0,-18.406 c 0,-1.435 1.163,-2.598 2.598,-2.598 l 0.052,0 c 1.435,0 2.598,1.163 2.598,2.598 l 0,16.713 1.312,0 0,-46.012 c 0,-1.844 1.495,-3.339 3.339,-3.339 l 0.067,0 c 1.844,0 3.339,1.495 3.339,3.339 l 0,26.701 0.324,0 0.803,0 0.325,0 0,-26.701 c 0,-1.844 1.495,-3.339 3.339,-3.339 l 0.067,0 c 1.844,0 3.339,1.495 3.339,3.339 l 0,46.012 1.312,0 0,-16.713 c 0,-1.435 1.163,-2.598 2.597,-2.598 l 0.053,0 c 1.435,0 2.598,1.163 2.598,2.598 l 0,18.406 C 7.532,-3.372 4.16,0 0,0"
             id="path78"
             style="fill:#445568;fill-opacity:1;fill-rule:nonzero;stroke:none" /></g><g
           transform="translate(181.8271,59.9015)"
           id="g80"><path
             d="m 0,0 c 3.487,0 6.314,2.827 6.314,6.314 0,3.487 -2.827,6.314 -6.314,6.314 -3.487,0 -6.314,-2.827 -6.314,-6.314 C -6.314,2.827 -3.487,0 0,0"
             id="path82"
             style="fill:#445568;fill-opacity:1;fill-rule:nonzero;stroke:none" /></g><g
           transform="translate(54.5826,58.576)"
           id="g84"><path
             d="m 0,0 -6.098,0 -0.803,0 -6.097,0 c -4.16,0 -7.532,-3.372 -7.532,-7.532 l 0,-18.406 c 0,-1.435 1.163,-2.598 2.598,-2.598 l 0.052,0 c 1.435,0 2.598,1.163 2.598,2.598 l 0,16.713 1.312,0 0,-46.012 c 0,-1.844 1.495,-3.339 3.339,-3.339 l 0.067,0 c 1.844,0 3.339,1.495 3.339,3.339 l 0,26.701 0.324,0 0.803,0 0.325,0 0,-26.701 c 0,-1.844 1.495,-3.339 3.339,-3.339 l 0.067,0 c 1.844,0 3.339,1.495 3.339,3.339 l 0,46.012 1.312,0 0,-16.713 c 0,-1.435 1.163,-2.598 2.597,-2.598 l 0.053,0 c 1.435,0 2.598,1.163 2.598,2.598 l 0,18.406 C 7.532,-3.372 4.16,0 0,0"
             id="path86"
             style="fill:#6fcbd1;fill-opacity:1;fill-rule:nonzero;stroke:none" /></g><g
           transform="translate(48.0835,59.9015)"
           id="g88"><path
             d="m 0,0 c 3.487,0 6.314,2.827 6.314,6.314 0,3.487 -2.827,6.314 -6.314,6.314 -3.487,0 -6.314,-2.827 -6.314,-6.314 C -6.314,2.827 -3.487,0 0,0"
             id="path90"
             style="fill:#6fcbd1;fill-opacity:1;fill-rule:nonzero;stroke:none" /></g><g
           transform="translate(20.53,139.076)"
           id="g92"><path
             d="m 0,0 -6.098,0 -0.803,0 -6.097,0 c -4.16,0 -7.532,-3.372 -7.532,-7.532 l 0,-18.406 c 0,-1.435 1.163,-2.598 2.598,-2.598 l 0.052,0 c 1.435,0 2.598,1.163 2.598,2.598 l 0,16.713 1.312,0 0,-46.012 c 0,-1.844 1.495,-3.339 3.339,-3.339 l 0.067,0 c 1.844,0 3.339,1.495 3.339,3.339 l 0,26.701 0.324,0 0.803,0 0.325,0 0,-26.701 c 0,-1.844 1.495,-3.339 3.339,-3.339 l 0.067,0 c 1.844,0 3.339,1.495 3.339,3.339 l 0,46.012 1.312,0 0,-16.713 c 0,-1.435 1.163,-2.598 2.597,-2.598 l 0.053,0 c 1.435,0 2.598,1.163 2.598,2.598 l 0,18.406 C 7.532,-3.372 4.16,0 0,0"
             id="path94"
             style="fill:#445568;fill-opacity:1;fill-rule:nonzero;stroke:none" /></g><g
           transform="translate(14.0309,140.4015)"
           id="g96"><path
             d="m 0,0 c 3.487,0 6.314,2.827 6.314,6.314 0,3.487 -2.827,6.314 -6.314,6.314 -3.487,0 -6.314,-2.827 -6.314,-6.314 C -6.314,2.827 -3.487,0 0,0"
             id="path98"
             style="fill:#445568;fill-opacity:1;fill-rule:nonzero;stroke:none" /></g><g
           transform="translate(20.53,58.576)"
           id="g100"><path
             d="m 0,0 -6.098,0 -0.803,0 -6.097,0 c -4.16,0 -7.532,-3.372 -7.532,-7.532 l 0,-18.406 c 0,-1.435 1.163,-2.598 2.598,-2.598 l 0.052,0 c 1.435,0 2.598,1.163 2.598,2.598 l 0,16.713 1.312,0 0,-46.012 c 0,-1.844 1.495,-3.339 3.339,-3.339 l 0.067,0 c 1.844,0 3.339,1.495 3.339,3.339 l 0,26.701 0.324,0 0.803,0 0.325,0 0,-26.701 c 0,-1.844 1.495,-3.339 3.339,-3.339 l 0.067,0 c 1.844,0 3.339,1.495 3.339,3.339 l 0,46.012 1.312,0 0,-16.713 c 0,-1.435 1.163,-2.598 2.597,-2.598 l 0.053,0 c 1.435,0 2.598,1.163 2.598,2.598 l 0,18.406 C 7.532,-3.372 4.16,0 0,0"
             id="path102"
             style="fill:#6fcbd1;fill-opacity:1;fill-rule:nonzero;stroke:none" /></g><g
           transform="translate(14.0309,59.9015)"
           id="g104"><path
             d="m 0,0 c 3.487,0 6.314,2.827 6.314,6.314 0,3.487 -2.827,6.314 -6.314,6.314 -3.487,0 -6.314,-2.827 -6.314,-6.314 C -6.314,2.827 -3.487,0 0,0"
             id="path106"
             style="fill:#6fcbd1;fill-opacity:1;fill-rule:nonzero;stroke:none" /></g><g
           transform="translate(87.924,58.576)"
           id="g108"><path
             d="m 0,0 -6.098,0 -0.803,0 -6.097,0 c -4.16,0 -7.532,-3.372 -7.532,-7.532 l 0,-18.406 c 0,-1.435 1.163,-2.598 2.598,-2.598 l 0.052,0 c 1.435,0 2.598,1.163 2.598,2.598 l 0,16.713 1.312,0 0,-46.012 c 0,-1.844 1.495,-3.339 3.339,-3.339 l 0.067,0 c 1.844,0 3.339,1.495 3.339,3.339 l 0,26.701 0.324,0 0.803,0 0.325,0 0,-26.701 c 0,-1.844 1.495,-3.339 3.339,-3.339 l 0.067,0 c 1.844,0 3.339,1.495 3.339,3.339 l 0,46.012 1.312,0 0,-16.713 c 0,-1.435 1.163,-2.598 2.597,-2.598 l 0.053,0 c 1.435,0 2.598,1.163 2.598,2.598 l 0,18.406 C 7.532,-3.372 4.16,0 0,0"
             id="path110"
             style="fill:#6fcbd1;fill-opacity:1;fill-rule:nonzero;stroke:none" /></g><g
           transform="translate(81.4249,59.9015)"
           id="g112"><path
             d="m 0,0 c 3.487,0 6.314,2.827 6.314,6.314 0,3.487 -2.827,6.314 -6.314,6.314 -3.487,0 -6.314,-2.827 -6.314,-6.314 C -6.314,2.827 -3.487,0 0,0"
             id="path114"
             style="fill:#6fcbd1;fill-opacity:1;fill-rule:nonzero;stroke:none" /></g></g></g></g></svg>