<svg xmlns="http://www.w3.org/2000/svg" viewBox="0 0 479.661 479.661"><path d="M478.424 455.558L288.128 153.99v-46.16h104a8.001 8.001 0 0 0 6.288-12.944l-28.04-35.64 28-34.4a8 8 0 0 0-6.248-13.016h-112a8 8 0 0 0-8 8v133.92L171.856 294.966l-21.144-31.736a7.998 7.998 0 0 0-6.544-3.568 8.144 8.144 0 0 0-6.648 3.384L1.472 455.206a8 8 0 0 0 6.536 12.624h463.648a8 8 0 0 0 6.768-12.272zM288.128 27.83h87.2l-21.384 26.28a8 8 0 0 0-.08 10l21.792 27.72h-87.528v-64zm-264.656 424l45.312-64h32l21.488 21.488 11.312-11.312-23.832-23.832a8 8 0 0 0-5.624-2.344h-24l63.744-90.032 89.6 134.472a8 8 0 0 0 6.656 3.56h60.968l32 32H23.472zm332.224 0l-45.656-45.656a8 8 0 0 0-5.656-2.344h-60l-63.032-94.608 18.776-26.44v1.048h84.688l30.576 30.576 11.312-11.312-32.92-32.92a8 8 0 0 0-5.656-2.344h-77.384l68.992-97.16 177.408 281.16H355.696z"/><path d="M215.968 138.494a8 8 0 0 0-9.256-6.504l-31.52 5.52 2.752 15.76 11.096-1.944-40.824 52.504h-44.088a8.002 8.002 0 0 0-6.4 3.2l-72 96 12.8 9.6 69.6-92.8h44a8 8 0 0 0 6.32-3.088l44.88-57.712 2.4 13.736 15.76-2.752-5.52-31.52z"/></svg>