<svg xmlns="http://www.w3.org/2000/svg" viewBox="0 0 329.89499 487.086"><path d="M312.875 37.711h-17.543V25.754C295.332 11.516 283.8 0 269.578 0H60.3C46.093 0 34.562 11.516 34.562 25.754v11.957H17.02C7.625 37.711 0 45.336 0 54.731v22.668c0 3.527 2.863 6.375 6.375 6.375H323.52c3.513 0 6.375-2.848 6.375-6.375V54.731c-.001-9.395-7.626-17.02-17.02-17.02zm-64.684 327.254l-7.48 85.105c-.238 2.625-2.406 4.615-5.062 4.615H94.246c-2.609 0-4.824-2.021-5.063-4.615l-7.48-85.105H59.16c-3.527 0-6.898-.647-10.125-1.613l7.879 89.531c1.707 19.508 17.766 34.203 37.332 34.203h141.403c19.563 0 35.62-14.695 37.332-34.203l7.875-89.5c-3.195.949-6.5 1.582-9.98 1.582zM34.437 197.195c4.285-1.789 8.887-2.816 13.633-2.816h18.652l-5.141-58.402h206.746l-5.142 58.402h18.777c4.699 0 9.254 1.012 13.508 2.781l8.228-93.582H26.211zm247.528 21.481H48.07c-3.113 0-6.09 1.328-8.16 3.637-1.82 2.043-2.645 4.699-2.609 7.402 0 .383-.16.73-.113 1.109l1.012 9.109 10.063 90.988c.617 5.569 5.301 9.746 10.898 9.746h211.714c5.604 0 10.281-4.177 10.898-9.746l9.414-85.103 1.483-16.8c-.141-2.469-.883-4.84-2.543-6.707-2.073-2.307-5.045-3.635-8.162-3.635zm-91.813 89.676c-22.191 22.207-53.041 27.363-68.888 11.531-15.836-15.852-10.68-46.695 11.531-68.891 22.191-22.211 53.039-27.367 68.887-11.531 15.837 15.851 10.681 46.68-11.53 68.891z"/><path d="M187.432 243.731c-17.465 4.891-31.18 18.839-35.796 36.382-1.551 5.841-5.41 10.884-10.633 13.858l-11.418 6.531c-3.895 2.215-5.238 7.168-3.023 11.059 1.504 2.609 4.238 4.082 7.039 4.082 1.379 0 2.754-.352 4.02-1.077l11.422-6.517c8.953-5.125 15.609-13.793 18.254-23.793 3.164-12.035 12.56-21.574 24.504-24.93 4.316-1.219 6.816-5.695 5.613-9.996-1.203-4.303-5.65-6.834-9.982-5.599z"/></svg>