<svg xmlns="http://www.w3.org/2000/svg" width="94" height="80"><defs><clipPath id="a"><path d="M0 108.8h127.8V0H0v108.8z"/></clipPath></defs><g clip-path="url(#a)" transform="matrix(.74 0 0 -.74 0 80)"><path d="M20.5 58.6H7.6A7.5 7.5 0 0 1 0 51V32.6C0 31.2 1.2 30 2.6 30c1.5 0 2.6 1.2 2.6 2.6v16.8h1.4v-46C6.6 1.3 8 0 9.9 0c2 0 3.4 1.5 3.4 3.3V30h1.5V3.3C14.8 1.5 16.3 0 18 0c2 0 3.4 1.5 3.4 3.3v46h1.3V32.7c0-1.4 1.2-2.6 2.6-2.6 1.5 0 2.7 1.2 2.7 2.6V51c0 4.2-3.4 7.6-7.6 7.6M14 59.9a6.3 6.3 0 1 1 0 12.6A6.3 6.3 0 0 1 14 60M53.9 58.6h-13a7.5 7.5 0 0 1-7.6-7.6V32.6c0-1.4 1.2-2.6 2.6-2.6 1.5 0 2.7 1.2 2.7 2.6v16.8h1.3v-46c0-2 1.5-3.4 3.3-3.4h.1c1.9 0 3.3 1.5 3.3 3.3V30H48.1V3.3c0-1.8 1.5-3.3 3.3-3.3h.1c1.8 0 3.3 1.5 3.3 3.3v46h1.4V32.7a2.6 2.6 0 1 1 5.2 0V51c0 4.2-3.4 7.6-7.5 7.6M47.4 59.9a6.3 6.3 0 1 1 0 12.6 6.3 6.3 0 0 1 0-12.6M87 58.6H74a7.5 7.5 0 0 1-7.6-7.6V32.6c0-1.4 1.2-2.6 2.6-2.6 1.5 0 2.7 1.2 2.7 2.6v16.8H73v-46c0-2 1.5-3.4 3.3-3.4 2 0 3.4 1.5 3.4 3.3V30h1.5V3.3c0-1.8 1.5-3.3 3.3-3.3 2 0 3.4 1.5 3.4 3.3v46h1.3V32.7c0-1.4 1.2-2.6 2.6-2.6 1.5 0 2.7 1.2 2.7 2.6V51c0 4.2-3.4 7.6-7.6 7.6M80.4 59.9a6.3 6.3 0 1 1 0 12.6 6.3 6.3 0 0 1 0-12.6M120.3 58.6h-13a7.5 7.5 0 0 1-7.6-7.6V32.6c0-1.4 1.2-2.6 2.6-2.6 1.5 0 2.7 1.2 2.7 2.6v16.8h1.3v-46c0-2 1.5-3.4 3.3-3.4h.1c1.9 0 3.3 1.5 3.3 3.3V30H114.5V3.3c0-1.8 1.5-3.3 3.3-3.3h.1c1.9 0 3.3 1.5 3.3 3.3v46h1.4V32.7a2.6 2.6 0 1 1 5.2 0V51c0 4.2-3.4 7.6-7.5 7.6M113.8 59.9a6.3 6.3 0 1 1 0 12.6 6.3 6.3 0 0 1 0-12.6" fill="#fff"/><path d="M113.8 81.7a2.5 2.5 0 0 0-2.3 1.2l-7.7 7.8a2.5 2.5 0 1 0 3.5 3.5l3.9-3.8v15.9a2.6 2.6 0 0 0 5.1 0v-16l4 4a2.5 2.5 0 1 0 3.5-3.6l-7.8-7.8a2.5 2.5 0 0 0-2.2-1.2M80.5 81.7a2.5 2.5 0 0 0-2.2 1.2l-7.8 7.8a2.5 2.5 0 1 0 3.6 3.5l3.9-3.8v15.9a2.6 2.6 0 0 0 5.1 0v-16l3.9 4a2.5 2.5 0 1 0 3.5-3.6l-7.7-7.8a2.5 2.5 0 0 0-2.2-1.2M47.3 81.7a2.5 2.5 0 0 0-2.3 1.2l-7.7 7.8a2.5 2.5 0 1 0 3.5 3.5l4-3.8v15.9a2.6 2.6 0 0 0 5 0v-16l4 4a2.5 2.5 0 1 0 3.5-3.6l-7.8-7.8a2.5 2.5 0 0 0-2.2-1.2M14 81.7a2.5 2.5 0 0 0-2.2 1.2L4 90.7a2.5 2.5 0 1 0 3.6 3.5l3.9-3.8v15.9a2.6 2.6 0 0 0 5.1 0v-16l3.9 4a2.5 2.5 0 1 0 3.5-3.6l-7.7-7.8a2.5 2.5 0 0 0-2.2-1.2" fill="#e45062"/></g></svg>