<svg xmlns="http://www.w3.org/2000/svg" viewBox="0 0 512 512"><path d="M256 272c-33.091 0-61 26.909-61 60s27.909 60 61 60 61-26.909 61-60-27.909-60-61-60zM437 332c-24.814 0-45 20.186-45 45s20.186 45 45 45 45-20.186 45-45-20.186-45-45-45zM75 332c-24.814 0-45 20.186-45 45s20.186 45 45 45 45-20.186 45-45-20.186-45-45-45zM407 0H105C63.647 0 30 33.647 30 75c0 36.226 25.811 66.519 60 73.491V197c0 6.064 3.647 11.543 9.258 13.857 5.596 2.329 12.07 1.055 16.348-3.252L171.211 150h35.757l36.552 55.32c5.566 8.35 19.395 8.35 24.961 0L304.032 150h36.757l55.605 57.605c4.33 4.33 10.816 5.561 16.348 3.252 5.61-2.314 9.258-7.793 9.258-13.857v-48.509c34.189-6.973 60-37.266 60-73.491 0-41.353-33.647-75-75-75zm-30 90H135c-8.291 0-15-6.709-15-15s6.709-15 15-15h242c8.291 0 15 6.709 15 15s-6.709 15-15 15zM481.112 437.35C468.699 446.452 453.536 452 437 452c-16.569 0-31.76-5.576-44.185-14.711-7.214 5.383-13.797 11.547-18.704 19.124C375.916 464.676 377 473.202 377 482v30h124.404c5.852 0 10.596-4.744 10.596-10.596 0-25.417-11.938-49.237-30.888-64.054zM343.7 457.099c-6.11-20.799-20.578-38.37-38.271-50.024C291.224 416.459 274.263 422 256 422c-18.239 0-36.178-5.532-50.373-14.894C180.709 424.162 165 453.926 165 485.6V497c0 8.401 6.599 15 15 15h152c8.401 0 15-6.599 15-15v-15c0-8.699-1.199-17.1-3.3-24.901zM119.185 437.289C106.758 446.424 91.569 452 75 452c-16.536 0-31.699-5.548-44.112-14.65C11.938 452.167 0 475.987 0 501.404 0 507.256 4.744 512 10.596 512H135v-30c0-8.798 1.084-17.324 2.889-25.587-4.907-7.577-11.492-13.74-18.704-19.124z"/></svg>