<svg xmlns="http://www.w3.org/2000/svg" viewBox="0 0 512.001 512.001"><path d="M504.433 219.102h-35.864v-37.747c0-11.405-9.278-20.684-20.684-20.684h-24.31c-1.924 0-3.781.284-5.549.778v-7.614c0-11.405-9.278-20.684-20.684-20.684h-40.158c-11.405 0-20.684 9.278-20.684 20.684v65.267H175.499v-65.267c0-11.405-9.278-20.684-20.684-20.684h-40.158c-11.405 0-20.684 9.278-20.684 20.684v7.614a20.584 20.584 0 0 0-5.549-.778H64.116c-11.405 0-20.684 9.278-20.684 20.684v37.747H7.567A7.567 7.567 0 0 0 0 226.669v58.663a7.567 7.567 0 0 0 7.567 7.567h35.865v37.747c0 11.405 9.278 20.684 20.684 20.684h24.309c1.924 0 3.781-.285 5.549-.778v7.614c0 11.405 9.278 20.684 20.684 20.684h40.158c11.405 0 20.684-9.279 20.684-20.684v-65.267h161.002v65.267c0 11.405 9.279 20.684 20.684 20.684h40.158c11.405 0 20.684-9.278 20.684-20.684v-7.614c1.769.494 3.625.778 5.549.778h24.31c11.405 0 20.684-9.278 20.684-20.684v-37.747h35.864a7.567 7.567 0 0 0 7.567-7.567v-58.663a7.57 7.57 0 0 0-7.569-7.567zM43.432 277.765H15.135v-43.529h28.297v43.529zm50.542 52.882a5.556 5.556 0 0 1-5.549 5.549H64.116a5.556 5.556 0 0 1-5.549-5.549V181.354c0-3.06 2.49-5.549 5.549-5.549h24.309a5.555 5.555 0 0 1 5.549 5.549v149.293zm66.39-103.977V358.166c0 3.06-2.49 5.549-5.549 5.549h-40.158a5.556 5.556 0 0 1-5.549-5.549V153.835c0-3.06 2.49-5.549 5.549-5.549h40.158a5.556 5.556 0 0 1 5.549 5.549v72.835zM336.5 277.765H175.499v-43.529H336.5v43.529zm66.392-96.412V358.167c0 3.06-2.49 5.549-5.549 5.549h-40.158a5.556 5.556 0 0 1-5.549-5.549V153.836c0-3.06 2.49-5.549 5.549-5.549h40.158a5.556 5.556 0 0 1 5.549 5.549v27.517zm50.543 45.316v103.978c0 3.06-2.49 5.549-5.549 5.549h-24.31a5.556 5.556 0 0 1-5.549-5.549V181.354c0-3.06 2.49-5.549 5.549-5.549h24.31a5.556 5.556 0 0 1 5.549 5.549v45.315zm43.43 51.096h-28.296v-43.529h28.296v43.529z"/></svg>