<svg xmlns="http://www.w3.org/2000/svg" width="18.040785" height="18"><path d="M17.6363438 14.23713285L14.8502259 11.450704c-.55494305-.55271438-1.47393954-.53592148-2.04821517.03856147l-1.40365816 1.40334718c-.08868101-.04887562-.18047182-.0999281-.27697915-.15409038-.88639546-.49114042-2.09957863-1.16430755-3.37620164-2.4418635C6.4647652 9.01640767 5.7909761 7.80135863 5.29833262 6.91439303c-.05198542-.09396766-.10179398-.18456638-.15098059-.27060406l.9420608-.9406614.46315226-.46372238c.57515674-.57531223.5910167-1.49404957.03736938-2.04837067L3.8038166.40429467C3.25016927-.149249 2.33075815-.1324561 1.7556014.44285613l-.78522344.78973265.0214576.0213021c-.26329605.3359616-.4833141.72344216-.64704485 1.14129506-.15092876.39774288-.24489642.77729346-.28786343 1.15762148-.36788885 3.0498804 1.02581797 5.83724221 4.80815894 9.61963501 5.2283442 5.22798138 9.44170286 4.83303731 9.62347043 4.81375658.395877-.04732073.77527209-.14191035 1.16083494-.29164702.4142248-.16181304.8014462-.38152011 1.1372005-.64424603l.0171557.015238.79548576-.77895201c.57396465-.57520857.5904984-1.49425689.03711023-2.0494591z"/></svg>