<svg xmlns="http://www.w3.org/2000/svg" width="15.333362" height="22.999998"><path d="M7.66668082 0C3.43935317 0 3e-8 3.43935313 3e-8 7.66668079c0 1.26904282.31728317 2.5273044.92044912 3.64334334L7.247425 22.75292716c.0842285.15255467.24473435.24707028.41925581.24707028.17452146 0 .3350273-.09451561.41925581-.24707029l6.3293118-11.44667646c.60083-1.1122655.91811318-2.370572.91811318-3.63961482C15.3333616 3.43935313 11.89400847 0 7.66668082 0zm0 11.49999872c-2.11366383 0-3.83331793-1.7196541-3.83331793-3.83331793s1.7196541-3.83331794 3.83331793-3.83331794 3.83331793 1.71965411 3.83331793 3.83331794c0 2.11366382-1.7196541 3.83331793-3.83331793 3.83331793z"/></svg>