<svg width="408" height="408" xmlns="http://www.w3.org/2000/svg"><path fill="none" d="M-1-1h582v402H-1z"/><g><path fill="#fff" d="M171.5 0h-147C11 0 0 11 0 24.6v147.8C0 185.9 11 197 24.5 197h147c13.5 0 24.5-11 24.5-24.6V24.6C196 11.1 185 0 171.5 0zm0 172.4h-147V24.6h147v147.8zM171.5 211h-147C11 211 0 222 0 235.6v147.8C0 396.9 11 408 24.5 408h147c13.5 0 24.5-11 24.5-24.6V235.6c0-13.5-11-24.6-24.5-24.6zm0 172.4h-147V235.6h147v147.8zM383.5 0h-147C223 0 212 11 212 24.6v147.8c0 13.5 11 24.6 24.5 24.6h147c13.5 0 24.5-11 24.5-24.6V24.6C408 11.1 397 0 383.5 0zm0 172.4h-147V24.6h147v147.8z" stroke="null"/><g stroke="null"><path fill="#af90cb" d="M172.3 149.2l-36.4.1v-35.7a5.6 5.6 0 1 0-11.2 0v35.6H90a5.6 5.6 0 1 0 0 11.2h34.8V196a5.6 5.6 0 1 0 11.2 0v-35.6h36.4a5.6 5.6 0 1 0 0-11.2z" transform="matrix(1.62125 0 0 1.65331 92.5 46.6)"/></g></g></svg>