<svg viewBox="80 40 480 450" xmlns="http://www.w3.org/2000/svg"><path fill="none" d="M-1-1h642v482H-1z"/><g><path fill="#fff" stroke-width="10" d="M510.8 467.6h-22.7c2-2.7 3.2-6 3.2-9.7V262a17 17 0 0 0-17-16.8H165.5a17 17 0 0 0-16.9 16.8V458c0 3.7 1.3 7.1 3.3 10h-23s-1 1 1.8 3.7c7.7 7.7 25 8.4 25 8.4h324.8c18.1 0 24-5.4 28.8-8.6 3.5-3.5 1.6-3.8 1.6-3.8zm-169.2 4.2H298v-3h43.5v3zM478.8 454H160.5V256.5h318.3V454z"/><path stroke="#8dc63f" stroke-linecap="null" stroke-linejoin="null" stroke-width="10" fill="none" d="M320 123.6V322"/><ellipse transform="rotate(-.4 320 328.3)" ry="9.3" rx="9.2" cy="328.3" cx="320" fill="#8dc63f"/><ellipse stroke="#8dc63f" ry="32.7" rx="34.2" cy="89.2" cx="320" stroke-width="10" fill="none"/><path stroke="#8dc63f" stroke-linecap="null" stroke-linejoin="null" stroke-width="10" fill="none" d="M238.4 173v197.8M407 172.2V372M157.4 177.7l78.5.2M403.3 177.7l78.4.2"/><ellipse stroke="#8dc63f" ry="32.7" rx="34.2" cy="177.7" cx="120" stroke-width="10" fill="none"/><ellipse stroke="#8dc63f" ry="32.7" rx="34.2" cy="178.2" cx="516" stroke-width="10" fill="none"/><ellipse transform="rotate(-.4 237.8 377.6)" ry="9.3" rx="9.2" cy="377.6" cx="237.8" fill="#8dc63f"/><ellipse transform="rotate(-.4 407 378.3)" ry="9.3" rx="9.2" cy="378.3" cx="407" fill="#8dc63f"/></g></svg>