<svg xmlns="http://www.w3.org/2000/svg" width="20.999561" height="21.000002" viewBox="0 0 20.999562 21.000003"><path d="M20.12298723 12.02021359c.0783615-.49580123.11961724-1.00302711.11961724-1.52075002 0-5.38106662-4.36197663-9.7429456-9.74318973-9.7429456-.51635585 0-1.02504644.04252514-1.52040825.12000781C8.08168196.32130653 7.02260563 0 5.887609 0 2.63602202 0 0 2.63568027 0 5.88760898c0 1.13475254.32150183 2.19295004.87647696 3.09208104-.07679915.49663122-.11908018 1.00224593-.11908018 1.51996884 0 5.38145721 4.36187899 9.74201796 9.74182267 9.74201796.51679527 0 1.02563232-.03983986 1.52094531-.11800606.89825218.55414514 1.95644968.87633049 3.09120222.87633049 3.25246577 0 5.88819486-2.6363638 5.88819486-5.88819486.00024412-1.13519195-.32106242-2.19314533-.8765746-3.0915928zm-4.9977056 2.91045813c-.4121668.5933503-1.01762529 1.05702575-1.80875901 1.39044047-.7927449.33429355-1.729714.50063473-2.8117373.50063473-1.2968461 0-2.37056943-.22693097-3.21809413-.68518703-.60077145-.3281418-1.08939564-.76833322-1.46504257-1.31725425-.3764281-.54936045-.56727862-1.08734505-.56727862-1.61190323 0-.30944246.11800606-.57855682.34771997-.797969.23210626-.22102335.53105169-.33180355.88389811-.33180355.2890343 0 .53730108.08705205.73942979.25954498.20061519.1724441.3689093.42315206.50654236.75397915.16497413.38326337.34415586.70364226.53481109.95928137.18948346.2524656.45615665.46323604.8015331.62821018.34156822.16541354.79616253.24812031 1.3650035.24812031.77848847 0 1.40762629-.16839177 1.88912226-.5005859.48393715-.3352212.71638516-.74309155.71638516-1.23591454 0-.39307687-.12532956-.70525344-.38233573-.94863789-.25934969-.24655797-.59427794-.4343326-1.0099112-.56532568-.41724443-.13236013-.97744367-.2727273-1.67947476-.42061325-.94268143-.20574164-1.73108105-.44522022-2.36954413-.7202422-.63929308-.27604728-1.14842307-.65340303-1.52577882-1.1300655-.37813693-.4813495-.56669274-1.07963096-.56669274-1.7882532 0-.6757153.19905284-1.28000203.5975491-1.80592727.39830097-.52738993.97456309-.93106147 1.7259546-1.2122352.74875505-.28107608 1.63026081-.42168736 2.6401232-.42168736.80758719 0 1.50615182.0934479 2.09745154.27936726.58968854.18728641 1.08124213.43443026 1.47427018.74455624.39053805.30944246.67791235.63582662.85992584.9783225.18186701.34352115.27345963.67903528.27345963 1.00644473 0 .30441365-.11800606.58050976-.34796408.82247833-.2299092.24231033-.52402113.36583343-.86749346.3647105-.30963775 0-.55253397-.07142858-.72097456-.22263452-.16404649-.1462748-.33634413-.37916222-.5227029-.70373992-.2355727-.45288548-.5177229-.8057319-.84581588-1.05809985-.31945125-.2476809-.84649942-.3766234-1.5798751-.37506106-.67854706 0-1.22146283.13865835-1.63123729.40982329-.41231327.27551022-.60941318.59515676-.61034082.96968075.00068353.2346939.0681574.43257497.20393517.60179674.13787717.17078411.32970415.31876771.57626212.4435114.24665562.12669662.49755886.2246851.7496827.29518603.25510205.0723074.67835176.17683821 1.26667325.31525244.73781861.15901768 1.4070404.33668589 2.00839773.53031934.60018557.1946099 1.11239144.4293038 1.5355435.70891518.42652087.27878139.75988677.63421545.99785183 1.06351925.23967387.42998733.35904699.95518022.35904699 1.5731863.00092764.74416566-.20637634 1.41343628-.61951962 2.00585893z"/></svg>