<svg xmlns="http://www.w3.org/2000/svg" viewBox="0 0 110 88"><defs><clipPath id="a"><path d="M0 153h195.9V0H0v153z"/></clipPath></defs><g clip-path="url(#a)" transform="matrix(.54 0 0 -.54 0 83)"><path d="M121.4 139h-12.9a7.5 7.5 0 0 1-7.6-7.5v-18.4c0-1.4 1.2-2.6 2.6-2.6 1.5 0 2.6 1.2 2.6 2.6V130h1.4v-46c0-2 1.5-3.4 3.3-3.4 2 0 3.4 1.5 3.4 3.3v26.7h1.5V83.8c0-1.8 1.4-3.3 3.3-3.3s3.4 1.5 3.4 3.3v46h1.3v-16.7c0-1.4 1.2-2.6 2.6-2.6 1.5 0 2.7 1.2 2.7 2.6v18.4c0 4.2-3.4 7.6-7.6 7.6M115 140.4a6.3 6.3 0 1 1 0 12.6 6.3 6.3 0 0 1 0-12.6M154.8 139h-13a7.5 7.5 0 0 1-7.6-7.5v-18.4c0-1.4 1.2-2.6 2.6-2.6 1.5 0 2.7 1.2 2.7 2.6V130h1.3v-46c0-2 1.5-3.4 3.3-3.4h.1c1.8 0 3.3 1.5 3.3 3.3v26.7H149V83.8c0-1.8 1.5-3.3 3.3-3.3h.1c1.8 0 3.3 1.5 3.3 3.3v46h1.4v-16.7c0-1.4 1.1-2.6 2.5-2.6h.1c1.4 0 2.6 1.2 2.6 2.6v18.4c0 4.2-3.4 7.6-7.5 7.6M148.3 140.4a6.3 6.3 0 1 1 0 12.6 6.3 6.3 0 0 1 0-12.6" fill="#fff"/><path d="M54.6 139h-13a7.5 7.5 0 0 1-7.5-7.5v-18.4a2.6 2.6 0 1 1 5.2 0V130h1.3v-46c0-2 1.5-3.4 3.4-3.4s3.4 1.5 3.4 3.3v26.7H48.8V83.8c0-1.8 1.5-3.3 3.3-3.3h.1c1.9 0 3.4 1.5 3.4 3.3v46h1.3v-16.7a2.6 2.6 0 1 1 5.2 0v18.4c0 4.2-3.4 7.6-7.5 7.6M48 140.4a6.3 6.3 0 1 1 0 12.6 6.3 6.3 0 0 1 0-12.6M88 139H75a7.5 7.5 0 0 1-7.6-7.5v-18.4c0-1.4 1.2-2.6 2.6-2.6 1.5 0 2.6 1.2 2.6 2.6V130H74v-46c0-2 1.4-3.4 3.3-3.4s3.4 1.5 3.4 3.3v26.7h1.5V83.8c0-1.8 1.4-3.3 3.3-3.3S89 82 89 83.8v46h1.3v-16.7c0-1.4 1.2-2.6 2.6-2.6 1.5 0 2.7 1.2 2.7 2.6v18.4c0 4.2-3.4 7.6-7.6 7.6M81.4 140.4a6.3 6.3 0 1 1 0 12.6 6.3 6.3 0 0 1 0-12.6M121.4 58.6h-12.9a7.5 7.5 0 0 1-7.6-7.6V32.6c0-1.4 1.2-2.6 2.6-2.6 1.5 0 2.6 1.2 2.6 2.6v16.8h1.4v-46c0-2 1.5-3.4 3.3-3.4 2 0 3.4 1.5 3.4 3.3V30h1.5V3.3c0-1.8 1.4-3.3 3.3-3.3s3.4 1.5 3.4 3.3v46h1.3V32.7c0-1.4 1.2-2.6 2.6-2.6 1.5 0 2.7 1.2 2.7 2.6V51c0 4.2-3.4 7.6-7.6 7.6M115 59.9a6.3 6.3 0 1 1 0 12.6 6.3 6.3 0 0 1 0-12.6M154.8 58.6h-13a7.5 7.5 0 0 1-7.6-7.6V32.6c0-1.4 1.2-2.6 2.6-2.6 1.5 0 2.7 1.2 2.7 2.6v16.8h1.3v-46c0-2 1.5-3.4 3.3-3.4h.1c1.8 0 3.3 1.5 3.3 3.3V30H149V3.3c0-1.8 1.5-3.3 3.3-3.3h.1c1.8 0 3.3 1.5 3.3 3.3v46h1.4V32.7c0-1.4 1.1-2.6 2.5-2.6h.1c1.4 0 2.6 1.2 2.6 2.6V51c0 4.2-3.4 7.6-7.5 7.6M148.3 59.9a6.3 6.3 0 1 1 0 12.6 6.3 6.3 0 0 1 0-12.6" fill="#75c8d2"/><path d="M188.3 139h-12.9a7.5 7.5 0 0 1-7.6-7.5v-18.4c0-1.4 1.2-2.6 2.6-2.6 1.5 0 2.6 1.2 2.6 2.6V130h1.4v-46c0-2 1.5-3.4 3.3-3.4 2 0 3.4 1.5 3.4 3.3v26.7h1.5V83.8c0-1.8 1.4-3.3 3.3-3.3s3.4 1.5 3.4 3.3v46h1.3v-16.7c0-1.4 1.2-2.6 2.6-2.6 1.5 0 2.7 1.2 2.7 2.6v18.4c0 4.2-3.4 7.6-7.6 7.6M181.8 140.4a6.3 6.3 0 1 1 0 12.6 6.3 6.3 0 0 1 0-12.6" fill="#fff"/><path d="M188.3 58.6h-12.9a7.5 7.5 0 0 1-7.6-7.6V32.6c0-1.4 1.2-2.6 2.6-2.6 1.5 0 2.6 1.2 2.6 2.6v16.8h1.4v-46c0-2 1.5-3.4 3.3-3.4 2 0 3.4 1.5 3.4 3.3V30h1.5V3.3c0-1.8 1.4-3.3 3.3-3.3s3.4 1.5 3.4 3.3v46h1.3V32.7c0-1.4 1.2-2.6 2.6-2.6 1.5 0 2.7 1.2 2.7 2.6V51c0 4.2-3.4 7.6-7.6 7.6M181.8 59.9a6.3 6.3 0 1 1 0 12.6 6.3 6.3 0 0 1 0-12.6" fill="#75c8d2"/><path d="M54.6 58.6h-13A7.5 7.5 0 0 1 34 51V32.6a2.6 2.6 0 1 1 5.2 0v16.8h1.3v-46c0-2 1.5-3.4 3.4-3.4s3.4 1.5 3.4 3.3V30H48.8V3.3c0-1.8 1.5-3.3 3.3-3.3h.1c1.9 0 3.4 1.5 3.4 3.3v46h1.3V32.7a2.6 2.6 0 1 1 5.2 0V51c0 4.2-3.4 7.6-7.5 7.6M48 59.9a6.3 6.3 0 1 1 0 12.6A6.3 6.3 0 0 1 48 60" fill="#fff"/><path d="M20.5 139H7.6a7.5 7.5 0 0 1-7.6-7.5v-18.4c0-1.4 1.2-2.6 2.6-2.6 1.5 0 2.6 1.2 2.6 2.6V130h1.4v-46c0-2 1.5-3.4 3.3-3.4 2 0 3.4 1.5 3.4 3.3v26.7h1.5V83.8c0-1.8 1.5-3.3 3.3-3.3 2 0 3.4 1.5 3.4 3.3v46h1.3v-16.7c0-1.4 1.2-2.6 2.6-2.6 1.5 0 2.7 1.2 2.7 2.6v18.4c0 4.2-3.4 7.6-7.6 7.6M14 140.4a6.3 6.3 0 1 1 0 12.6 6.3 6.3 0 0 1 0-12.6" fill="#75c8d2"/><path d="M20.5 58.6H7.6A7.5 7.5 0 0 1 0 51V32.6C0 31.2 1.2 30 2.6 30c1.5 0 2.6 1.2 2.6 2.6v16.8h1.4v-46C6.6 1.3 8 0 9.9 0c2 0 3.4 1.5 3.4 3.3V30h1.5V3.3C14.8 1.5 16.3 0 18 0c2 0 3.4 1.5 3.4 3.3v46h1.3V32.7c0-1.4 1.2-2.6 2.6-2.6 1.5 0 2.7 1.2 2.7 2.6V51c0 4.2-3.4 7.6-7.6 7.6M14 59.9a6.3 6.3 0 1 1 0 12.6A6.3 6.3 0 0 1 14 60M88 58.6H75a7.5 7.5 0 0 1-7.6-7.6V32.6c0-1.4 1.2-2.6 2.6-2.6 1.5 0 2.6 1.2 2.6 2.6v16.8H74v-46c0-2 1.4-3.4 3.3-3.4s3.4 1.5 3.4 3.3V30h1.5V3.3c0-1.8 1.4-3.3 3.3-3.3S89 1.5 89 3.3v46h1.3V32.7c0-1.4 1.2-2.6 2.6-2.6 1.5 0 2.7 1.2 2.7 2.6V51c0 4.2-3.4 7.6-7.6 7.6M81.4 59.9a6.3 6.3 0 1 1 0 12.6 6.3 6.3 0 0 1 0-12.6" fill="#fff"/></g></svg>