<svg xmlns="http://www.w3.org/2000/svg" viewBox="0 0 512 341.34"><path fill="#fff" d="M0 .00300018h512v341.33701H0z"/><path d="M224 138.666H0v64h224v138.666h64V202.666h224v-64H288V0h-64z"/><path d="M512 230.028H393.785L512 295.704zM512 309.858l-143.693-79.83h-56.655L512 341.332zM311.652 341.332h146.982l-146.982-81.664z"/><path fill="#f0f0f0" d="M512 309.858l-143.693-79.83h-56.655L512 341.332z"/><path d="M512 309.858l-143.693-79.83h-56.655L512 341.332zM0 230.026h90.341L0 280.216zM25.491 341.331l174.857-97.151v97.151zM0 341.332l200.348-111.304h-56.655L0 309.858zM0 45.628v65.676h118.215z"/><path fill="#0052b4" d="M200.348 111.304L0 0v31.474l143.693 79.83z"/><path d="M200.348 81.664V0H53.366z"/><path fill="#f0f0f0" d="M0 31.474l143.693 79.83h56.655L0 0z"/><path d="M0 31.474l143.693 79.83h56.655L0 0zM512 61.116v50.19h-90.341zM311.652.001h174.857L311.652 97.152zM512 0L311.652 111.304h56.655L512 31.474z"/></svg>