<svg xmlns="http://www.w3.org/2000/svg" viewBox="0 0 51 43.350132" width="51" height="43.350132"><path d="M25.50048601-2e-8L12.2404452 12.44301828h8.41502591v13.0570602h9.69002983v-13.0570602h8.4150259zm23.81554332 29.4327006l-8.118205-5.46262681h-5.0061754l8.67104669 6.65195047h-9.03875783c-.2590808 0-.49419152.1315804-.61047187.33864104l-2.08386642 5.69977755H17.86933252l-2.08386641-5.69977755c-.11577036-.20706063-.35139108-.33864104-.61047188-.33864104H6.1362364l8.6720667-6.65195047H9.80110769l-8.117185 5.46262681C.47572899 30.1543528-.24643323 31.81746792.07741776 33.12817196l1.4315744 7.83821413c.324361 1.31070403 1.76052543 2.38374734 3.19107983 2.38374734h41.59980806c1.4305544 0 2.86671883-1.0730433 3.19158983-2.38374734l1.4305544-7.83821413c.325381-1.31070404-.39780122-2.97381916-1.60599494-3.69547138z" /></svg>