<?xml version="1.0" encoding="UTF-8" standalone="no"?>
<svg
   xmlns:dc="http://purl.org/dc/elements/1.1/"
   xmlns:cc="http://creativecommons.org/ns#"
   xmlns:rdf="http://www.w3.org/1999/02/22-rdf-syntax-ns#"
   xmlns:svg="http://www.w3.org/2000/svg"
   xmlns="http://www.w3.org/2000/svg"
   viewBox="0 0 281.375 62.337502"
   height="62.337502"
   width="281.375"
   xml:space="preserve"
   version="1.1"
   id="svg2"><metadata
     id="metadata8"><rdf:RDF><cc:Work
         rdf:about=""><dc:format>image/svg+xml</dc:format><dc:type
           rdf:resource="http://purl.org/dc/dcmitype/StillImage" /><dc:title></dc:title></cc:Work></rdf:RDF></metadata><defs
     id="defs6" /><g
     transform="matrix(1.25,0,0,-1.25,0,62.3375)"
     id="g10"><g
       transform="scale(0.1,0.1)"
       id="g12"><path
         id="path14"
         style="fill:#35445f;fill-opacity:1;fill-rule:evenodd;stroke:none"
         d="m 249.352,498.711 c 137.343,0 249.363,-112.012 249.363,-249.363 C 498.715,112.012 386.695,0 249.352,0 112.012,0 0,112.012 0,249.348 0,386.699 112.012,498.711 249.352,498.711 l 0,0" /><path
         id="path16"
         style="fill:#ffffff;fill-opacity:1;fill-rule:evenodd;stroke:none"
         d="m 303.844,174.785 0,50.117 -51.68,0 0,49.168 152.902,0 0,-49.168 -51.125,0 0,-99.238 -0.418,0 0,-0.43 -199.773,0 0,248.243 149.746,0 0,-49.559 -102.769,0 0,-149.133 103.117,0 0,0" /><path
         id="path18"
         style="fill:#9ddeda;fill-opacity:1;fill-rule:evenodd;stroke:none"
         d="m 2122.98,90.7305 42.5,0 0,-5.2813 c 0,-10.3008 1.76,-17.5976 5.22,-21.9648 3.46,-4.3828 9.25,-6.5703 17.36,-6.5703 6.43,0 11.46,1.9531 15.22,5.8593 3.73,3.9454 5.62,9.2891 5.62,16.0352 0,9.4727 -8.88,20.0195 -26.54,31.5434 l -2.56,1.628 c -9.28,6.047 -16.73,11 -22.26,14.868 -5.55,3.894 -9.65,7.117 -12.38,9.617 -7.3,6.68 -12.35,12.976 -15.01,18.894 -2.73,5.911 -4.07,13.215 -4.07,21.836 0,16.743 5.71,30.032 17.15,39.973 11.4,9.934 26.74,14.863 46.04,14.863 19.96,0 34.98,-4.609 44.98,-13.808 10.08,-9.18 15.14,-22.864 15.14,-41.028 l 0,-5.254 -41.32,0 0,1.055 c 0,9.426 -1.71,16.508 -5.09,21.203 -3.38,4.766 -8.43,7.129 -15.17,7.129 -6.16,0 -11.07,-1.855 -14.71,-5.547 -3.63,-3.691 -5.51,-8.73 -5.51,-15.008 0,-10.773 11.58,-23.019 34.67,-36.73 5.96,-3.594 10.57,-6.426 13.81,-8.508 13.07,-8.308 22.18,-16.258 27.31,-23.875 5.07,-7.629 7.61,-16.7381 7.61,-27.3123 0,-19.3477 -5.68,-33.9961 -17.04,-43.8204 -11.38,-9.8437 -28.18,-14.7539 -50.5,-14.7539 -20.94,0 -36.26,4.6563 -46.06,13.9922 -9.78,9.3555 -14.68,24.0039 -14.68,43.9571 0,0.664 0.05,1.8437 0.12,3.3476 0.1,1.543 0.15,2.7344 0.15,3.6602 l 0,0 z m -123.16,-61.5703 0,199.6098 107.85,0 0,-30.872 -65.76,0 0,-47.625 60.52,0 0,-30.722 -60.52,0 0,-58.2112 68.21,0 0,-32.1796 -110.3,0 0,0 z m -66.85,0 0,199.6098 40.76,0 0,-199.6098 -40.76,0 0,0 z m -23.28,104.9808 0,-101.2894 c -13.44,-2.4688 -24.81,-4.1993 -34.09,-5.2344 -9.34,-1.0625 -17.73,-1.5703 -25.31,-1.5703 -12.21,0 -22.5,1.1094 -30.94,3.3867 -8.42,2.2578 -15.31,5.6719 -20.66,10.293 -8.18,7.207 -14.01,17.3828 -17.46,30.4882 -3.41,13.1836 -5.12,34.2772 -5.12,63.4372 0,20.098 1.05,35.703 3.16,46.778 2.11,11.152 5.64,20.39 10.63,27.773 5.13,7.676 12.39,13.445 21.71,17.285 9.34,3.828 20.79,5.711 34.34,5.711 20.74,0 36.6,-5.164 47.42,-15.554 10.88,-10.403 16.32,-25.547 16.32,-45.45 l 0,-3.007 -40.96,0 0,2.441 c 0,11.277 -2,19.648 -5.92,25.137 -3.95,5.449 -9.99,8.175 -18.07,8.175 -10.19,0 -17.23,-4.543 -21.05,-13.586 -3.85,-9.089 -5.78,-29.05 -5.78,-59.921 0,-32.559 2.3,-53.0668 6.98,-61.4731 4.65,-8.4687 13.34,-12.6679 26.04,-12.6679 2.82,0 5.86,0.2343 9.15,0.6914 3.32,0.4219 7.16,1.2031 11.59,2.2695 l 0,44.6371 -23,0 0,31.25 61.02,0 0,0 z m -246.45,-4.707 c 0,-29.375 1.85,-48.7699 5.54,-58.1645 3.7,-9.3554 10.32,-14.082 19.87,-14.082 9.9,0 16.72,4.5313 20.47,13.5547 3.74,9.1406 5.6,29.3628 5.6,60.7418 0,27.754 -1.86,46.192 -5.56,55.196 -3.7,9.004 -10.35,13.535 -20,13.535 -9.8,0 -16.58,-4.629 -20.32,-13.809 -3.75,-9.211 -5.6,-28.183 -5.6,-56.972 l 0,0 z m 25.92,-103.3871 c -9.2,0 -17.8,1.1992 -25.73,3.6601 -8.01,2.4493 -14.37,5.7735 -19.14,10.0196 -8.22,7.1093 -14.07,17.4609 -17.63,30.9961 -3.57,13.5546 -5.36,33.6913 -5.36,60.4883 0,20.723 1.05,36.934 3.23,48.586 2.18,11.629 5.74,21.101 10.66,28.406 4.9,7.395 11.97,13.074 21.21,17.051 9.24,3.965 20.04,5.945 32.52,5.945 9.52,0 18.29,-1.238 26.21,-3.719 7.94,-2.46 14.44,-5.925 19.49,-10.363 7.86,-6.929 13.43,-16.597 16.8,-28.855 3.39,-12.356 5.09,-30.567 5.09,-54.61 0,-25.097 -1.06,-43.4762 -3.22,-55.1676 -2.18,-11.6875 -5.83,-21.336 -10.95,-29.0196 -4.91,-7.375 -11.97,-13.1562 -21.27,-17.2851 -9.3,-4.082 -19.9,-6.1328 -31.91,-6.1328 l 0,0 z m -174.25,3.1133 0,199.6098 42.08,0 0,-164.4341 61.03,0 0,-35.1757 -103.11,0 0,0 z M 1399.06,129.434 c 0,-29.375 1.85,-48.7699 5.52,-58.1645 3.72,-9.3554 10.34,-14.082 19.87,-14.082 9.9,0 16.72,4.5313 20.47,13.5547 3.77,9.1406 5.6,29.3628 5.6,60.7418 0,27.754 -1.83,46.192 -5.56,55.196 -3.68,9.004 -10.34,13.535 -20,13.535 -9.77,0 -16.57,-4.629 -20.31,-13.809 -3.74,-9.211 -5.59,-28.183 -5.59,-56.972 l 0,0 z m 25.9,-103.3871 c -9.2,0 -17.78,1.1992 -25.72,3.6601 -8,2.4493 -14.38,5.7735 -19.14,10.0196 -8.21,7.1093 -14.08,17.4609 -17.62,30.9961 -3.58,13.5546 -5.38,33.6913 -5.38,60.4883 0,20.723 1.06,36.934 3.23,48.586 2.18,11.629 5.74,21.101 10.68,28.406 4.9,7.395 11.97,13.074 21.21,17.051 9.24,3.965 20.06,5.945 32.51,5.945 9.52,0 18.3,-1.238 26.19,-3.719 7.95,-2.46 14.47,-5.925 19.5,-10.363 7.87,-6.929 13.44,-16.597 16.82,-28.855 3.37,-12.356 5.08,-30.567 5.08,-54.61 0,-25.097 -1.06,-43.4762 -3.22,-55.1676 -2.19,-11.6875 -5.83,-21.336 -10.94,-29.0196 -4.9,-7.375 -11.99,-13.1562 -21.27,-17.2851 -9.3,-4.082 -19.91,-6.1328 -31.93,-6.1328 l 0,0 z m -238.12,3.1133 0,199.6098 56.01,0 38.18,-103.672 c 4.47,-12.102 8.49,-23.875 11.95,-35.391 3.47,-11.4922 6.43,-22.8125 8.87,-33.8867 -0.97,8.582 -1.76,17.5977 -2.3,27.0899 -0.51,9.5703 -0.8,19.8238 -0.8,30.8198 l -2.43,115.04 38.56,0 0,-199.6098 -54.69,0 -40.43,109.1918 c -2.99,8.23 -6.17,18.074 -9.6,29.519 -3.47,11.465 -6.98,24.07 -10.58,37.891 0.98,-12.617 1.75,-23.75 2.31,-33.301 0.51,-9.563 0.82,-17.656 0.94,-24.356 l 2.3,-118.9448 -38.29,0 0,0 z m -112.92,0 -41.53,0 0,199.6098 41.53,0 0,-77.665 45.5,0 0,77.665 41.83,0 0,-199.6098 -41.83,0 0,88.3598 -45.5,0 0,-88.3598 z m -60.6,68.2343 c 0.18,-1.0859 0.28,-2.289 0.33,-3.5273 0.04,-1.2891 0.08,-3.1836 0.08,-5.6758 0,-19.8711 -5.37,-35.1641 -16.132,-45.9648 -10.7,-10.7618 -26.051,-16.1797 -46.016,-16.1797 -9.164,0 -17.758,1.1992 -25.754,3.6601 -7.992,2.4493 -14.379,5.7735 -19.18,10.0196 -8.171,7.1093 -13.996,17.2382 -17.453,30.3007 -3.429,13.0704 -5.129,34.2817 -5.129,63.6247 0,20.098 1.067,35.703 3.18,46.778 2.129,11.152 5.637,20.39 10.629,27.773 4.945,7.481 12.008,13.203 21.152,17.149 9.192,3.918 19.961,5.847 32.301,5.847 20.219,0 35.418,-5.113 45.68,-15.418 10.252,-10.301 15.392,-25.605 15.392,-45.879 l 0,-3.769 -41.869,0 0,3.769 c 0,10.586 -1.605,18.399 -4.926,23.477 -3.281,5.137 -8.335,7.676 -15.113,7.676 -9.383,0 -15.804,-4.492 -19.371,-13.399 -3.492,-8.918 -5.254,-29.707 -5.254,-62.285 0,-27.2851 1.844,-45.4882 5.481,-54.6288 3.656,-9.0234 10.234,-13.5547 19.687,-13.5547 6.785,0 11.871,2.793 15.27,8.2813 3.359,5.4882 5.062,13.8007 5.062,25.039 0,0.6836 -0.054,1.7891 -0.137,3.2617 -0.085,1.5235 -0.14,2.6953 -0.14,3.625 l 42.23,0 0,0 z m -254.691,-68.2343 0,199.6098 107.887,0 0,-30.872 -65.789,0 0,-47.625 60.511,0 0,-30.722 -60.511,0 0,-58.2112 68.238,0 0,-32.1796 -110.336,0 0,0 z m -106.914,0 0,166.8558 -45.465,0 0,32.754 134.133,0 0,-32.754 -45.754,0 0,-166.8558 -42.914,0 0,0" /><path
         id="path20"
         style="fill:#35445f;fill-opacity:1;fill-rule:evenodd;stroke:none"
         d="m 801.438,371.156 c 0,-29.383 1.847,-48.773 5.539,-58.164 3.691,-9.359 10.296,-14.082 19.871,-14.082 9.882,0 16.711,4.528 20.465,13.563 3.734,9.125 5.582,29.359 5.582,60.715 0,27.769 -1.848,46.203 -5.536,55.21 -3.703,9.004 -10.343,13.536 -20.004,13.536 -9.804,0 -16.585,-4.625 -20.335,-13.813 -3.735,-9.195 -5.582,-28.18 -5.582,-56.965 l 0,0 z m 118.667,99.324 65.926,0 c 25.689,0 43.749,-7.351 54.199,-22.082 10.38,-14.695 15.6,-40.601 15.6,-77.796 0,-37.094 -5.22,-62.954 -15.6,-77.653 -10.45,-14.726 -28.51,-22.082 -54.199,-22.082 l -65.926,0 0,199.613 z m 282.255,-199.613 0,199.613 42.07,0 0,-164.421 61.03,0 0,-35.192 -103.1,0 0,0 z m -128.44,0 0,199.613 107.87,0 0,-30.851 -65.77,0 0,-47.633 60.52,0 0,-30.726 -60.52,0 0,-58.204 68.23,0 0,-32.199 -110.33,0 0,0 z m -111.443,169.313 0,-138.035 17.972,0 c 13.258,0 22.391,4.394 27.381,13.207 5.05,8.789 7.53,27.402 7.53,55.804 0,28.414 -2.48,47.032 -7.53,55.813 -4.99,8.824 -14.123,13.211 -27.381,13.211 l -17.972,0 0,0 z M 827.355,267.77 c -9.203,0 -17.785,1.207 -25.738,3.652 -7.996,2.445 -14.355,5.766 -19.117,10.027 -8.23,7.102 -14.102,17.461 -17.656,30.996 -3.551,13.535 -5.364,33.684 -5.364,60.469 0,20.742 1.071,36.953 3.239,48.594 2.179,11.648 5.734,21.109 10.679,28.418 4.899,7.39 11.957,13.074 21.196,17.043 9.246,3.969 20.051,5.957 32.523,5.957 9.52,0 18.293,-1.246 26.196,-3.735 7.957,-2.457 14.453,-5.918 19.496,-10.351 7.851,-6.93 13.437,-16.59 16.82,-28.875 3.359,-12.332 5.074,-30.535 5.074,-54.594 0,-25.101 -1.058,-43.476 -3.238,-55.168 -2.152,-11.695 -5.817,-21.336 -10.942,-29.012 -4.894,-7.386 -11.96,-13.168 -21.25,-17.269 -9.293,-4.117 -19.91,-6.152 -31.918,-6.152 l 0,0 z m -87.507,108.093 0,-101.3 c -13.438,-2.454 -24.789,-4.196 -34.086,-5.227 -9.336,-1.063 -17.739,-1.566 -25.309,-1.566 -12.199,0 -22.5,1.109 -30.961,3.378 -8.414,2.247 -15.289,5.684 -20.644,10.301 -8.172,7.207 -14,17.364 -17.469,30.489 -3.414,13.167 -5.129,34.277 -5.129,63.433 0,20.094 1.07,35.699 3.191,46.789 2.125,11.133 5.625,20.371 10.618,27.766 5.14,7.672 12.39,13.445 21.718,17.277 9.344,3.836 20.786,5.723 34.317,5.723 20.758,0 36.597,-5.172 47.453,-15.567 10.855,-10.394 16.301,-25.546 16.301,-45.453 l 0,-3 -40.965,0 0,2.438 c 0,11.277 -1.981,19.636 -5.914,25.133 -3.93,5.457 -9.981,8.183 -18.059,8.183 -10.215,0 -17.234,-4.539 -21.07,-13.582 -3.84,-9.105 -5.774,-29.062 -5.774,-59.922 0,-32.562 2.305,-53.074 6.969,-61.484 4.672,-8.442 13.363,-12.664 26.055,-12.664 2.832,0 5.875,0.238 9.152,0.695 3.321,0.418 7.145,1.207 11.59,2.27 l 0,44.632 -23.008,0 0,31.258 61.024,0 0,0" /></g></g></svg>